%TF.GenerationSoftware,KiCad,Pcbnew,(6.0.11)*%
%TF.CreationDate,2024-05-07T01:49:41+08:00*%
%TF.ProjectId,badge,62616467-652e-46b6-9963-61645f706362,rev?*%
%TF.SameCoordinates,Original*%
%TF.FileFunction,Soldermask,Top*%
%TF.FilePolarity,Negative*%
%FSLAX46Y46*%
G04 Gerber Fmt 4.6, Leading zero omitted, Abs format (unit mm)*
G04 Created by KiCad (PCBNEW (6.0.11)) date 2024-05-07 01:49:41*
%MOMM*%
%LPD*%
G01*
G04 APERTURE LIST*
G04 Aperture macros list*
%AMRoundRect*
0 Rectangle with rounded corners*
0 $1 Rounding radius*
0 $2 $3 $4 $5 $6 $7 $8 $9 X,Y pos of 4 corners*
0 Add a 4 corners polygon primitive as box body*
4,1,4,$2,$3,$4,$5,$6,$7,$8,$9,$2,$3,0*
0 Add four circle primitives for the rounded corners*
1,1,$1+$1,$2,$3*
1,1,$1+$1,$4,$5*
1,1,$1+$1,$6,$7*
1,1,$1+$1,$8,$9*
0 Add four rect primitives between the rounded corners*
20,1,$1+$1,$2,$3,$4,$5,0*
20,1,$1+$1,$4,$5,$6,$7,0*
20,1,$1+$1,$6,$7,$8,$9,0*
20,1,$1+$1,$8,$9,$2,$3,0*%
%AMHorizOval*
0 Thick line with rounded ends*
0 $1 width*
0 $2 $3 position (X,Y) of the first rounded end (center of the circle)*
0 $4 $5 position (X,Y) of the second rounded end (center of the circle)*
0 Add line between two ends*
20,1,$1,$2,$3,$4,$5,0*
0 Add two circle primitives to create the rounded ends*
1,1,$1,$2,$3*
1,1,$1,$4,$5*%
%AMRotRect*
0 Rectangle, with rotation*
0 The origin of the aperture is its center*
0 $1 length*
0 $2 width*
0 $3 Rotation angle, in degrees counterclockwise*
0 Add horizontal line*
21,1,$1,$2,0,0,$3*%
%AMFreePoly0*
4,1,21,-0.125000,1.200000,0.125000,1.200000,0.125000,1.700000,0.375000,1.700000,0.375000,1.200000,0.825000,1.200000,0.825000,-1.200000,0.375000,-1.200000,0.375000,-1.700000,0.125000,-1.700000,0.125000,-1.200000,-0.125000,-1.200000,-0.125000,-1.700000,-0.375000,-1.700000,-0.375000,-1.200000,-0.825000,-1.200000,-0.825000,1.200000,-0.375000,1.200000,-0.375000,1.700000,-0.125000,1.700000,
-0.125000,1.200000,-0.125000,1.200000,$1*%
G04 Aperture macros list end*
%ADD10C,0.000000*%
%ADD11C,0.150000*%
%ADD12C,0.280000*%
%ADD13R,1.200000X0.900000*%
%ADD14R,2.195000X2.195000*%
%ADD15RoundRect,0.250000X-0.412500X-0.650000X0.412500X-0.650000X0.412500X0.650000X-0.412500X0.650000X0*%
%ADD16RoundRect,0.250000X-0.625000X0.400000X-0.625000X-0.400000X0.625000X-0.400000X0.625000X0.400000X0*%
%ADD17C,3.200000*%
%ADD18R,2.000000X1.500000*%
%ADD19RoundRect,0.250000X0.400000X0.625000X-0.400000X0.625000X-0.400000X-0.625000X0.400000X-0.625000X0*%
%ADD20RoundRect,0.250000X0.625000X-0.400000X0.625000X0.400000X-0.625000X0.400000X-0.625000X-0.400000X0*%
%ADD21RoundRect,0.250000X-0.650000X0.412500X-0.650000X-0.412500X0.650000X-0.412500X0.650000X0.412500X0*%
%ADD22RoundRect,0.250000X0.650000X-0.412500X0.650000X0.412500X-0.650000X0.412500X-0.650000X-0.412500X0*%
%ADD23RotRect,1.700000X1.700000X45.000000*%
%ADD24HorizOval,1.700000X0.000000X0.000000X0.000000X0.000000X0*%
%ADD25RotRect,1.700000X1.700000X225.000000*%
%ADD26HorizOval,1.700000X0.000000X0.000000X0.000000X0.000000X0*%
%ADD27RoundRect,0.250000X0.412500X0.650000X-0.412500X0.650000X-0.412500X-0.650000X0.412500X-0.650000X0*%
%ADD28RoundRect,0.250200X0.649800X0.649800X-0.649800X0.649800X-0.649800X-0.649800X0.649800X-0.649800X0*%
%ADD29C,1.800000*%
%ADD30RotRect,1.700000X1.700000X135.000000*%
%ADD31HorizOval,1.700000X0.000000X0.000000X0.000000X0.000000X0*%
%ADD32R,1.500000X0.900000*%
%ADD33RoundRect,0.250000X-0.400000X-0.625000X0.400000X-0.625000X0.400000X0.625000X-0.400000X0.625000X0*%
%ADD34R,1.700000X1.700000*%
%ADD35O,1.700000X1.700000*%
%ADD36R,1.800000X1.800000*%
%ADD37RoundRect,0.150000X-0.150000X0.587500X-0.150000X-0.587500X0.150000X-0.587500X0.150000X0.587500X0*%
%ADD38RoundRect,0.250000X-0.751301X-0.167938X-0.167938X-0.751301X0.751301X0.167938X0.167938X0.751301X0*%
%ADD39R,4.000000X3.500000*%
%ADD40RoundRect,0.250001X-0.624999X0.462499X-0.624999X-0.462499X0.624999X-0.462499X0.624999X0.462499X0*%
%ADD41RoundRect,0.150000X0.150000X-0.587500X0.150000X0.587500X-0.150000X0.587500X-0.150000X-0.587500X0*%
%ADD42R,1.000000X1.550000*%
%ADD43O,5.500000X2.000000*%
%ADD44C,2.500000*%
%ADD45FreePoly0,0.000000*%
%ADD46R,0.600000X0.240000*%
%ADD47C,2.000000*%
%ADD48R,2.000000X2.000000*%
%ADD49O,4.000000X3.300000*%
G04 APERTURE END LIST*
D10*
G36*
X32537399Y-81765422D02*
G01*
X32545866Y-82042000D01*
X32794221Y-82050467D01*
X33039755Y-82058934D01*
X33039755Y-82423000D01*
X32531755Y-82423000D01*
X32534577Y-82922533D01*
X32534861Y-83020665D01*
X32535790Y-83109097D01*
X32537479Y-83188452D01*
X32540045Y-83259348D01*
X32543603Y-83322405D01*
X32545791Y-83351189D01*
X32548269Y-83378245D01*
X32551054Y-83403652D01*
X32554159Y-83427486D01*
X32557599Y-83449827D01*
X32561388Y-83470750D01*
X32565541Y-83490334D01*
X32570073Y-83508656D01*
X32574997Y-83525793D01*
X32580328Y-83541824D01*
X32586081Y-83556825D01*
X32592270Y-83570874D01*
X32598910Y-83584049D01*
X32606015Y-83596427D01*
X32613599Y-83608086D01*
X32621677Y-83619103D01*
X32630264Y-83629555D01*
X32639374Y-83639521D01*
X32649021Y-83649077D01*
X32659221Y-83658302D01*
X32669986Y-83667273D01*
X32681333Y-83676066D01*
X32693571Y-83685034D01*
X32705024Y-83692906D01*
X32715898Y-83699712D01*
X32726400Y-83705479D01*
X32736737Y-83710238D01*
X32747115Y-83714018D01*
X32757741Y-83716846D01*
X32768821Y-83718753D01*
X32780564Y-83719766D01*
X32793174Y-83719916D01*
X32806860Y-83719230D01*
X32821826Y-83717739D01*
X32838282Y-83715470D01*
X32856432Y-83712452D01*
X32898644Y-83704289D01*
X33036933Y-83676066D01*
X33067977Y-83811533D01*
X33075364Y-83847405D01*
X33081564Y-83879035D01*
X33086450Y-83906746D01*
X33089893Y-83930860D01*
X33091034Y-83941669D01*
X33091765Y-83951700D01*
X33092072Y-83960993D01*
X33091938Y-83969589D01*
X33091348Y-83977527D01*
X33090284Y-83984848D01*
X33088732Y-83991592D01*
X33086674Y-83997800D01*
X33084096Y-84003512D01*
X33080981Y-84008768D01*
X33077313Y-84013608D01*
X33073076Y-84018074D01*
X33068254Y-84022204D01*
X33062831Y-84026040D01*
X33056791Y-84029622D01*
X33050118Y-84032989D01*
X33042796Y-84036184D01*
X33034809Y-84039244D01*
X33016775Y-84045127D01*
X32995889Y-84050961D01*
X32972022Y-84057067D01*
X32932539Y-84066107D01*
X32893491Y-84073657D01*
X32854915Y-84079734D01*
X32816849Y-84084352D01*
X32779331Y-84087528D01*
X32742398Y-84089276D01*
X32706089Y-84089612D01*
X32670441Y-84088552D01*
X32635491Y-84086112D01*
X32601278Y-84082306D01*
X32567838Y-84077150D01*
X32535211Y-84070660D01*
X32503433Y-84062851D01*
X32472543Y-84053739D01*
X32442577Y-84043339D01*
X32413574Y-84031667D01*
X32385572Y-84018738D01*
X32358608Y-84004567D01*
X32332720Y-83989171D01*
X32307945Y-83972565D01*
X32284322Y-83954764D01*
X32261887Y-83935784D01*
X32240680Y-83915640D01*
X32220737Y-83894348D01*
X32202097Y-83871923D01*
X32184796Y-83848380D01*
X32168873Y-83823736D01*
X32154365Y-83798006D01*
X32141311Y-83771205D01*
X32129748Y-83743349D01*
X32119713Y-83714453D01*
X32111244Y-83684533D01*
X32105048Y-83646367D01*
X32099249Y-83590342D01*
X32093980Y-83518441D01*
X32089371Y-83432650D01*
X32085557Y-83334953D01*
X32082669Y-83227333D01*
X32080839Y-83111777D01*
X32080199Y-82990267D01*
X32080199Y-82423000D01*
X31797977Y-82423000D01*
X31797977Y-82058934D01*
X31947555Y-82050467D01*
X32094310Y-82042000D01*
X32125355Y-81773889D01*
X32137834Y-81669555D01*
X32148991Y-81582683D01*
X32153660Y-81548607D01*
X32157502Y-81522270D01*
X32160352Y-81504797D01*
X32161353Y-81499735D01*
X32162044Y-81497311D01*
X32163020Y-81496783D01*
X32165881Y-81496258D01*
X32176861Y-81495239D01*
X32217078Y-81493431D01*
X32276344Y-81492152D01*
X32348311Y-81491667D01*
X32528933Y-81491667D01*
X32537399Y-81765422D01*
G37*
G36*
X30922599Y-78447939D02*
G01*
X30950395Y-78451258D01*
X30978000Y-78456235D01*
X31005362Y-78462816D01*
X31032426Y-78470947D01*
X31059141Y-78480574D01*
X31085454Y-78491645D01*
X31111313Y-78504104D01*
X31136664Y-78517899D01*
X31161454Y-78532976D01*
X31185632Y-78549280D01*
X31209144Y-78566758D01*
X31231938Y-78585357D01*
X31253961Y-78605022D01*
X31275161Y-78625701D01*
X31295483Y-78647338D01*
X31314877Y-78669880D01*
X31333289Y-78693275D01*
X31350666Y-78717467D01*
X31366956Y-78742403D01*
X31382106Y-78768030D01*
X31396063Y-78794293D01*
X31408775Y-78821139D01*
X31420189Y-78848515D01*
X31430252Y-78876366D01*
X31438911Y-78904638D01*
X31446114Y-78933279D01*
X31451809Y-78962233D01*
X31455941Y-78991448D01*
X31458459Y-79020870D01*
X31459310Y-79050445D01*
X31458737Y-79073787D01*
X31457037Y-79097219D01*
X31454241Y-79120697D01*
X31450381Y-79144179D01*
X31445487Y-79167622D01*
X31439591Y-79190982D01*
X31432723Y-79214217D01*
X31424915Y-79237285D01*
X31416197Y-79260141D01*
X31406600Y-79282744D01*
X31396157Y-79305050D01*
X31384896Y-79327017D01*
X31372851Y-79348601D01*
X31360050Y-79369760D01*
X31346527Y-79390451D01*
X31332310Y-79410631D01*
X31317433Y-79430257D01*
X31301925Y-79449286D01*
X31285817Y-79467675D01*
X31269141Y-79485381D01*
X31251928Y-79502362D01*
X31234208Y-79518575D01*
X31216013Y-79533976D01*
X31197373Y-79548523D01*
X31178320Y-79562173D01*
X31158884Y-79574883D01*
X31139098Y-79586610D01*
X31118990Y-79597311D01*
X31098594Y-79606944D01*
X31077939Y-79615465D01*
X31057056Y-79622831D01*
X31035977Y-79629001D01*
X30982535Y-79640993D01*
X30930237Y-79648010D01*
X30879203Y-79650270D01*
X30829553Y-79647990D01*
X30781405Y-79641388D01*
X30734879Y-79630681D01*
X30690095Y-79616087D01*
X30647172Y-79597824D01*
X30606229Y-79576108D01*
X30567386Y-79551159D01*
X30530761Y-79523192D01*
X30496475Y-79492426D01*
X30464647Y-79459078D01*
X30435396Y-79423366D01*
X30408841Y-79385508D01*
X30385102Y-79345720D01*
X30364299Y-79304221D01*
X30346550Y-79261228D01*
X30331975Y-79216958D01*
X30320693Y-79171630D01*
X30312824Y-79125460D01*
X30308487Y-79078666D01*
X30307801Y-79031467D01*
X30310887Y-78984078D01*
X30317862Y-78936719D01*
X30328847Y-78889606D01*
X30343961Y-78842957D01*
X30363324Y-78796990D01*
X30387054Y-78751922D01*
X30415271Y-78707971D01*
X30448094Y-78665354D01*
X30485644Y-78624288D01*
X30498657Y-78611633D01*
X30512229Y-78599109D01*
X30526255Y-78586784D01*
X30540633Y-78574724D01*
X30555259Y-78562994D01*
X30570029Y-78551661D01*
X30584841Y-78540791D01*
X30599591Y-78530451D01*
X30614176Y-78520705D01*
X30628491Y-78511621D01*
X30642435Y-78503265D01*
X30655903Y-78495702D01*
X30668793Y-78488999D01*
X30681000Y-78483222D01*
X30692422Y-78478437D01*
X30702955Y-78474711D01*
X30722953Y-78469447D01*
X30744406Y-78464348D01*
X30766653Y-78459580D01*
X30789033Y-78455308D01*
X30810883Y-78451698D01*
X30831543Y-78448914D01*
X30850350Y-78447123D01*
X30858852Y-78446651D01*
X30866644Y-78446489D01*
X30894664Y-78446331D01*
X30922599Y-78447939D01*
G37*
D11*
X26289000Y-78206600D02*
X44450000Y-78206600D01*
X44450000Y-78206600D02*
X44450000Y-92760800D01*
X44450000Y-92760800D02*
X26289000Y-92760800D01*
X26289000Y-92760800D02*
X26289000Y-78206600D01*
D10*
G36*
X27107317Y-78447861D02*
G01*
X27123010Y-78449063D01*
X27139299Y-78451150D01*
X27156480Y-78454118D01*
X27174852Y-78457962D01*
X27194713Y-78462678D01*
X27240089Y-78474711D01*
X27288064Y-78489641D01*
X27333514Y-78507900D01*
X27376359Y-78529374D01*
X27416522Y-78553954D01*
X27453922Y-78581526D01*
X27488483Y-78611980D01*
X27520125Y-78645204D01*
X27548769Y-78681086D01*
X27574338Y-78719515D01*
X27596752Y-78760379D01*
X27615934Y-78803566D01*
X27631804Y-78848965D01*
X27644284Y-78896464D01*
X27653296Y-78945951D01*
X27658761Y-78997315D01*
X27660600Y-79050445D01*
X27658357Y-79106923D01*
X27651783Y-79160958D01*
X27641112Y-79212488D01*
X27626579Y-79261450D01*
X27608415Y-79307783D01*
X27586855Y-79351425D01*
X27562133Y-79392313D01*
X27534482Y-79430386D01*
X27504135Y-79465582D01*
X27471326Y-79497839D01*
X27436289Y-79527094D01*
X27399257Y-79553285D01*
X27360465Y-79576352D01*
X27320144Y-79596230D01*
X27278530Y-79612860D01*
X27235855Y-79626178D01*
X27192354Y-79636123D01*
X27148259Y-79642632D01*
X27103804Y-79645643D01*
X27059224Y-79645096D01*
X27014751Y-79640926D01*
X26970619Y-79633074D01*
X26927061Y-79621475D01*
X26884312Y-79606070D01*
X26842605Y-79586794D01*
X26802173Y-79563587D01*
X26763250Y-79536387D01*
X26726069Y-79505131D01*
X26690865Y-79469757D01*
X26657870Y-79430204D01*
X26627319Y-79386409D01*
X26599444Y-79338311D01*
X26584308Y-79307063D01*
X26571158Y-79275283D01*
X26559962Y-79243054D01*
X26550689Y-79210457D01*
X26543308Y-79177572D01*
X26537786Y-79144481D01*
X26534093Y-79111265D01*
X26532196Y-79078005D01*
X26532065Y-79044783D01*
X26533667Y-79011678D01*
X26536972Y-78978774D01*
X26541947Y-78946149D01*
X26548561Y-78913887D01*
X26556784Y-78882067D01*
X26566582Y-78850771D01*
X26577925Y-78820081D01*
X26590781Y-78790077D01*
X26605118Y-78760840D01*
X26620906Y-78732451D01*
X26638112Y-78704993D01*
X26656705Y-78678545D01*
X26676654Y-78653189D01*
X26697926Y-78629006D01*
X26720491Y-78606077D01*
X26744317Y-78584484D01*
X26769372Y-78564307D01*
X26795625Y-78545628D01*
X26823045Y-78528527D01*
X26851599Y-78513086D01*
X26881256Y-78499386D01*
X26911986Y-78487509D01*
X26943755Y-78477534D01*
X26989131Y-78464564D01*
X27008992Y-78459458D01*
X27027364Y-78455265D01*
X27044545Y-78451982D01*
X27060833Y-78449604D01*
X27076526Y-78448127D01*
X27091922Y-78447548D01*
X27107317Y-78447861D01*
G37*
G36*
X38492079Y-86466915D02*
G01*
X38499304Y-86472161D01*
X38518608Y-86490214D01*
X38543527Y-86517188D01*
X38573030Y-86551691D01*
X38641673Y-86637708D01*
X38716302Y-86737119D01*
X38788682Y-86838780D01*
X38850578Y-86931544D01*
X38875021Y-86971107D01*
X38893755Y-87004266D01*
X38905750Y-87029628D01*
X38908899Y-87038950D01*
X38909977Y-87045800D01*
X38908773Y-87050737D01*
X38905242Y-87058042D01*
X38899503Y-87067572D01*
X38891677Y-87079181D01*
X38870240Y-87108060D01*
X38841891Y-87143519D01*
X38807589Y-87184403D01*
X38768292Y-87229553D01*
X38724961Y-87277812D01*
X38678555Y-87328022D01*
X38628394Y-87380922D01*
X38576249Y-87436898D01*
X38471827Y-87551330D01*
X38376930Y-87657825D01*
X38303198Y-87742889D01*
X38274999Y-87777163D01*
X38247989Y-87809652D01*
X38200188Y-87866361D01*
X38165087Y-87907195D01*
X38153952Y-87919840D01*
X38147976Y-87926333D01*
X38143148Y-87931674D01*
X38135277Y-87941017D01*
X38111993Y-87969725D01*
X38081301Y-88008486D01*
X38046376Y-88053333D01*
X37941281Y-88196097D01*
X37842068Y-88341371D01*
X37748999Y-88488488D01*
X37662334Y-88636784D01*
X37582332Y-88785592D01*
X37509256Y-88934247D01*
X37443364Y-89082084D01*
X37384918Y-89228436D01*
X37334178Y-89372639D01*
X37291405Y-89514026D01*
X37256858Y-89651933D01*
X37230798Y-89785692D01*
X37213487Y-89914640D01*
X37205183Y-90038110D01*
X37206149Y-90155437D01*
X37216643Y-90265955D01*
X37222679Y-90305793D01*
X37229079Y-90343622D01*
X37235743Y-90379151D01*
X37242573Y-90412093D01*
X37249468Y-90442158D01*
X37256331Y-90469056D01*
X37263061Y-90492498D01*
X37269560Y-90512194D01*
X37272692Y-90520548D01*
X37275728Y-90527856D01*
X37278657Y-90534083D01*
X37281466Y-90539193D01*
X37284143Y-90543149D01*
X37286675Y-90545916D01*
X37289050Y-90547458D01*
X37290175Y-90547757D01*
X37291256Y-90547737D01*
X37292291Y-90547392D01*
X37293279Y-90546718D01*
X37295109Y-90544365D01*
X37296731Y-90540641D01*
X37298135Y-90535511D01*
X37299307Y-90528938D01*
X37300235Y-90520886D01*
X37300907Y-90511318D01*
X37301310Y-90500200D01*
X37303622Y-90479072D01*
X37310284Y-90449179D01*
X37335000Y-90367203D01*
X37372152Y-90262472D01*
X37418432Y-90143189D01*
X37470533Y-90017556D01*
X37525148Y-89893775D01*
X37578968Y-89780048D01*
X37628688Y-89684577D01*
X37686979Y-89584179D01*
X37753174Y-89476703D01*
X37826183Y-89363803D01*
X37904913Y-89247133D01*
X37988273Y-89128346D01*
X38075172Y-89009096D01*
X38164519Y-88891036D01*
X38255221Y-88775821D01*
X38366671Y-88638613D01*
X38508119Y-88469787D01*
X38666433Y-88284292D01*
X38828485Y-88097077D01*
X38981144Y-87923092D01*
X39111280Y-87777285D01*
X39205764Y-87674604D01*
X39235533Y-87644108D01*
X39251465Y-87630000D01*
X39253495Y-87629426D01*
X39256396Y-87629808D01*
X39264722Y-87633357D01*
X39276264Y-87640486D01*
X39290844Y-87651034D01*
X39328409Y-87681742D01*
X39375996Y-87724191D01*
X39432181Y-87777091D01*
X39495544Y-87839152D01*
X39564661Y-87909085D01*
X39638110Y-87985599D01*
X39782595Y-88135365D01*
X39924037Y-88279904D01*
X40062568Y-88419285D01*
X40198321Y-88553572D01*
X40331429Y-88682832D01*
X40462022Y-88807131D01*
X40590235Y-88926535D01*
X40716199Y-89041110D01*
X40888316Y-89189933D01*
X41091422Y-89356450D01*
X41316026Y-89533484D01*
X41552635Y-89713858D01*
X41791757Y-89890396D01*
X42023902Y-90055920D01*
X42239576Y-90203254D01*
X42429287Y-90325222D01*
X42450174Y-90338503D01*
X42470436Y-90351834D01*
X42489978Y-90365132D01*
X42508707Y-90378315D01*
X42526525Y-90391299D01*
X42543340Y-90404002D01*
X42559054Y-90416341D01*
X42573574Y-90428233D01*
X42586804Y-90439597D01*
X42598648Y-90450348D01*
X42609013Y-90460405D01*
X42617803Y-90469685D01*
X42624923Y-90478104D01*
X42627826Y-90481966D01*
X42630277Y-90485582D01*
X42632262Y-90488941D01*
X42633771Y-90492034D01*
X42634790Y-90494849D01*
X42635309Y-90497377D01*
X42633203Y-90504577D01*
X42627028Y-90515452D01*
X42603328Y-90547384D01*
X42565918Y-90591486D01*
X42516511Y-90646073D01*
X42388553Y-90779952D01*
X42233143Y-90935527D01*
X42063976Y-91099304D01*
X41894742Y-91257790D01*
X41739134Y-91397490D01*
X41610844Y-91504910D01*
X41534165Y-91564346D01*
X41455671Y-91622942D01*
X41294446Y-91736906D01*
X41129583Y-91845379D01*
X40963496Y-91946941D01*
X40798600Y-92040168D01*
X40717353Y-92083212D01*
X40637309Y-92123639D01*
X40558770Y-92161271D01*
X40482037Y-92195931D01*
X40407413Y-92227440D01*
X40335199Y-92255622D01*
X40288621Y-92271789D01*
X40230865Y-92290238D01*
X40091077Y-92331469D01*
X39934356Y-92374287D01*
X39779221Y-92413667D01*
X39688466Y-92434072D01*
X39597293Y-92451899D01*
X39505880Y-92467145D01*
X39414405Y-92479812D01*
X39323046Y-92489899D01*
X39231980Y-92497407D01*
X39141386Y-92502335D01*
X39051441Y-92504683D01*
X38962322Y-92504451D01*
X38874208Y-92501640D01*
X38787277Y-92496249D01*
X38701706Y-92488279D01*
X38617672Y-92477729D01*
X38535355Y-92464599D01*
X38454930Y-92448889D01*
X38376577Y-92430600D01*
X38124291Y-92367194D01*
X38018924Y-92341718D01*
X37925683Y-92320224D01*
X37843273Y-92302583D01*
X37770400Y-92288667D01*
X37705771Y-92278348D01*
X37648091Y-92271497D01*
X37621453Y-92269332D01*
X37596066Y-92267986D01*
X37571771Y-92267444D01*
X37548404Y-92267688D01*
X37525803Y-92268703D01*
X37503808Y-92270474D01*
X37482257Y-92272983D01*
X37460986Y-92276215D01*
X37418644Y-92284785D01*
X37375488Y-92296054D01*
X37330223Y-92309894D01*
X37281555Y-92326178D01*
X37252671Y-92335776D01*
X37224739Y-92344458D01*
X37197739Y-92352217D01*
X37171648Y-92359047D01*
X37146444Y-92364940D01*
X37122104Y-92369890D01*
X37098607Y-92373890D01*
X37075930Y-92376934D01*
X37054050Y-92379014D01*
X37032947Y-92380124D01*
X37012596Y-92380258D01*
X36992977Y-92379408D01*
X36974067Y-92377569D01*
X36955844Y-92374732D01*
X36938285Y-92370892D01*
X36921369Y-92366041D01*
X36905072Y-92360174D01*
X36889374Y-92353283D01*
X36874251Y-92345361D01*
X36859682Y-92336402D01*
X36845644Y-92326400D01*
X36832115Y-92315347D01*
X36819073Y-92303236D01*
X36806495Y-92290062D01*
X36794360Y-92275816D01*
X36782644Y-92260494D01*
X36771327Y-92244087D01*
X36760386Y-92226589D01*
X36749797Y-92207994D01*
X36739541Y-92188294D01*
X36729593Y-92167483D01*
X36719932Y-92145555D01*
X36711673Y-92124277D01*
X36704922Y-92103657D01*
X36699735Y-92083425D01*
X36696164Y-92063313D01*
X36694263Y-92043053D01*
X36694086Y-92022375D01*
X36695686Y-92001010D01*
X36699118Y-91978691D01*
X36704436Y-91955148D01*
X36711692Y-91930113D01*
X36720941Y-91903316D01*
X36732236Y-91874489D01*
X36745631Y-91843364D01*
X36761180Y-91809672D01*
X36778937Y-91773143D01*
X36798955Y-91733510D01*
X36816813Y-91696368D01*
X36832282Y-91660871D01*
X36845353Y-91626615D01*
X36856017Y-91593193D01*
X36864268Y-91560202D01*
X36870095Y-91527235D01*
X36873492Y-91493888D01*
X36874450Y-91459755D01*
X36872960Y-91424432D01*
X36869015Y-91387513D01*
X36862605Y-91348593D01*
X36853724Y-91307267D01*
X36842361Y-91263130D01*
X36828511Y-91215776D01*
X36812163Y-91164801D01*
X36793309Y-91109799D01*
X36736612Y-90938278D01*
X36688976Y-90775322D01*
X36668412Y-90696178D01*
X36649939Y-90618121D01*
X36633500Y-90540800D01*
X36619038Y-90463864D01*
X36606493Y-90386960D01*
X36595809Y-90309739D01*
X36586928Y-90231847D01*
X36579791Y-90152934D01*
X36574341Y-90072649D01*
X36570519Y-89990640D01*
X36567532Y-89820045D01*
X36568367Y-89729321D01*
X36570905Y-89641148D01*
X36575197Y-89555298D01*
X36581290Y-89471544D01*
X36589236Y-89389659D01*
X36599083Y-89309415D01*
X36610882Y-89230585D01*
X36624682Y-89152941D01*
X36640532Y-89076257D01*
X36658482Y-89000304D01*
X36678582Y-88924856D01*
X36700882Y-88849685D01*
X36725430Y-88774563D01*
X36752277Y-88699264D01*
X36781472Y-88623559D01*
X36813065Y-88547222D01*
X36860785Y-88437783D01*
X36909071Y-88333301D01*
X36958489Y-88232978D01*
X37009607Y-88136015D01*
X37062990Y-88041616D01*
X37119205Y-87948983D01*
X37178818Y-87857316D01*
X37242396Y-87765819D01*
X37310505Y-87673694D01*
X37383711Y-87580142D01*
X37462581Y-87484367D01*
X37547681Y-87385569D01*
X37639578Y-87282952D01*
X37738837Y-87175716D01*
X37961710Y-86944201D01*
X38060317Y-86845681D01*
X38153665Y-86754538D01*
X38239671Y-86672588D01*
X38316252Y-86601652D01*
X38381323Y-86543549D01*
X38408891Y-86519878D01*
X38432801Y-86500097D01*
X38452791Y-86484433D01*
X38468602Y-86473115D01*
X38479973Y-86466369D01*
X38483912Y-86464782D01*
X38486643Y-86464423D01*
X38492079Y-86466915D01*
G37*
G36*
X39869533Y-81401356D02*
G01*
X40016288Y-81449334D01*
X40043456Y-81458695D01*
X40071839Y-81469723D01*
X40101132Y-81482231D01*
X40131029Y-81496033D01*
X40161223Y-81510942D01*
X40191409Y-81526774D01*
X40221280Y-81543342D01*
X40250532Y-81560459D01*
X40278858Y-81577940D01*
X40305951Y-81595599D01*
X40331507Y-81613249D01*
X40355219Y-81630705D01*
X40376781Y-81647781D01*
X40395888Y-81664291D01*
X40412233Y-81680048D01*
X40425510Y-81694866D01*
X40429736Y-81700305D01*
X40432858Y-81706095D01*
X40433991Y-81709149D01*
X40434830Y-81712323D01*
X40435371Y-81715628D01*
X40435608Y-81719076D01*
X40435535Y-81722677D01*
X40435146Y-81726441D01*
X40433398Y-81734505D01*
X40430318Y-81743354D01*
X40425862Y-81753075D01*
X40419984Y-81763756D01*
X40412639Y-81775482D01*
X40403780Y-81788341D01*
X40393363Y-81802420D01*
X40381342Y-81817805D01*
X40367671Y-81834584D01*
X40352305Y-81852842D01*
X40335199Y-81872667D01*
X40213843Y-82013778D01*
X40146110Y-81954511D01*
X40121125Y-81932179D01*
X40095856Y-81911720D01*
X40070214Y-81893089D01*
X40044113Y-81876239D01*
X40017467Y-81861125D01*
X39990188Y-81847702D01*
X39962190Y-81835925D01*
X39933385Y-81825748D01*
X39903688Y-81817124D01*
X39873011Y-81810010D01*
X39841267Y-81804360D01*
X39808369Y-81800127D01*
X39774232Y-81797267D01*
X39738767Y-81795734D01*
X39701889Y-81795482D01*
X39663510Y-81796467D01*
X39651799Y-81797709D01*
X39639971Y-81799827D01*
X39628059Y-81802783D01*
X39616094Y-81806543D01*
X39604109Y-81811072D01*
X39592134Y-81816336D01*
X39580204Y-81822297D01*
X39568348Y-81828923D01*
X39544992Y-81844023D01*
X39522322Y-81861356D01*
X39500594Y-81880640D01*
X39480066Y-81901595D01*
X39460992Y-81923938D01*
X39443630Y-81947390D01*
X39428236Y-81971668D01*
X39415067Y-81996492D01*
X39409396Y-82009021D01*
X39404377Y-82021580D01*
X39400043Y-82034136D01*
X39396424Y-82046652D01*
X39393555Y-82059094D01*
X39391465Y-82071427D01*
X39390188Y-82083614D01*
X39389755Y-82095622D01*
X39391263Y-82123885D01*
X39395868Y-82151593D01*
X39403689Y-82178854D01*
X39414846Y-82205777D01*
X39429459Y-82232468D01*
X39447649Y-82259036D01*
X39469534Y-82285586D01*
X39495235Y-82312228D01*
X39524872Y-82339068D01*
X39558564Y-82366214D01*
X39596432Y-82393773D01*
X39638595Y-82421853D01*
X39685173Y-82450562D01*
X39736287Y-82480006D01*
X39792056Y-82510294D01*
X39852599Y-82541533D01*
X39913767Y-82574161D01*
X39972318Y-82607425D01*
X40028148Y-82641236D01*
X40081155Y-82675501D01*
X40131235Y-82710129D01*
X40178285Y-82745031D01*
X40222201Y-82780115D01*
X40262880Y-82815289D01*
X40300218Y-82850463D01*
X40334113Y-82885547D01*
X40364461Y-82920449D01*
X40391158Y-82955077D01*
X40414102Y-82989342D01*
X40424134Y-83006310D01*
X40433188Y-83023153D01*
X40441253Y-83039859D01*
X40448314Y-83056417D01*
X40454360Y-83072816D01*
X40459376Y-83089045D01*
X40466321Y-83116978D01*
X40472335Y-83146614D01*
X40477415Y-83177672D01*
X40481557Y-83209871D01*
X40484756Y-83242930D01*
X40487008Y-83276568D01*
X40488310Y-83310503D01*
X40488656Y-83344456D01*
X40488044Y-83378143D01*
X40486468Y-83411285D01*
X40483925Y-83443600D01*
X40480410Y-83474807D01*
X40475920Y-83504625D01*
X40470450Y-83532773D01*
X40463996Y-83558969D01*
X40456554Y-83582933D01*
X40440652Y-83624502D01*
X40421673Y-83665450D01*
X40399851Y-83705555D01*
X40375415Y-83744594D01*
X40348599Y-83782342D01*
X40319632Y-83818578D01*
X40288748Y-83853077D01*
X40256177Y-83885617D01*
X40222150Y-83915974D01*
X40186900Y-83943924D01*
X40150658Y-83969246D01*
X40113655Y-83991715D01*
X40076122Y-84011108D01*
X40038293Y-84027202D01*
X40019339Y-84033942D01*
X40000397Y-84039774D01*
X39981496Y-84044670D01*
X39962666Y-84048601D01*
X39869533Y-84065533D01*
X39869533Y-84483222D01*
X39530866Y-84483222D01*
X39530866Y-84285667D01*
X39530816Y-84251818D01*
X39530601Y-84222045D01*
X39530121Y-84196060D01*
X39529278Y-84173571D01*
X39528689Y-84163548D01*
X39527972Y-84154291D01*
X39527114Y-84145764D01*
X39526103Y-84137930D01*
X39524927Y-84130753D01*
X39523573Y-84124198D01*
X39522029Y-84118227D01*
X39520282Y-84112805D01*
X39518321Y-84107896D01*
X39516132Y-84103464D01*
X39513703Y-84099471D01*
X39511022Y-84095883D01*
X39508076Y-84092663D01*
X39504854Y-84089774D01*
X39501342Y-84087181D01*
X39497528Y-84084848D01*
X39493400Y-84082737D01*
X39488946Y-84080814D01*
X39484152Y-84079042D01*
X39479007Y-84077384D01*
X39467614Y-84074268D01*
X39454666Y-84071178D01*
X39410708Y-84060656D01*
X39364013Y-84047332D01*
X39315350Y-84031577D01*
X39265489Y-84013763D01*
X39215197Y-83994262D01*
X39165244Y-83973447D01*
X39116400Y-83951689D01*
X39069432Y-83929361D01*
X39025110Y-83906834D01*
X38984203Y-83884481D01*
X38947480Y-83862674D01*
X38915709Y-83841784D01*
X38889660Y-83822184D01*
X38879021Y-83812984D01*
X38870101Y-83804246D01*
X38862996Y-83796017D01*
X38857802Y-83788342D01*
X38854615Y-83781269D01*
X38853532Y-83774844D01*
X38854018Y-83770734D01*
X38855440Y-83765344D01*
X38860857Y-83751093D01*
X38869326Y-83732832D01*
X38880387Y-83711300D01*
X38893581Y-83687239D01*
X38908449Y-83661388D01*
X38941373Y-83607275D01*
X38975488Y-83554882D01*
X38991845Y-83531181D01*
X39007123Y-83510129D01*
X39020862Y-83492467D01*
X39032605Y-83478936D01*
X39041893Y-83470274D01*
X39045472Y-83468001D01*
X39048266Y-83467222D01*
X39050372Y-83467580D01*
X39053475Y-83468628D01*
X39062421Y-83472646D01*
X39074608Y-83478980D01*
X39089541Y-83487331D01*
X39106722Y-83497402D01*
X39125656Y-83508894D01*
X39145847Y-83521512D01*
X39166799Y-83534956D01*
X39197709Y-83555334D01*
X39228072Y-83574158D01*
X39258006Y-83591461D01*
X39287625Y-83607275D01*
X39317046Y-83621634D01*
X39346384Y-83634571D01*
X39375756Y-83646119D01*
X39405276Y-83656311D01*
X39435061Y-83665180D01*
X39465226Y-83672759D01*
X39495888Y-83679082D01*
X39527161Y-83684181D01*
X39559162Y-83688089D01*
X39592006Y-83690839D01*
X39625809Y-83692465D01*
X39660687Y-83693000D01*
X39688907Y-83692887D01*
X39714464Y-83692493D01*
X39737607Y-83691735D01*
X39758583Y-83690531D01*
X39777642Y-83688797D01*
X39795030Y-83686452D01*
X39803175Y-83685024D01*
X39810996Y-83683412D01*
X39818523Y-83681605D01*
X39825788Y-83679594D01*
X39832821Y-83677369D01*
X39839653Y-83674917D01*
X39846317Y-83672231D01*
X39852841Y-83669298D01*
X39859259Y-83666109D01*
X39865599Y-83662653D01*
X39871895Y-83658920D01*
X39878175Y-83654900D01*
X39890817Y-83645957D01*
X39903774Y-83635740D01*
X39917292Y-83624167D01*
X39931621Y-83611156D01*
X39946620Y-83597920D01*
X39959932Y-83585569D01*
X39971656Y-83573862D01*
X39981892Y-83562561D01*
X39990739Y-83551425D01*
X39998296Y-83540214D01*
X40004663Y-83528690D01*
X40009938Y-83516611D01*
X40014221Y-83503739D01*
X40017611Y-83489833D01*
X40020207Y-83474654D01*
X40022109Y-83457962D01*
X40023415Y-83439517D01*
X40024226Y-83419080D01*
X40024755Y-83371267D01*
X40024607Y-83346586D01*
X40024099Y-83324232D01*
X40023136Y-83303953D01*
X40021624Y-83285498D01*
X40019467Y-83268613D01*
X40018116Y-83260681D01*
X40016569Y-83253047D01*
X40014813Y-83245680D01*
X40012837Y-83238548D01*
X40010628Y-83231620D01*
X40008174Y-83224864D01*
X40005464Y-83218248D01*
X40002486Y-83211741D01*
X39999228Y-83205312D01*
X39995678Y-83198929D01*
X39991824Y-83192560D01*
X39987654Y-83186175D01*
X39978320Y-83173226D01*
X39967580Y-83159831D01*
X39955340Y-83145737D01*
X39941504Y-83130692D01*
X39925977Y-83114445D01*
X39914567Y-83103222D01*
X39900582Y-83090809D01*
X39865696Y-83062939D01*
X39822938Y-83031895D01*
X39773930Y-82998734D01*
X39720291Y-82964514D01*
X39663643Y-82930295D01*
X39605605Y-82897133D01*
X39547799Y-82866089D01*
X39484654Y-82832347D01*
X39425358Y-82798829D01*
X39369856Y-82765493D01*
X39318096Y-82732298D01*
X39270024Y-82699202D01*
X39225586Y-82666163D01*
X39184728Y-82633141D01*
X39147396Y-82600094D01*
X39113537Y-82566982D01*
X39083097Y-82533761D01*
X39056022Y-82500392D01*
X39032258Y-82466833D01*
X39021601Y-82449969D01*
X39011752Y-82433042D01*
X39002704Y-82416046D01*
X38994450Y-82398978D01*
X38986984Y-82381831D01*
X38980299Y-82364600D01*
X38974387Y-82347280D01*
X38969243Y-82329866D01*
X38960102Y-82294596D01*
X38952763Y-82259208D01*
X38947197Y-82223763D01*
X38943369Y-82188326D01*
X38941250Y-82152958D01*
X38940805Y-82117725D01*
X38942004Y-82082687D01*
X38944814Y-82047909D01*
X38949203Y-82013453D01*
X38955139Y-81979383D01*
X38962591Y-81945762D01*
X38971526Y-81912652D01*
X38981912Y-81880117D01*
X38993716Y-81848219D01*
X39006908Y-81817022D01*
X39021455Y-81786589D01*
X39037325Y-81756983D01*
X39054485Y-81728266D01*
X39072904Y-81700503D01*
X39092551Y-81673755D01*
X39113392Y-81648087D01*
X39135395Y-81623560D01*
X39158530Y-81600239D01*
X39182763Y-81578185D01*
X39208062Y-81557463D01*
X39234396Y-81538135D01*
X39261733Y-81520265D01*
X39290040Y-81503915D01*
X39319286Y-81489148D01*
X39349438Y-81476027D01*
X39380464Y-81464616D01*
X39412333Y-81454978D01*
X39530866Y-81423934D01*
X39530866Y-81011889D01*
X39869533Y-81011889D01*
X39869533Y-81401356D01*
G37*
G36*
X37295667Y-82375022D02*
G01*
X37317732Y-82376824D01*
X37338579Y-82379118D01*
X37358441Y-82381999D01*
X37377555Y-82385562D01*
X37396156Y-82389902D01*
X37414481Y-82395114D01*
X37432764Y-82401294D01*
X37451241Y-82408536D01*
X37470148Y-82416936D01*
X37489721Y-82426589D01*
X37510195Y-82437589D01*
X37531806Y-82450032D01*
X37554790Y-82464013D01*
X37579382Y-82479626D01*
X37634332Y-82516133D01*
X37690959Y-82553941D01*
X37742597Y-82586953D01*
X37789678Y-82615203D01*
X37811646Y-82627553D01*
X37832638Y-82638724D01*
X37852707Y-82648721D01*
X37871910Y-82657548D01*
X37890298Y-82665209D01*
X37907928Y-82671708D01*
X37924853Y-82677050D01*
X37941127Y-82681239D01*
X37956805Y-82684278D01*
X37971941Y-82686172D01*
X37986589Y-82686925D01*
X38000803Y-82686542D01*
X38014638Y-82685025D01*
X38028148Y-82682380D01*
X38041387Y-82678610D01*
X38054410Y-82673720D01*
X38067271Y-82667714D01*
X38080023Y-82660596D01*
X38092722Y-82652370D01*
X38105421Y-82643040D01*
X38118175Y-82632610D01*
X38131038Y-82621085D01*
X38144064Y-82608468D01*
X38157308Y-82594764D01*
X38170824Y-82579977D01*
X38184666Y-82564111D01*
X38272155Y-82456867D01*
X38393510Y-82544356D01*
X38406035Y-82553311D01*
X38418171Y-82562154D01*
X38429861Y-82570841D01*
X38441046Y-82579325D01*
X38451670Y-82587561D01*
X38461673Y-82595503D01*
X38470998Y-82603106D01*
X38479588Y-82610325D01*
X38487383Y-82617114D01*
X38494327Y-82623428D01*
X38500362Y-82629220D01*
X38505429Y-82634447D01*
X38509471Y-82639061D01*
X38511089Y-82641125D01*
X38512429Y-82643018D01*
X38513485Y-82644736D01*
X38514247Y-82646272D01*
X38514710Y-82647622D01*
X38514866Y-82648778D01*
X38514280Y-82652977D01*
X38512562Y-82658124D01*
X38505964Y-82671025D01*
X38495537Y-82687002D01*
X38481749Y-82705575D01*
X38465067Y-82726265D01*
X38445959Y-82748592D01*
X38424891Y-82772077D01*
X38402330Y-82796239D01*
X38378744Y-82820600D01*
X38354600Y-82844680D01*
X38330366Y-82867999D01*
X38306507Y-82890078D01*
X38283492Y-82910437D01*
X38261787Y-82928597D01*
X38241860Y-82944078D01*
X38224177Y-82956400D01*
X38207377Y-82966090D01*
X38189787Y-82975048D01*
X38171411Y-82983270D01*
X38152255Y-82990752D01*
X38132321Y-82997490D01*
X38111613Y-83003479D01*
X38090137Y-83008717D01*
X38067896Y-83013197D01*
X38044895Y-83016917D01*
X38021137Y-83019873D01*
X37996626Y-83022059D01*
X37971367Y-83023472D01*
X37945364Y-83024108D01*
X37918622Y-83023962D01*
X37891143Y-83023031D01*
X37862932Y-83021311D01*
X37853896Y-83019969D01*
X37842769Y-83017061D01*
X37829706Y-83012673D01*
X37814866Y-83006891D01*
X37780481Y-82991496D01*
X37740871Y-82971570D01*
X37697292Y-82947807D01*
X37651001Y-82920902D01*
X37603255Y-82891550D01*
X37555310Y-82860445D01*
X37507751Y-82829466D01*
X37461118Y-82800473D01*
X37416602Y-82774124D01*
X37375393Y-82751084D01*
X37356401Y-82741010D01*
X37338682Y-82732012D01*
X37322386Y-82724171D01*
X37307660Y-82717570D01*
X37294654Y-82712292D01*
X37283517Y-82708420D01*
X37274397Y-82706036D01*
X37270641Y-82705428D01*
X37267444Y-82705223D01*
X37252035Y-82705817D01*
X37236509Y-82707598D01*
X37220885Y-82710562D01*
X37205178Y-82714703D01*
X37189405Y-82720019D01*
X37173582Y-82726505D01*
X37157727Y-82734156D01*
X37141855Y-82742970D01*
X37125982Y-82752940D01*
X37110127Y-82764065D01*
X37094304Y-82776338D01*
X37078531Y-82789757D01*
X37062824Y-82804316D01*
X37047200Y-82820013D01*
X37031675Y-82836842D01*
X37016266Y-82854800D01*
X36940066Y-82942289D01*
X36832821Y-82860445D01*
X36810012Y-82844647D01*
X36788460Y-82829312D01*
X36768627Y-82814903D01*
X36750977Y-82801884D01*
X36724078Y-82781863D01*
X36715755Y-82775789D01*
X36713077Y-82773938D01*
X36711466Y-82772956D01*
X36711019Y-82772312D01*
X36710734Y-82771442D01*
X36710639Y-82769048D01*
X36711156Y-82765818D01*
X36712259Y-82761799D01*
X36713925Y-82757036D01*
X36716129Y-82751574D01*
X36722049Y-82738736D01*
X36729821Y-82723649D01*
X36739247Y-82706677D01*
X36750128Y-82688184D01*
X36762266Y-82668533D01*
X36774870Y-82649243D01*
X36789281Y-82629568D01*
X36805320Y-82609653D01*
X36822811Y-82589643D01*
X36841575Y-82569683D01*
X36861435Y-82549917D01*
X36882212Y-82530490D01*
X36903730Y-82511547D01*
X36925809Y-82493232D01*
X36948274Y-82475691D01*
X36970944Y-82459067D01*
X36993644Y-82443505D01*
X37016195Y-82429151D01*
X37038419Y-82416148D01*
X37060139Y-82404643D01*
X37081177Y-82394778D01*
X37088733Y-82392200D01*
X37097570Y-82389762D01*
X37107581Y-82387473D01*
X37118659Y-82385341D01*
X37143585Y-82381582D01*
X37171488Y-82378550D01*
X37201507Y-82376312D01*
X37232783Y-82374934D01*
X37264456Y-82374482D01*
X37295667Y-82375022D01*
G37*
G36*
X35305999Y-82682644D02*
G01*
X35392430Y-82936821D01*
X35468277Y-83162422D01*
X35525074Y-83335107D01*
X35543683Y-83393999D01*
X35554355Y-83430533D01*
X35558121Y-83443058D01*
X35561989Y-83455195D01*
X35565933Y-83466885D01*
X35569921Y-83478070D01*
X35573927Y-83488694D01*
X35577920Y-83498697D01*
X35581871Y-83508022D01*
X35585752Y-83516611D01*
X35589534Y-83524407D01*
X35593188Y-83531351D01*
X35596685Y-83537385D01*
X35599996Y-83542452D01*
X35601572Y-83544605D01*
X35603091Y-83546494D01*
X35604549Y-83548113D01*
X35605943Y-83549453D01*
X35607268Y-83550508D01*
X35608522Y-83551270D01*
X35609700Y-83551733D01*
X35610799Y-83551889D01*
X35611898Y-83551692D01*
X35613076Y-83551109D01*
X35615650Y-83548819D01*
X35618489Y-83545099D01*
X35621559Y-83540027D01*
X35624828Y-83533682D01*
X35628262Y-83526142D01*
X35635494Y-83507792D01*
X35642990Y-83485606D01*
X35650487Y-83460211D01*
X35657719Y-83432237D01*
X35664422Y-83402311D01*
X35722189Y-83195760D01*
X35825994Y-82839983D01*
X36034132Y-82146422D01*
X36065177Y-82056112D01*
X36288132Y-82056112D01*
X36332555Y-82056360D01*
X36374166Y-82057038D01*
X36412007Y-82058046D01*
X36445118Y-82059286D01*
X36472541Y-82060659D01*
X36493317Y-82062064D01*
X36506485Y-82063404D01*
X36509917Y-82064018D01*
X36510793Y-82064305D01*
X36511088Y-82064578D01*
X36478081Y-82178079D01*
X36390438Y-82438125D01*
X36119504Y-83207225D01*
X35834813Y-83990612D01*
X35729972Y-84268518D01*
X35672888Y-84407022D01*
X35651141Y-84446563D01*
X35628295Y-84484694D01*
X35604440Y-84521329D01*
X35579667Y-84556380D01*
X35554067Y-84589761D01*
X35527731Y-84621385D01*
X35500750Y-84651165D01*
X35473216Y-84679014D01*
X35445218Y-84704846D01*
X35416848Y-84728574D01*
X35388198Y-84750111D01*
X35359357Y-84769369D01*
X35330416Y-84786263D01*
X35301468Y-84800706D01*
X35272602Y-84812610D01*
X35243910Y-84821889D01*
X35219113Y-84827875D01*
X35190657Y-84833128D01*
X35159184Y-84837646D01*
X35125333Y-84841424D01*
X35089746Y-84844458D01*
X35053063Y-84846743D01*
X35015926Y-84848276D01*
X34978974Y-84849052D01*
X34942850Y-84849068D01*
X34908193Y-84848319D01*
X34875644Y-84846801D01*
X34845845Y-84844510D01*
X34819435Y-84841442D01*
X34797057Y-84837593D01*
X34779350Y-84832958D01*
X34772448Y-84830344D01*
X34766955Y-84827533D01*
X34761994Y-84823611D01*
X34757695Y-84819171D01*
X34754057Y-84814095D01*
X34751080Y-84808263D01*
X34748765Y-84801554D01*
X34747111Y-84793848D01*
X34746119Y-84785027D01*
X34745789Y-84774969D01*
X34746119Y-84763556D01*
X34747111Y-84750666D01*
X34748765Y-84736181D01*
X34751080Y-84719980D01*
X34757695Y-84681952D01*
X34766955Y-84635622D01*
X34806466Y-84469111D01*
X34930643Y-84477578D01*
X34963293Y-84478631D01*
X34979108Y-84478355D01*
X34994590Y-84477539D01*
X35009743Y-84476179D01*
X35024573Y-84474272D01*
X35039083Y-84471814D01*
X35053278Y-84468802D01*
X35067163Y-84465232D01*
X35080743Y-84461100D01*
X35094022Y-84456402D01*
X35107005Y-84451136D01*
X35119696Y-84445297D01*
X35132101Y-84438882D01*
X35144224Y-84431886D01*
X35156069Y-84424308D01*
X35167641Y-84416143D01*
X35178945Y-84407386D01*
X35189985Y-84398036D01*
X35200767Y-84388088D01*
X35211294Y-84377538D01*
X35221572Y-84366383D01*
X35231604Y-84354619D01*
X35241397Y-84342243D01*
X35250953Y-84329251D01*
X35260279Y-84315639D01*
X35278256Y-84286543D01*
X35295365Y-84254924D01*
X35311643Y-84220755D01*
X35318947Y-84205890D01*
X35326019Y-84191001D01*
X35339336Y-84161577D01*
X35351331Y-84133344D01*
X35361738Y-84107161D01*
X35370293Y-84083889D01*
X35373793Y-84073613D01*
X35376731Y-84064387D01*
X35379074Y-84056318D01*
X35380788Y-84049515D01*
X35381841Y-84044084D01*
X35382199Y-84040133D01*
X35374394Y-84013295D01*
X35352037Y-83950307D01*
X35270016Y-83732158D01*
X35001199Y-83041067D01*
X34732382Y-82358442D01*
X34650362Y-82147701D01*
X34620199Y-82067400D01*
X34621404Y-82066343D01*
X34624940Y-82065294D01*
X34638544Y-82063255D01*
X34660085Y-82061348D01*
X34688638Y-82059639D01*
X34723277Y-82058195D01*
X34763074Y-82057082D01*
X34807106Y-82056365D01*
X34854444Y-82056112D01*
X35091511Y-82056112D01*
X35305999Y-82682644D01*
G37*
G36*
X33920288Y-81765422D02*
G01*
X33928754Y-82042000D01*
X34177111Y-82050467D01*
X34422644Y-82058934D01*
X34422644Y-82423000D01*
X33909000Y-82423000D01*
X33920288Y-82967689D01*
X33923529Y-83125402D01*
X33925274Y-83192345D01*
X33927167Y-83252028D01*
X33929259Y-83304964D01*
X33931599Y-83351665D01*
X33934237Y-83392646D01*
X33937222Y-83428417D01*
X33940603Y-83459491D01*
X33944432Y-83486382D01*
X33948756Y-83509602D01*
X33953626Y-83529664D01*
X33956281Y-83538670D01*
X33959091Y-83547079D01*
X33962063Y-83554955D01*
X33965201Y-83562362D01*
X33968514Y-83569363D01*
X33972006Y-83576024D01*
X33979555Y-83588577D01*
X33993183Y-83607859D01*
X34007617Y-83625487D01*
X34022870Y-83641461D01*
X34038954Y-83655782D01*
X34055881Y-83668449D01*
X34073664Y-83679462D01*
X34092315Y-83688822D01*
X34111847Y-83696528D01*
X34132271Y-83702580D01*
X34153601Y-83706979D01*
X34175849Y-83709724D01*
X34199027Y-83710815D01*
X34223147Y-83710253D01*
X34248223Y-83708037D01*
X34274266Y-83704167D01*
X34301289Y-83698644D01*
X34417000Y-83673244D01*
X34448043Y-83794600D01*
X34457380Y-83832058D01*
X34465186Y-83865266D01*
X34471323Y-83894538D01*
X34475649Y-83920189D01*
X34477088Y-83931755D01*
X34478023Y-83942533D01*
X34478434Y-83952562D01*
X34478305Y-83961883D01*
X34477618Y-83970534D01*
X34476356Y-83978555D01*
X34474499Y-83985984D01*
X34472033Y-83992861D01*
X34468937Y-83999226D01*
X34465196Y-84005117D01*
X34460791Y-84010575D01*
X34455706Y-84015637D01*
X34449921Y-84020344D01*
X34443420Y-84024735D01*
X34436186Y-84028849D01*
X34428200Y-84032725D01*
X34419445Y-84036403D01*
X34409904Y-84039921D01*
X34388391Y-84046638D01*
X34363521Y-84053189D01*
X34335155Y-84059889D01*
X34302698Y-84067274D01*
X34270438Y-84073561D01*
X34238402Y-84078758D01*
X34206622Y-84082875D01*
X34175127Y-84085921D01*
X34143948Y-84087906D01*
X34113113Y-84088839D01*
X34082654Y-84088729D01*
X34052600Y-84087585D01*
X34022981Y-84085417D01*
X33993827Y-84082234D01*
X33965168Y-84078046D01*
X33937034Y-84072861D01*
X33909455Y-84066690D01*
X33882462Y-84059540D01*
X33856083Y-84051422D01*
X33830349Y-84042345D01*
X33805290Y-84032318D01*
X33780935Y-84021351D01*
X33757316Y-84009453D01*
X33734462Y-83996632D01*
X33712402Y-83982899D01*
X33691167Y-83968263D01*
X33670786Y-83952733D01*
X33651291Y-83936317D01*
X33632710Y-83919027D01*
X33615074Y-83900871D01*
X33598412Y-83881857D01*
X33582755Y-83861996D01*
X33568132Y-83841297D01*
X33554574Y-83819769D01*
X33542111Y-83797422D01*
X33521479Y-83757878D01*
X33513008Y-83738077D01*
X33505642Y-83717077D01*
X33499285Y-83693994D01*
X33493841Y-83667942D01*
X33489215Y-83638037D01*
X33485313Y-83603395D01*
X33479299Y-83516358D01*
X33475039Y-83399754D01*
X33468733Y-83049533D01*
X33460266Y-82423000D01*
X33180866Y-82423000D01*
X33180866Y-82058934D01*
X33330444Y-82050467D01*
X33477199Y-82042000D01*
X33508244Y-81773889D01*
X33520723Y-81669555D01*
X33531880Y-81582683D01*
X33536549Y-81548607D01*
X33540391Y-81522270D01*
X33543240Y-81504797D01*
X33544241Y-81499735D01*
X33544932Y-81497311D01*
X33545908Y-81496783D01*
X33548769Y-81496258D01*
X33559749Y-81495239D01*
X33599966Y-81493431D01*
X33659232Y-81492152D01*
X33731199Y-81491667D01*
X33911821Y-81491667D01*
X33920288Y-81765422D01*
G37*
G36*
X43558797Y-84146428D02*
G01*
X43565042Y-84146860D01*
X43570877Y-84147642D01*
X43576281Y-84148780D01*
X43581237Y-84150278D01*
X43585726Y-84152143D01*
X43589728Y-84154378D01*
X43593227Y-84156990D01*
X43596203Y-84159983D01*
X43598637Y-84163362D01*
X43600510Y-84167133D01*
X43602024Y-84169573D01*
X43604419Y-84172629D01*
X43607648Y-84176255D01*
X43611667Y-84180406D01*
X43621892Y-84190102D01*
X43634730Y-84201353D01*
X43649816Y-84213794D01*
X43666788Y-84227062D01*
X43685281Y-84240792D01*
X43704932Y-84254622D01*
X43731832Y-84275198D01*
X43756487Y-84296856D01*
X43778967Y-84319821D01*
X43799344Y-84344316D01*
X43817686Y-84370563D01*
X43834065Y-84398787D01*
X43848550Y-84429210D01*
X43861212Y-84462056D01*
X43872121Y-84497547D01*
X43881348Y-84535907D01*
X43888962Y-84577360D01*
X43895034Y-84622129D01*
X43899635Y-84670436D01*
X43902834Y-84722505D01*
X43904702Y-84778560D01*
X43905309Y-84838823D01*
X43903605Y-84936363D01*
X43898424Y-85030183D01*
X43889664Y-85120529D01*
X43877219Y-85207652D01*
X43860988Y-85291797D01*
X43840867Y-85373215D01*
X43816752Y-85452151D01*
X43788540Y-85528856D01*
X43756128Y-85603576D01*
X43719412Y-85676559D01*
X43678290Y-85748055D01*
X43632657Y-85818310D01*
X43582410Y-85887573D01*
X43527446Y-85956092D01*
X43467662Y-86024114D01*
X43402954Y-86091889D01*
X43368062Y-86126869D01*
X43337332Y-86157941D01*
X43310563Y-86185434D01*
X43287552Y-86209673D01*
X43277392Y-86220674D01*
X43268096Y-86230985D01*
X43259638Y-86240645D01*
X43251993Y-86249696D01*
X43245135Y-86258179D01*
X43239040Y-86266134D01*
X43233682Y-86273603D01*
X43229035Y-86280625D01*
X43225074Y-86287242D01*
X43221775Y-86293495D01*
X43219111Y-86299424D01*
X43217057Y-86305071D01*
X43215588Y-86310476D01*
X43214679Y-86315680D01*
X43214304Y-86320724D01*
X43214439Y-86325648D01*
X43215057Y-86330494D01*
X43216133Y-86335302D01*
X43217643Y-86340113D01*
X43219560Y-86344968D01*
X43221860Y-86349908D01*
X43224516Y-86354974D01*
X43227505Y-86360206D01*
X43230800Y-86365645D01*
X43569465Y-86873645D01*
X43644061Y-86987209D01*
X43712472Y-87094505D01*
X43774997Y-87196279D01*
X43831932Y-87293273D01*
X43883575Y-87386233D01*
X43930224Y-87475902D01*
X43972177Y-87563024D01*
X44009732Y-87648344D01*
X44043185Y-87732605D01*
X44072835Y-87816553D01*
X44098979Y-87900930D01*
X44121915Y-87986481D01*
X44141941Y-88073951D01*
X44159354Y-88164083D01*
X44174452Y-88257622D01*
X44187532Y-88355311D01*
X44196527Y-88436410D01*
X44202343Y-88516745D01*
X44204976Y-88596344D01*
X44204421Y-88675236D01*
X44200675Y-88753450D01*
X44193733Y-88831015D01*
X44183591Y-88907960D01*
X44170245Y-88984313D01*
X44153692Y-89060105D01*
X44133926Y-89135363D01*
X44110944Y-89210117D01*
X44084741Y-89284395D01*
X44055314Y-89358227D01*
X44022658Y-89431641D01*
X43986769Y-89504667D01*
X43947643Y-89577334D01*
X43925156Y-89616183D01*
X43901225Y-89655297D01*
X43876063Y-89694411D01*
X43849880Y-89733261D01*
X43822886Y-89771581D01*
X43795293Y-89809108D01*
X43767311Y-89845576D01*
X43739151Y-89880722D01*
X43711025Y-89914280D01*
X43683142Y-89945986D01*
X43655714Y-89975575D01*
X43628952Y-90002783D01*
X43603066Y-90027345D01*
X43578268Y-90048997D01*
X43554767Y-90067473D01*
X43532776Y-90082511D01*
X43515972Y-90092177D01*
X43497857Y-90100546D01*
X43457811Y-90113417D01*
X43412870Y-90121187D01*
X43363267Y-90123918D01*
X43309231Y-90121671D01*
X43250995Y-90114509D01*
X43188790Y-90102493D01*
X43122848Y-90085686D01*
X43053401Y-90064149D01*
X42980679Y-90037945D01*
X42904914Y-90007135D01*
X42826338Y-89971783D01*
X42745183Y-89931948D01*
X42661679Y-89887695D01*
X42576059Y-89839084D01*
X42488554Y-89786178D01*
X42307943Y-89669843D01*
X42127398Y-89542893D01*
X41942752Y-89401853D01*
X41749838Y-89243252D01*
X41544488Y-89063617D01*
X41322536Y-88859475D01*
X41079814Y-88627352D01*
X40812155Y-88363778D01*
X40463434Y-88010796D01*
X40306188Y-87847251D01*
X40159692Y-87691515D01*
X40023448Y-87542973D01*
X39896960Y-87401008D01*
X39779734Y-87265005D01*
X39671271Y-87134347D01*
X39571076Y-87008418D01*
X39478654Y-86886603D01*
X39393508Y-86768285D01*
X39315142Y-86652849D01*
X39243059Y-86539678D01*
X39176765Y-86428157D01*
X39115762Y-86317669D01*
X39059555Y-86207599D01*
X39026965Y-86140705D01*
X38997940Y-86078450D01*
X38972404Y-86020510D01*
X38950282Y-85966564D01*
X38931501Y-85916289D01*
X38915985Y-85869363D01*
X38903662Y-85825463D01*
X38894455Y-85784267D01*
X38890997Y-85764581D01*
X38888291Y-85745451D01*
X38886327Y-85726836D01*
X38885095Y-85708695D01*
X38884587Y-85690988D01*
X38884793Y-85673675D01*
X38885704Y-85656715D01*
X38887311Y-85640069D01*
X38889604Y-85623695D01*
X38892573Y-85607554D01*
X38896211Y-85591605D01*
X38900506Y-85575808D01*
X38911036Y-85544509D01*
X38924087Y-85513333D01*
X38948492Y-85471813D01*
X38982009Y-85428027D01*
X39023827Y-85382488D01*
X39073136Y-85335710D01*
X39129126Y-85288203D01*
X39190986Y-85240482D01*
X39257906Y-85193058D01*
X39329076Y-85146444D01*
X39403686Y-85101154D01*
X39480925Y-85057699D01*
X39559983Y-85016592D01*
X39640050Y-84978346D01*
X39720315Y-84943473D01*
X39799968Y-84912487D01*
X39878199Y-84885899D01*
X39954198Y-84864223D01*
X40008485Y-84852112D01*
X40068217Y-84842218D01*
X40132687Y-84834506D01*
X40201187Y-84828945D01*
X40273011Y-84825499D01*
X40347452Y-84824138D01*
X40423803Y-84824827D01*
X40501357Y-84827533D01*
X40579407Y-84832224D01*
X40657246Y-84838866D01*
X40734168Y-84847427D01*
X40809465Y-84857872D01*
X40882430Y-84870170D01*
X40952356Y-84884286D01*
X41018537Y-84900189D01*
X41080266Y-84917844D01*
X41178261Y-84949758D01*
X41276449Y-84985164D01*
X41374828Y-85024052D01*
X41473393Y-85066408D01*
X41572139Y-85112220D01*
X41671064Y-85161476D01*
X41770162Y-85214163D01*
X41869429Y-85270270D01*
X41968862Y-85329782D01*
X42068457Y-85392689D01*
X42168208Y-85458978D01*
X42268112Y-85528635D01*
X42368165Y-85601650D01*
X42468363Y-85678009D01*
X42568701Y-85757700D01*
X42669176Y-85840711D01*
X42735604Y-85897282D01*
X42798426Y-85949852D01*
X42856155Y-85997328D01*
X42907302Y-86038620D01*
X42950379Y-86072635D01*
X42983899Y-86098283D01*
X43006372Y-86114472D01*
X43013001Y-86118679D01*
X43016310Y-86120111D01*
X43018515Y-86119525D01*
X43021910Y-86117802D01*
X43026430Y-86114995D01*
X43032008Y-86111159D01*
X43046075Y-86100615D01*
X43063582Y-86086597D01*
X43083999Y-86069537D01*
X43106797Y-86049864D01*
X43131448Y-86028008D01*
X43157421Y-86004400D01*
X43185230Y-85977126D01*
X43211484Y-85948269D01*
X43236151Y-85917900D01*
X43259198Y-85886087D01*
X43280590Y-85852902D01*
X43300296Y-85818414D01*
X43318282Y-85782695D01*
X43334516Y-85745814D01*
X43348963Y-85707841D01*
X43361591Y-85668848D01*
X43372367Y-85628903D01*
X43381258Y-85588078D01*
X43388231Y-85546443D01*
X43393253Y-85504067D01*
X43396290Y-85461022D01*
X43397310Y-85417378D01*
X43396893Y-85384868D01*
X43395562Y-85353751D01*
X43393198Y-85323635D01*
X43389681Y-85294126D01*
X43384890Y-85264832D01*
X43378706Y-85235361D01*
X43371009Y-85205319D01*
X43361679Y-85174314D01*
X43350596Y-85141953D01*
X43337640Y-85107843D01*
X43322692Y-85071591D01*
X43305631Y-85032806D01*
X43264692Y-84946061D01*
X43213865Y-84844467D01*
X43199107Y-84815556D01*
X43185529Y-84787541D01*
X43173137Y-84760393D01*
X43161935Y-84734080D01*
X43151931Y-84708574D01*
X43143129Y-84683844D01*
X43135535Y-84659860D01*
X43129155Y-84636592D01*
X43123994Y-84614011D01*
X43120059Y-84592086D01*
X43117355Y-84570787D01*
X43115887Y-84550084D01*
X43115662Y-84529948D01*
X43116684Y-84510349D01*
X43118960Y-84491255D01*
X43122496Y-84472639D01*
X43127297Y-84454468D01*
X43133368Y-84436714D01*
X43140716Y-84419347D01*
X43149346Y-84402337D01*
X43159263Y-84385653D01*
X43170474Y-84369265D01*
X43182984Y-84353144D01*
X43196800Y-84337260D01*
X43211925Y-84321583D01*
X43228367Y-84306082D01*
X43246130Y-84290728D01*
X43265222Y-84275491D01*
X43285646Y-84260341D01*
X43307409Y-84245247D01*
X43330517Y-84230181D01*
X43354976Y-84215111D01*
X43376151Y-84203410D01*
X43397243Y-84192677D01*
X43418104Y-84182952D01*
X43438584Y-84174277D01*
X43458536Y-84166694D01*
X43477809Y-84160243D01*
X43496256Y-84154967D01*
X43513726Y-84150905D01*
X43530073Y-84148101D01*
X43537778Y-84147183D01*
X43545146Y-84146595D01*
X43552158Y-84146342D01*
X43558797Y-84146428D01*
G37*
G36*
X30194955Y-82772956D02*
G01*
X30197981Y-82997802D01*
X30199513Y-83090586D01*
X30201173Y-83171550D01*
X30203048Y-83241651D01*
X30205224Y-83301841D01*
X30207789Y-83353077D01*
X30209245Y-83375636D01*
X30210830Y-83396314D01*
X30212556Y-83415231D01*
X30214433Y-83432506D01*
X30216472Y-83448259D01*
X30218685Y-83462609D01*
X30221081Y-83475675D01*
X30223673Y-83487577D01*
X30226470Y-83498434D01*
X30229483Y-83508365D01*
X30232724Y-83517490D01*
X30236203Y-83525929D01*
X30239931Y-83533800D01*
X30243920Y-83541223D01*
X30248178Y-83548318D01*
X30252719Y-83555203D01*
X30262688Y-83568823D01*
X30274848Y-83584417D01*
X30287503Y-83598920D01*
X30300637Y-83612335D01*
X30314233Y-83624661D01*
X30328272Y-83635899D01*
X30342739Y-83646052D01*
X30357617Y-83655119D01*
X30372887Y-83663102D01*
X30388534Y-83670002D01*
X30404540Y-83675820D01*
X30420888Y-83680557D01*
X30437561Y-83684214D01*
X30454543Y-83686791D01*
X30471815Y-83688291D01*
X30489361Y-83688714D01*
X30507163Y-83688061D01*
X30525206Y-83686333D01*
X30543471Y-83683531D01*
X30561942Y-83679657D01*
X30580602Y-83674711D01*
X30599433Y-83668694D01*
X30618419Y-83661607D01*
X30637542Y-83653451D01*
X30656785Y-83644228D01*
X30676132Y-83633939D01*
X30695565Y-83622584D01*
X30715068Y-83610164D01*
X30734622Y-83596681D01*
X30773820Y-83566528D01*
X30813022Y-83532133D01*
X30951311Y-83402311D01*
X30951311Y-82056112D01*
X31402866Y-82056112D01*
X31402866Y-84031667D01*
X31007755Y-84031667D01*
X31007755Y-83904667D01*
X31007658Y-83891613D01*
X31007375Y-83878953D01*
X31006918Y-83866747D01*
X31006300Y-83855058D01*
X31005533Y-83843947D01*
X31004630Y-83833477D01*
X31003602Y-83823711D01*
X31002463Y-83814709D01*
X31001225Y-83806533D01*
X30999900Y-83799247D01*
X30998501Y-83792911D01*
X30997039Y-83787589D01*
X30995528Y-83783341D01*
X30994758Y-83781639D01*
X30993980Y-83780230D01*
X30993196Y-83779120D01*
X30992407Y-83778318D01*
X30991615Y-83777831D01*
X30990822Y-83777667D01*
X30988651Y-83778155D01*
X30985359Y-83779591D01*
X30981018Y-83781927D01*
X30975696Y-83785119D01*
X30962396Y-83793889D01*
X30946019Y-83805536D01*
X30927129Y-83819697D01*
X30906287Y-83836007D01*
X30884057Y-83854104D01*
X30861000Y-83873622D01*
X30831612Y-83898602D01*
X30802642Y-83921721D01*
X30773978Y-83943038D01*
X30745509Y-83962610D01*
X30717122Y-83980496D01*
X30688706Y-83996753D01*
X30660150Y-84011438D01*
X30631341Y-84024611D01*
X30602169Y-84036328D01*
X30572521Y-84046649D01*
X30542286Y-84055629D01*
X30511353Y-84063328D01*
X30479609Y-84069804D01*
X30446943Y-84075113D01*
X30413244Y-84079315D01*
X30378399Y-84082467D01*
X30343528Y-84084292D01*
X30308847Y-84084501D01*
X30274480Y-84083130D01*
X30240552Y-84080218D01*
X30207185Y-84075800D01*
X30174505Y-84069915D01*
X30142635Y-84062600D01*
X30111700Y-84053892D01*
X30081822Y-84043827D01*
X30053127Y-84032444D01*
X30025739Y-84019779D01*
X29999781Y-84005870D01*
X29975377Y-83990753D01*
X29952652Y-83974467D01*
X29931729Y-83957048D01*
X29912733Y-83938533D01*
X29906160Y-83931507D01*
X29899178Y-83923204D01*
X29891841Y-83913735D01*
X29884202Y-83903211D01*
X29868233Y-83879448D01*
X29851702Y-83852808D01*
X29835039Y-83824184D01*
X29818673Y-83794468D01*
X29803036Y-83764553D01*
X29788555Y-83735333D01*
X29768733Y-83687945D01*
X29753277Y-83639334D01*
X29741525Y-83580602D01*
X29732816Y-83502853D01*
X29726488Y-83397190D01*
X29721880Y-83254718D01*
X29715177Y-82823755D01*
X29703888Y-82056112D01*
X30186488Y-82056112D01*
X30194955Y-82772956D01*
G37*
G36*
X27945644Y-81994022D02*
G01*
X28094472Y-82264603D01*
X28249386Y-82550000D01*
X28392128Y-82816347D01*
X28504444Y-83029778D01*
X28548365Y-83112625D01*
X28588581Y-83186676D01*
X28624300Y-83250540D01*
X28640225Y-83278217D01*
X28654727Y-83302828D01*
X28667708Y-83324197D01*
X28679069Y-83342152D01*
X28688710Y-83356518D01*
X28696531Y-83367122D01*
X28702435Y-83373790D01*
X28704636Y-83375594D01*
X28706321Y-83376349D01*
X28707476Y-83376034D01*
X28708090Y-83374625D01*
X28708150Y-83372103D01*
X28707644Y-83368445D01*
X28703295Y-83331574D01*
X28698780Y-83259745D01*
X28689652Y-83028014D01*
X28681053Y-82706854D01*
X28673777Y-82329866D01*
X28659666Y-81378778D01*
X29116866Y-81378778D01*
X29116866Y-84031667D01*
X28614511Y-84031667D01*
X28267377Y-83402311D01*
X28115815Y-83127982D01*
X27960814Y-82843864D01*
X27711400Y-82380667D01*
X27681681Y-82323485D01*
X27654889Y-82272463D01*
X27630908Y-82227411D01*
X27609623Y-82188139D01*
X27590918Y-82154455D01*
X27574676Y-82126171D01*
X27560783Y-82103096D01*
X27554681Y-82093452D01*
X27549122Y-82085039D01*
X27544092Y-82077834D01*
X27539578Y-82071811D01*
X27535563Y-82066949D01*
X27532034Y-82063222D01*
X27528977Y-82060607D01*
X27526376Y-82059081D01*
X27525242Y-82058718D01*
X27524218Y-82058619D01*
X27523300Y-82058780D01*
X27522487Y-82059198D01*
X27521778Y-82059870D01*
X27521170Y-82060794D01*
X27520252Y-82063383D01*
X27519718Y-82066942D01*
X27519555Y-82071446D01*
X27519747Y-82076872D01*
X27520280Y-82083197D01*
X27521139Y-82090395D01*
X27522311Y-82098445D01*
X27529543Y-82214023D01*
X27537833Y-82445225D01*
X27546123Y-82758448D01*
X27553355Y-83120089D01*
X27573111Y-84031667D01*
X27113089Y-84031667D01*
X27113089Y-81378778D01*
X27606977Y-81378778D01*
X27945644Y-81994022D01*
G37*
G36*
X29035755Y-78446880D02*
G01*
X29065264Y-78448821D01*
X29093892Y-78451825D01*
X29121312Y-78455903D01*
X29147200Y-78461068D01*
X29171226Y-78467334D01*
X29193066Y-78474711D01*
X29201419Y-78477841D01*
X29210540Y-78481888D01*
X29220339Y-78486779D01*
X29230725Y-78492438D01*
X29241608Y-78498792D01*
X29252895Y-78505767D01*
X29264497Y-78513287D01*
X29276322Y-78521278D01*
X29300278Y-78538377D01*
X29324035Y-78556467D01*
X29346866Y-78574955D01*
X29368044Y-78593245D01*
X29392138Y-78617254D01*
X29414677Y-78642147D01*
X29435662Y-78667865D01*
X29455092Y-78694349D01*
X29472968Y-78721539D01*
X29489289Y-78749378D01*
X29504056Y-78777806D01*
X29517269Y-78806764D01*
X29528927Y-78836193D01*
X29539031Y-78866035D01*
X29547580Y-78896230D01*
X29554575Y-78926719D01*
X29560016Y-78957444D01*
X29563902Y-78988346D01*
X29566233Y-79019366D01*
X29567011Y-79050445D01*
X29566233Y-79081524D01*
X29563902Y-79112543D01*
X29560016Y-79143445D01*
X29554575Y-79174171D01*
X29547580Y-79204660D01*
X29539031Y-79234855D01*
X29528927Y-79264697D01*
X29517269Y-79294126D01*
X29504056Y-79323084D01*
X29489289Y-79351512D01*
X29472968Y-79379350D01*
X29455092Y-79406541D01*
X29435662Y-79433024D01*
X29414677Y-79458742D01*
X29392138Y-79483635D01*
X29368044Y-79507644D01*
X29346030Y-79527463D01*
X29324360Y-79545673D01*
X29302913Y-79562320D01*
X29281569Y-79577451D01*
X29260209Y-79591109D01*
X29238712Y-79603341D01*
X29216959Y-79614193D01*
X29194830Y-79623709D01*
X29172205Y-79631935D01*
X29148963Y-79638917D01*
X29124986Y-79644700D01*
X29100153Y-79649329D01*
X29074345Y-79652851D01*
X29047441Y-79655310D01*
X29019321Y-79656752D01*
X28989866Y-79657223D01*
X28960411Y-79656752D01*
X28932292Y-79655310D01*
X28905388Y-79652851D01*
X28879579Y-79649329D01*
X28854746Y-79644700D01*
X28830769Y-79638917D01*
X28807528Y-79631935D01*
X28784902Y-79623709D01*
X28762773Y-79614193D01*
X28741020Y-79603341D01*
X28719523Y-79591109D01*
X28698163Y-79577451D01*
X28676819Y-79562320D01*
X28655372Y-79545673D01*
X28633702Y-79527463D01*
X28611688Y-79507644D01*
X28588331Y-79484221D01*
X28566414Y-79460019D01*
X28545940Y-79435089D01*
X28526912Y-79409479D01*
X28509329Y-79383238D01*
X28493196Y-79356417D01*
X28478514Y-79329063D01*
X28465286Y-79301226D01*
X28453512Y-79272954D01*
X28443196Y-79244298D01*
X28434339Y-79215306D01*
X28426943Y-79186027D01*
X28421011Y-79156511D01*
X28416545Y-79126805D01*
X28413546Y-79096961D01*
X28412016Y-79067025D01*
X28411959Y-79037049D01*
X28413375Y-79007080D01*
X28416267Y-78977168D01*
X28420637Y-78947362D01*
X28426487Y-78917711D01*
X28433820Y-78888264D01*
X28442636Y-78859070D01*
X28452939Y-78830179D01*
X28464729Y-78801639D01*
X28478011Y-78773500D01*
X28492784Y-78745810D01*
X28509052Y-78718618D01*
X28526817Y-78691975D01*
X28546080Y-78665928D01*
X28566844Y-78640528D01*
X28589111Y-78615822D01*
X28598951Y-78606209D01*
X28609362Y-78596464D01*
X28620253Y-78586652D01*
X28631532Y-78576840D01*
X28654893Y-78557482D01*
X28678716Y-78538917D01*
X28702275Y-78521675D01*
X28724842Y-78506285D01*
X28735526Y-78499450D01*
X28745689Y-78493276D01*
X28755240Y-78487830D01*
X28764089Y-78483177D01*
X28784440Y-78475176D01*
X28807177Y-78468113D01*
X28831973Y-78462001D01*
X28858501Y-78456852D01*
X28886434Y-78452678D01*
X28915447Y-78449493D01*
X28945212Y-78447308D01*
X28975402Y-78446136D01*
X29005692Y-78445989D01*
X29035755Y-78446880D01*
G37*
D12*
X28213942Y-95052761D02*
X28213942Y-93052761D01*
X29356800Y-95052761D01*
X29356800Y-93052761D01*
X31166323Y-93719428D02*
X31166323Y-95052761D01*
X30309180Y-93719428D02*
X30309180Y-94767047D01*
X30404419Y-94957523D01*
X30594895Y-95052761D01*
X30880609Y-95052761D01*
X31071085Y-94957523D01*
X31166323Y-94862285D01*
X31832990Y-93719428D02*
X32594895Y-93719428D01*
X32118704Y-93052761D02*
X32118704Y-94767047D01*
X32213942Y-94957523D01*
X32404419Y-95052761D01*
X32594895Y-95052761D01*
X32975847Y-93719428D02*
X33737752Y-93719428D01*
X33261561Y-93052761D02*
X33261561Y-94767047D01*
X33356800Y-94957523D01*
X33547276Y-95052761D01*
X33737752Y-95052761D01*
X34213942Y-93719428D02*
X34690133Y-95052761D01*
X35166323Y-93719428D02*
X34690133Y-95052761D01*
X34499657Y-95528952D01*
X34404419Y-95624190D01*
X34213942Y-95719428D01*
X35832990Y-94957523D02*
X36118704Y-95052761D01*
X36594895Y-95052761D01*
X36785371Y-94957523D01*
X36880609Y-94862285D01*
X36975847Y-94671809D01*
X36975847Y-94481333D01*
X36880609Y-94290857D01*
X36785371Y-94195619D01*
X36594895Y-94100380D01*
X36213942Y-94005142D01*
X36023466Y-93909904D01*
X35928228Y-93814666D01*
X35832990Y-93624190D01*
X35832990Y-93433714D01*
X35928228Y-93243238D01*
X36023466Y-93148000D01*
X36213942Y-93052761D01*
X36690133Y-93052761D01*
X36975847Y-93148000D01*
X37832990Y-95052761D02*
X37832990Y-93052761D01*
X38690133Y-95052761D02*
X38690133Y-94005142D01*
X38594895Y-93814666D01*
X38404419Y-93719428D01*
X38118704Y-93719428D01*
X37928228Y-93814666D01*
X37832990Y-93909904D01*
X40404419Y-94957523D02*
X40213942Y-95052761D01*
X39832990Y-95052761D01*
X39642514Y-94957523D01*
X39547276Y-94767047D01*
X39547276Y-94005142D01*
X39642514Y-93814666D01*
X39832990Y-93719428D01*
X40213942Y-93719428D01*
X40404419Y-93814666D01*
X40499657Y-94005142D01*
X40499657Y-94195619D01*
X39547276Y-94386095D01*
X41642514Y-95052761D02*
X41452038Y-94957523D01*
X41356800Y-94767047D01*
X41356800Y-93052761D01*
X42690133Y-95052761D02*
X42499657Y-94957523D01*
X42404419Y-94767047D01*
X42404419Y-93052761D01*
X29737752Y-98082285D02*
X29642514Y-98177523D01*
X29356800Y-98272761D01*
X29166323Y-98272761D01*
X28880609Y-98177523D01*
X28690133Y-97987047D01*
X28594895Y-97796571D01*
X28499657Y-97415619D01*
X28499657Y-97129904D01*
X28594895Y-96748952D01*
X28690133Y-96558476D01*
X28880609Y-96368000D01*
X29166323Y-96272761D01*
X29356800Y-96272761D01*
X29642514Y-96368000D01*
X29737752Y-96463238D01*
X30309180Y-96272761D02*
X31452038Y-96272761D01*
X30880609Y-98272761D02*
X30880609Y-96272761D01*
X32785371Y-97225142D02*
X32118704Y-97225142D01*
X32118704Y-98272761D02*
X32118704Y-96272761D01*
X33071085Y-96272761D01*
X35071085Y-96272761D02*
X36213942Y-96272761D01*
X35642514Y-98272761D02*
X35642514Y-96272761D01*
X37642514Y-98177523D02*
X37452038Y-98272761D01*
X37071085Y-98272761D01*
X36880609Y-98177523D01*
X36785371Y-97987047D01*
X36785371Y-97225142D01*
X36880609Y-97034666D01*
X37071085Y-96939428D01*
X37452038Y-96939428D01*
X37642514Y-97034666D01*
X37737752Y-97225142D01*
X37737752Y-97415619D01*
X36785371Y-97606095D01*
X39452038Y-98272761D02*
X39452038Y-97225142D01*
X39356800Y-97034666D01*
X39166323Y-96939428D01*
X38785371Y-96939428D01*
X38594895Y-97034666D01*
X39452038Y-98177523D02*
X39261561Y-98272761D01*
X38785371Y-98272761D01*
X38594895Y-98177523D01*
X38499657Y-97987047D01*
X38499657Y-97796571D01*
X38594895Y-97606095D01*
X38785371Y-97510857D01*
X39261561Y-97510857D01*
X39452038Y-97415619D01*
X40404419Y-98272761D02*
X40404419Y-96939428D01*
X40404419Y-97129904D02*
X40499657Y-97034666D01*
X40690133Y-96939428D01*
X40975847Y-96939428D01*
X41166323Y-97034666D01*
X41261561Y-97225142D01*
X41261561Y-98272761D01*
X41261561Y-97225142D02*
X41356800Y-97034666D01*
X41547276Y-96939428D01*
X41832990Y-96939428D01*
X42023466Y-97034666D01*
X42118704Y-97225142D01*
X42118704Y-98272761D01*
D13*
%TO.C,D17*%
X130810000Y-142952200D03*
X130810000Y-146252200D03*
%TD*%
D14*
%TO.C,BZ1*%
X137905000Y-137685000D03*
X137905000Y-130285000D03*
X145305000Y-130285000D03*
%TD*%
D15*
%TO.C,C32*%
X163410500Y-96367600D03*
X166535500Y-96367600D03*
%TD*%
D16*
%TO.C,R28*%
X100584000Y-129006000D03*
X100584000Y-132106000D03*
%TD*%
D17*
%TO.C,H3*%
X69088000Y-188214000D03*
%TD*%
D18*
%TO.C,SW1*%
X87325000Y-149646000D03*
X73025000Y-149646000D03*
X73025000Y-154646000D03*
X87325000Y-154646000D03*
%TD*%
D19*
%TO.C,R15*%
X138710000Y-146685000D03*
X135610000Y-146685000D03*
%TD*%
D18*
%TO.C,SW4*%
X72860000Y-175046000D03*
X87160000Y-175046000D03*
X87160000Y-180046000D03*
X72860000Y-180046000D03*
%TD*%
D13*
%TO.C,D1*%
X91313000Y-153923000D03*
X91313000Y-150623000D03*
%TD*%
D18*
%TO.C,SW7*%
X72174000Y-162346000D03*
X57874000Y-162346000D03*
X57874000Y-167346000D03*
X72174000Y-167346000D03*
%TD*%
D20*
%TO.C,R16*%
X140335000Y-144425000D03*
X140335000Y-141325000D03*
%TD*%
D21*
%TO.C,C3*%
X68580000Y-121627500D03*
X68580000Y-124752500D03*
%TD*%
D22*
%TO.C,C2*%
X161290000Y-101892500D03*
X161290000Y-98767500D03*
%TD*%
D23*
%TO.C,J7*%
X119576033Y-139819833D03*
D24*
X121372084Y-141615884D03*
X123168135Y-143411935D03*
X124964187Y-145207987D03*
X126760238Y-147004038D03*
%TD*%
D25*
%TO.C,J4*%
X134902754Y-56975554D03*
D26*
X133106703Y-55179503D03*
X131310652Y-53383452D03*
X129514600Y-51587400D03*
X127718549Y-49791349D03*
X125922498Y-47995298D03*
X124126447Y-46199247D03*
%TD*%
D13*
%TO.C,D9*%
X65151000Y-149605000D03*
X65151000Y-146305000D03*
%TD*%
D27*
%TO.C,C31*%
X86195300Y-141122400D03*
X83070300Y-141122400D03*
%TD*%
D22*
%TO.C,C26*%
X103378000Y-132131000D03*
X103378000Y-129006000D03*
%TD*%
D28*
%TO.C,U4*%
X100965000Y-39760000D03*
D29*
X98425000Y-39760000D03*
X95885000Y-39760000D03*
%TD*%
D30*
%TO.C,J2*%
X38836878Y-59450889D03*
D31*
X37040827Y-57654838D03*
X40632929Y-57654838D03*
X38836878Y-55858787D03*
X42428981Y-55858787D03*
X40632929Y-54062736D03*
X44225032Y-54062736D03*
X42428981Y-52266684D03*
%TD*%
D13*
%TO.C,D8*%
X111048800Y-180440600D03*
X111048800Y-177140600D03*
%TD*%
D16*
%TO.C,R3*%
X71120000Y-121640000D03*
X71120000Y-124740000D03*
%TD*%
D20*
%TO.C,R30*%
X163753800Y-105816400D03*
X163753800Y-102716400D03*
%TD*%
D13*
%TO.C,D4*%
X68961000Y-179196000D03*
X68961000Y-175896000D03*
%TD*%
%TO.C,D6*%
X97155000Y-187451000D03*
X97155000Y-184151000D03*
%TD*%
D32*
%TO.C,D11*%
X95975000Y-59310000D03*
X95975000Y-62610000D03*
X100875000Y-62610000D03*
X100875000Y-59310000D03*
%TD*%
D33*
%TO.C,R1*%
X58140000Y-121920000D03*
X61240000Y-121920000D03*
%TD*%
D19*
%TO.C,R31*%
X166497600Y-98679000D03*
X163397600Y-98679000D03*
%TD*%
D16*
%TO.C,R4*%
X73660000Y-121640000D03*
X73660000Y-124740000D03*
%TD*%
D22*
%TO.C,C1*%
X161290000Y-96812500D03*
X161290000Y-93687500D03*
%TD*%
D18*
%TO.C,SW9*%
X61252000Y-145455000D03*
X46952000Y-145455000D03*
X61252000Y-150455000D03*
X46952000Y-150455000D03*
%TD*%
D17*
%TO.C,H4*%
X124968000Y-188214000D03*
%TD*%
D19*
%TO.C,R29*%
X163957600Y-107899200D03*
X160857600Y-107899200D03*
%TD*%
D18*
%TO.C,SW8*%
X127800000Y-169204000D03*
X113500000Y-169204000D03*
X113500000Y-174204000D03*
X127800000Y-174204000D03*
%TD*%
D32*
%TO.C,D10*%
X79465000Y-59310000D03*
X79465000Y-62610000D03*
X84365000Y-62610000D03*
X84365000Y-59310000D03*
%TD*%
D21*
%TO.C,C7*%
X147320000Y-84162500D03*
X147320000Y-87287500D03*
%TD*%
D34*
%TO.C,J5*%
X110363000Y-119913400D03*
D35*
X107823000Y-119913400D03*
X105283000Y-119913400D03*
X102743000Y-119913400D03*
%TD*%
D33*
%TO.C,R10*%
X49885000Y-84455000D03*
X52985000Y-84455000D03*
%TD*%
D36*
%TO.C,D14*%
X107320000Y-40040000D03*
D29*
X104780000Y-40040000D03*
%TD*%
D21*
%TO.C,C28*%
X147878800Y-131685900D03*
X147878800Y-134810900D03*
%TD*%
D22*
%TO.C,C27*%
X153797000Y-92621500D03*
X153797000Y-89496500D03*
%TD*%
D20*
%TO.C,R27*%
X106172000Y-132106000D03*
X106172000Y-129006000D03*
%TD*%
%TO.C,R20*%
X143510000Y-144425000D03*
X143510000Y-141325000D03*
%TD*%
D27*
%TO.C,C21*%
X85890500Y-132207000D03*
X82765500Y-132207000D03*
%TD*%
D17*
%TO.C,H1*%
X53340000Y-50800000D03*
%TD*%
D33*
%TO.C,R2*%
X58140000Y-124460000D03*
X61240000Y-124460000D03*
%TD*%
D22*
%TO.C,C11*%
X52832000Y-97574500D03*
X52832000Y-94449500D03*
%TD*%
%TO.C,C5*%
X148590000Y-101892500D03*
X148590000Y-98767500D03*
%TD*%
D37*
%TO.C,Q7*%
X168844000Y-92331300D03*
X166944000Y-92331300D03*
X167894000Y-94206300D03*
%TD*%
D19*
%TO.C,R21*%
X138710000Y-149225000D03*
X135610000Y-149225000D03*
%TD*%
D38*
%TO.C,C19*%
X33947146Y-60363146D03*
X36156854Y-62572854D03*
%TD*%
D34*
%TO.C,J6*%
X112669000Y-133360000D03*
D35*
X115209000Y-133360000D03*
X112669000Y-135900000D03*
X115209000Y-135900000D03*
X112669000Y-138440000D03*
X115209000Y-138440000D03*
X112669000Y-140980000D03*
X115209000Y-140980000D03*
%TD*%
D39*
%TO.C,L1*%
X76454000Y-134176000D03*
X76454000Y-142176000D03*
%TD*%
D18*
%TO.C,SW5*%
X125387200Y-155742000D03*
X139687200Y-155742000D03*
X139687200Y-160742000D03*
X125387200Y-160742000D03*
%TD*%
D34*
%TO.C,J1*%
X123825000Y-62850000D03*
D35*
X123825000Y-60310000D03*
X123825000Y-57770000D03*
%TD*%
D27*
%TO.C,C16*%
X85890500Y-134620000D03*
X82765500Y-134620000D03*
%TD*%
D40*
%TO.C,FB1*%
X78740000Y-125120400D03*
X78740000Y-128095400D03*
%TD*%
D18*
%TO.C,SW2*%
X87846000Y-162346000D03*
X102146000Y-162346000D03*
X102146000Y-167346000D03*
X87846000Y-167346000D03*
%TD*%
D16*
%TO.C,R19*%
X137160000Y-141325000D03*
X137160000Y-144425000D03*
%TD*%
D13*
%TO.C,D5*%
X121412000Y-160019000D03*
X121412000Y-156719000D03*
%TD*%
D27*
%TO.C,C15*%
X98717500Y-42672000D03*
X95592500Y-42672000D03*
%TD*%
D13*
%TO.C,D2*%
X106045000Y-166496000D03*
X106045000Y-163196000D03*
%TD*%
D36*
%TO.C,D13*%
X91445000Y-40040000D03*
D29*
X88905000Y-40040000D03*
%TD*%
D41*
%TO.C,Q2*%
X53152000Y-107363500D03*
X55052000Y-107363500D03*
X54102000Y-105488500D03*
%TD*%
D42*
%TO.C,SW10*%
X95290000Y-135840000D03*
X97790000Y-135840000D03*
X100290000Y-135840000D03*
X95290000Y-142290000D03*
X97790000Y-142290000D03*
X100290000Y-142290000D03*
%TD*%
D18*
%TO.C,SW6*%
X113830000Y-192826000D03*
X99530000Y-192826000D03*
X113830000Y-197826000D03*
X99530000Y-197826000D03*
%TD*%
D21*
%TO.C,C6*%
X145415000Y-63842500D03*
X145415000Y-66967500D03*
%TD*%
D43*
%TO.C,U5*%
X135900000Y-82066000D03*
X135900000Y-84616000D03*
X135900000Y-99846000D03*
X135900000Y-102386000D03*
X59390000Y-102386000D03*
X59390000Y-99846000D03*
X59390000Y-97306000D03*
X59390000Y-94766000D03*
X59390000Y-92226000D03*
X59390000Y-89686000D03*
X59390000Y-87146000D03*
X59390000Y-84606000D03*
X59390000Y-82066000D03*
D44*
X60890000Y-114626000D03*
X60910000Y-69826000D03*
X134490000Y-114636000D03*
X134510000Y-69836000D03*
%TD*%
D32*
%TO.C,D15*%
X112485000Y-59310000D03*
X112485000Y-62610000D03*
X117385000Y-62610000D03*
X117385000Y-59310000D03*
%TD*%
D18*
%TO.C,SW3*%
X80480000Y-192826000D03*
X94780000Y-192826000D03*
X94780000Y-197826000D03*
X80480000Y-197826000D03*
%TD*%
D13*
%TO.C,D16*%
X150266400Y-131470400D03*
X150266400Y-134770400D03*
%TD*%
D20*
%TO.C,R11*%
X57150000Y-111786000D03*
X57150000Y-108686000D03*
%TD*%
D21*
%TO.C,C30*%
X88341200Y-140893000D03*
X88341200Y-144018000D03*
%TD*%
D17*
%TO.C,H2*%
X141986000Y-50800000D03*
%TD*%
D13*
%TO.C,D7*%
X53975000Y-166496000D03*
X53975000Y-163196000D03*
%TD*%
%TO.C,D3*%
X76581000Y-197103000D03*
X76581000Y-193803000D03*
%TD*%
D45*
%TO.C,U6*%
X84074000Y-137922000D03*
D46*
X85474000Y-136922000D03*
X85474000Y-137422000D03*
X85474000Y-137922000D03*
X85474000Y-138422000D03*
X85474000Y-138922000D03*
X82674000Y-138922000D03*
X82674000Y-138422000D03*
X82674000Y-137922000D03*
X82674000Y-137422000D03*
X82674000Y-136922000D03*
%TD*%
D47*
%TO.C,BT1*%
X107319000Y-146050000D03*
D48*
X92329000Y-146050000D03*
D49*
X107319000Y-173215000D03*
X90805000Y-173215000D03*
%TD*%
M02*
