M48
; DRILL file {KiCad (6.0.11)} date Tue May  7 01:49:48 2024
; FORMAT={3:3/ absolute / metric / suppress leading zeros}
; #@! TF.CreationDate,2024-05-07T01:49:48+08:00
; #@! TF.GenerationSoftware,Kicad,Pcbnew,(6.0.11)
; #@! TF.FileFunction,Plated,1,2,PTH
FMAT,2
METRIC,TZ
; #@! TA.AperFunction,Plated,PTH,ViaDrill
T1C0.300
; #@! TA.AperFunction,Plated,PTH,ComponentDrill
T2C0.300
; #@! TA.AperFunction,Plated,PTH,ViaDrill
T3C0.400
; #@! TA.AperFunction,Plated,PTH,ViaDrill
T4C0.600
; #@! TA.AperFunction,Plated,PTH,ComponentDrill
T5C0.900
; #@! TA.AperFunction,Plated,PTH,ComponentDrill
T6C1.000
; #@! TA.AperFunction,Plated,PTH,ComponentDrill
T7C1.020
; #@! TA.AperFunction,Plated,PTH,ComponentDrill
T8C1.100
%
G90
G05
T1
X24892Y-88138
X25019Y-83058
X25019Y-85666
X25146Y-90932
X25309Y-80556
X25527Y-93472
X25654Y-77851
X26324Y-75548
X26670Y-96012
X26858Y-73051
X27609Y-70608
X27676Y-98177
X28295Y-100657
X28486Y-68207
X29201Y-103047
X29951Y-105439
X30769Y-63639
X30956Y-107782
X31192Y-67200
X32204Y-69390
X32516Y-109799
X34291Y-111538
X34398Y-70432
X36148Y-113281
X36854Y-70177
X37830Y-115193
X38709Y-71323
X38969Y-117473
X39637Y-119899
X39987Y-122400
X40041Y-129958
X40064Y-127402
X40108Y-124871
X40286Y-132499
X40516Y-73130
X40835Y-134925
X41096Y-137448
X41493Y-139973
X41961Y-142138
X42266Y-145923
X42324Y-74937
X43049Y-144058
X43217Y-147688
X43619Y-150022
X43891Y-152019
X44107Y-76760
X44150Y-79308
X44150Y-81864
X44150Y-84420
X44150Y-86976
X44150Y-89532
X44150Y-92088
X44500Y-142016
X44734Y-153859
X44917Y-94393
X45309Y-50909
X45569Y-156292
X46183Y-103629
X46183Y-106185
X46183Y-108741
X46183Y-111298
X46307Y-140209
X46510Y-158686
X46690Y-96129
X46746Y-113715
X46773Y-65522
X47080Y-52648
X47417Y-47772
X47490Y-161065
X48550Y-115525
X48570Y-153461
X48576Y-67326
X48717Y-139622
X48777Y-54439
X49636Y-46512
X50248Y-162955
X50248Y-165528
X50357Y-117332
X50475Y-168066
X50592Y-64817
X50816Y-147998
X50989Y-152913
X51273Y-139622
X51283Y-160712
X51329Y-54439
X51843Y-45230
X52165Y-119140
X52365Y-169713
X52802Y-172765
X53140Y-158939
X53142Y-64817
X53829Y-139622
X53882Y-54439
X53930Y-67501
X53930Y-70051
X53930Y-72601
X53972Y-120947
X54023Y-175029
X54083Y-44009
X54928Y-169804
X55193Y-123010
X55194Y-125553
X55349Y-177233
X55644Y-158579
X56120Y-131524
X56134Y-152913
X56372Y-134030
X56411Y-42964
X56434Y-54439
X56728Y-127468
X56782Y-179369
X57339Y-170429
X57553Y-129472
X57829Y-157643
X57868Y-135992
X57868Y-138549
X58299Y-181447
X58691Y-147950
X58691Y-152950
X58782Y-42019
X58794Y-155471
X58986Y-54439
X59228Y-127591
X59879Y-170210
X59910Y-183452
X61149Y-41066
X61538Y-54439
X61563Y-185423
X62323Y-169804
X63246Y-187369
X63512Y-40101
X64091Y-54439
X64218Y-155069
X64596Y-174753
X64599Y-177325
X64673Y-159889
X64687Y-179889
X64896Y-169804
X64958Y-189289
X65048Y-157677
X65858Y-172602
X65909Y-39225
X66259Y-181878
X66643Y-54439
X66977Y-190837
X67068Y-159697
X67468Y-169804
X68391Y-38635
X68630Y-182607
X68805Y-192609
X70307Y-194208
X70883Y-38087
X71096Y-183000
X71720Y-146218
X72122Y-136023
X72346Y-187008
X72346Y-189580
X72346Y-192153
X72346Y-194726
X73362Y-37479
X73715Y-138140
X74300Y-54439
X74539Y-157677
X75536Y-147112
X75840Y-36871
X76099Y-169983
X76561Y-172589
X76852Y-54439
X76982Y-157104
X77852Y-182504
X78276Y-147189
X78322Y-36274
X78369Y-169855
X79404Y-54439
X79581Y-157104
X80185Y-171671
X80513Y-182504
X80812Y-35716
X81047Y-147189
X81957Y-54439
X82045Y-186993
X82180Y-157104
X82462Y-46619
X82504Y-172511
X82913Y-49078
X83164Y-35072
X83174Y-182504
X83546Y-39353
X84509Y-54439
X84680Y-159495
X84706Y-186993
X84764Y-157141
X85001Y-33409
X85088Y-50198
X85677Y-183084
X85943Y-38744
X86316Y-31239
X86594Y-203957
X86938Y-28766
X87061Y-54439
X87367Y-186993
X87561Y-50140
X87573Y-26294
X87735Y-37022
X88293Y-205798
X88335Y-183124
X89866Y-43177
X89897Y-207689
X90028Y-186993
X90076Y-50109
X90235Y-36825
X90253Y-52522
X90835Y-182497
X90944Y-203659
X91038Y-28919
X92035Y-195515
X92248Y-156685
X92263Y-208644
X92475Y-185060
X92551Y-159889
X93312Y-202971
X93590Y-28919
X94075Y-152596
X94122Y-155126
X94732Y-209262
X95048Y-36633
X95120Y-159889
X95373Y-201848
X95589Y-170344
X96142Y-28919
X96821Y-53161
X97157Y-45641
X97282Y-209314
X97352Y-172701
X97439Y-181369
X97534Y-36651
X97619Y-178987
X97688Y-159889
X97848Y-201463
X98101Y-151431
X98508Y-49597
X98695Y-28919
X98851Y-52072
X99016Y-171072
X99016Y-174073
X99726Y-182442
X99833Y-209298
X99988Y-126023
X100038Y-36541
X100130Y-159487
X100187Y-200909
X100279Y-178987
X100600Y-53910
X100670Y-151431
X101247Y-28919
X101271Y-184529
X101988Y-186994
X101988Y-189654
X102248Y-180654
X102293Y-208660
X102323Y-139592
X102515Y-126018
X102567Y-36705
X102665Y-200538
X102665Y-159264
X103239Y-151431
X103333Y-145488
X103423Y-44550
X103423Y-47102
X103423Y-49654
X103799Y-28919
X103891Y-190623
X104129Y-182534
X104478Y-143509
X104494Y-207430
X105045Y-126067
X105074Y-159889
X105137Y-51497
X105217Y-200538
X105390Y-43220
X105808Y-151431
X105912Y-140685
X106106Y-28105
X106285Y-205613
X106551Y-190623
X106661Y-25689
X106942Y-53301
X107455Y-36809
X107497Y-160574
X107581Y-126145
X107768Y-200538
X107890Y-186295
X107899Y-142672
X107916Y-43272
X108045Y-30824
X108095Y-203816
X108377Y-151426
X108623Y-33308
X109157Y-180612
X109210Y-190623
X109339Y-53677
X109569Y-134854
X109760Y-125898
X109770Y-188176
X109838Y-37455
X109962Y-202223
X110135Y-42273
X110423Y-34932
X110493Y-150213
X110552Y-163214
X110552Y-39811
X111008Y-182462
X111651Y-190056
X111891Y-53677
X112143Y-201040
X112310Y-148396
X112368Y-161397
X112858Y-184313
X112956Y-35243
X113084Y-178954
X114126Y-146580
X114185Y-159581
X114443Y-53677
X115481Y-35608
X115711Y-166452
X115943Y-144763
X116055Y-157829
X116557Y-185911
X116995Y-53677
X117364Y-171746
X117440Y-197958
X117497Y-163219
X117731Y-142924
X117961Y-36209
X118251Y-166746
X118407Y-184060
X118498Y-157486
X118854Y-154992
X119548Y-53677
X119596Y-196586
X119803Y-162582
X119806Y-191785
X120020Y-176661
X120077Y-189342
X120258Y-182210
X120422Y-146503
X120427Y-36772
X120892Y-166746
X120982Y-153719
X121174Y-45001
X121213Y-47484
X121728Y-195176
X121884Y-187534
X122039Y-53346
X122108Y-180359
X122410Y-162774
X122609Y-147672
X122637Y-176661
X122931Y-43244
X122933Y-37249
X122985Y-49220
X123337Y-152902
X123691Y-185727
X123843Y-193742
X123959Y-178509
X124457Y-149206
X124688Y-163825
X124757Y-50957
X125239Y-171699
X125239Y-176699
X125390Y-37940
X125416Y-43285
X125499Y-183920
X125867Y-152659
X125880Y-192198
X126607Y-150509
X127306Y-182112
X127746Y-190453
X127787Y-44017
X127837Y-38666
X128424Y-152326
X128653Y-166121
X129027Y-55608
X129113Y-180305
X129251Y-158284
X129516Y-188611
X129658Y-45740
X130288Y-39378
X130796Y-171672
X130846Y-167324
X130920Y-178498
X131228Y-186713
X131497Y-47504
X132449Y-163200
X132663Y-169804
X132723Y-40142
X132728Y-176691
X132911Y-184789
X133302Y-49309
X134530Y-167937
X134530Y-182812
X134535Y-174883
X135090Y-163200
X135102Y-41064
X135404Y-50457
X135552Y-88757
X135552Y-91486
X135552Y-94215
X135552Y-106632
X136065Y-180768
X136342Y-173076
X136398Y-166070
X137126Y-158237
X137230Y-163774
X137243Y-108464
X137243Y-111047
X137390Y-52000
X137437Y-42094
X137541Y-178681
X137751Y-88860
X137751Y-91589
X137751Y-94319
X137878Y-106045
X138150Y-171269
X138996Y-176581
X139195Y-53805
X139771Y-43126
X139957Y-169462
X140247Y-134605
X140413Y-174453
X141000Y-55609
X141335Y-136973
X141734Y-167628
X141759Y-172281
X142078Y-44218
X142145Y-165157
X142422Y-158063
X142626Y-162794
X142837Y-57307
X143018Y-170057
X143020Y-160319
X143416Y-155783
X143458Y-136154
X144039Y-153337
X144210Y-167796
X144295Y-45480
X145328Y-149098
X145350Y-57535
X145362Y-165514
X146470Y-46817
X146489Y-163220
X147165Y-147323
X147482Y-160866
X147903Y-57535
X148385Y-158475
X148652Y-48140
X148750Y-145385
X148787Y-142831
X149210Y-156056
X149941Y-153607
X150378Y-138240
X150455Y-57535
X150547Y-151124
X150822Y-49484
X151201Y-148654
X151896Y-146195
X152481Y-143707
X152782Y-137886
X152870Y-51002
X152928Y-141191
X152982Y-57635
X154773Y-52703
X156479Y-54501
X156657Y-57047
X156835Y-59593
X157935Y-113657
X159898Y-112037
X162916Y-109906
X165098Y-104475
T2
X83499Y-137922
X84074Y-136972
X84074Y-138872
X84649Y-137922
T3
X43180Y-59055
X43905Y-59762
X44704Y-58420
X51308Y-82804
X54610Y-76835
X55118Y-78994
X56007Y-105410
X58420Y-64807
X58547Y-79502
X60071Y-76581
X60198Y-111912
X60249Y-105867
X60325Y-73660
X60554Y-108966
X60579Y-79629
X62230Y-123190
X62865Y-128270
X64770Y-121920
X64770Y-124460
X65988Y-143914
X67310Y-130810
X67437Y-143891
X68707Y-143764
X69484Y-130175
X70485Y-127724
X72390Y-127000
X74295Y-159893
X75565Y-125730
X76196Y-163072
X76200Y-164211
X76708Y-159893
X78486Y-129845
X78740Y-128168
X78994Y-159893
X79629Y-118649
X79951Y-130767
X80010Y-134874
X80010Y-141224
X80620Y-131978
X80645Y-119253
X81025Y-117200
X82140Y-135988
X82220Y-121658
X82423Y-119099
X82804Y-42418
X83185Y-119888
X86673Y-137985
X87757Y-164846
X89916Y-59436
X90170Y-139700
X91821Y-176530
X92964Y-37846
X104394Y-59182
X105651Y-38367
X106426Y-59182
X108458Y-59182
X113284Y-175895
X120574Y-63957
X123342Y-140360
X124955Y-141304
X125679Y-142113
X126148Y-138422
X127660Y-142926
X127838Y-137058
X129642Y-123647
X129934Y-136919
X130366Y-142756
X132080Y-133985
X132080Y-140335
X133020Y-146533
X134463Y-54209
X135382Y-73406
X135382Y-78232
X135406Y-144475
X135458Y-146228
X135509Y-75946
X135534Y-61214
X137160Y-79756
X138252Y-63753
X139675Y-61025
X140335Y-144145
X140716Y-94996
X140894Y-61036
X141224Y-91948
X142240Y-89916
X143510Y-144145
X144043Y-71704
X146685Y-81915
X147396Y-69291
X147879Y-63807
X147955Y-81280
X148932Y-62904
X149479Y-90297
X150139Y-61544
X150372Y-62988
X150495Y-111125
X151130Y-98425
X151130Y-109220
X151130Y-131445
X151536Y-61366
X151804Y-66957
X152396Y-111121
X152569Y-65185
X152764Y-67235
X153645Y-65264
X153670Y-98425
X153670Y-102870
X154574Y-68809
X154610Y-67208
X154940Y-80010
X154940Y-104140
X155448Y-91694
X156210Y-80010
X156210Y-85090
X157480Y-73660
X157480Y-86995
X157759Y-67945
X159296Y-69037
X159385Y-99060
X159385Y-103505
X159537Y-79477
X160579Y-67056
X160655Y-83820
X162560Y-66040
X162916Y-85954
X163914Y-73039
X164445Y-70505
X164465Y-75565
X168417Y-90448
T4
X34036Y-60198
X35052Y-66040
X35358Y-67766
X36068Y-62484
X36068Y-64770
X36778Y-67766
X39878Y-66040
X41148Y-61214
X42164Y-62230
X45085Y-99060
X45212Y-62230
X45466Y-63500
X45515Y-61018
X46736Y-75692
X47498Y-93218
X48260Y-99060
X49530Y-102235
X49530Y-110490
X49784Y-76454
X50038Y-91440
X50292Y-87884
X50292Y-143764
X50800Y-96520
X51308Y-99695
X51308Y-111760
X51562Y-68834
X51562Y-78232
X52590Y-97575
X52832Y-94488
X53340Y-80010
X53467Y-152400
X53594Y-87884
X53975Y-113665
X54102Y-147955
X54864Y-91186
X54864Y-99568
X55118Y-83312
X55118Y-85852
X55118Y-96647
X55372Y-63500
X57150Y-106680
X59690Y-132080
X59713Y-121766
X61468Y-126365
X62865Y-120650
X63379Y-129298
X65200Y-120650
X65786Y-131953
X65786Y-163221
X65786Y-166101
X66040Y-59182
X67259Y-127062
X68453Y-120904
X68580Y-124460
X68580Y-128778
X70104Y-55118
X70358Y-133858
X71120Y-123190
X71501Y-121158
X72771Y-171577
X75311Y-123190
X75565Y-120650
X75565Y-121920
X75692Y-49530
X76200Y-62230
X77470Y-185928
X78105Y-63754
X79121Y-46101
X79248Y-59436
X79659Y-122525
X80010Y-178689
X80137Y-176403
X81077Y-120929
X81534Y-124968
X81661Y-43561
X82042Y-129438
X82042Y-161798
X82296Y-143002
X82677Y-139827
X82677Y-141224
X82766Y-134620
X82804Y-132334
X83058Y-167640
X83566Y-197206
X83566Y-200152
X83629Y-192087
X83769Y-121056
X83947Y-125095
X84074Y-129032
X84120Y-141419
X84328Y-62484
X85425Y-134044
X85522Y-123063
X85725Y-140994
X85852Y-132334
X86341Y-143656
X86614Y-129540
X86741Y-62484
X86868Y-135890
X86995Y-59055
X87884Y-134874
X87884Y-144018
X88011Y-195453
X88254Y-147841
X88900Y-128524
X89154Y-140843
X89408Y-122809
X89916Y-157353
X90424Y-144018
X91186Y-129032
X91440Y-200025
X91948Y-141097
X92710Y-135382
X93853Y-125692
X93853Y-128817
X94132Y-144018
X94234Y-47244
X94742Y-120650
X96012Y-59436
X96393Y-125692
X96393Y-128817
X97282Y-144018
X97536Y-120650
X97790Y-135890
X97790Y-142494
X98425Y-42785
X98425Y-59055
X99060Y-55880
X100330Y-135890
X100330Y-142240
X100584Y-62484
X100787Y-143459
X101549Y-142342
X103251Y-134239
X104648Y-185928
X105283Y-196850
X106045Y-132207
X108712Y-165608
X112268Y-59436
X112522Y-57150
X114148Y-137160
X114300Y-59055
X114427Y-119380
X116713Y-176149
X117348Y-62484
X117348Y-125476
X118161Y-119380
X118364Y-124460
X118872Y-128524
X119380Y-59690
X119380Y-123190
X119876Y-126746
X120396Y-121920
X120904Y-125730
X121285Y-120650
X121285Y-171323
X121666Y-124535
X121920Y-134620
X122174Y-131826
X123190Y-124460
X123698Y-127508
X124460Y-120015
X124460Y-137160
X124587Y-167259
X124714Y-130668
X124968Y-128524
X125095Y-124460
X125730Y-133985
X126492Y-128778
X126924Y-144856
X127065Y-121920
X127065Y-123190
X127065Y-124460
X127127Y-60579
X127396Y-132716
X127762Y-134112
X128270Y-162052
X128279Y-62856
X128458Y-142099
X128524Y-135890
X128893Y-146164
X130175Y-139408
X130226Y-60122
X130277Y-148209
X130429Y-132588
X130683Y-135890
X131064Y-144653
X131651Y-128095
X132015Y-121920
X132080Y-123190
X132080Y-124460
X132461Y-158242
X133325Y-148539
X133350Y-130429
X133477Y-136652
X134211Y-149702
X134366Y-132207
X134449Y-145412
X134620Y-124856
X135270Y-140175
X135636Y-62901
X135763Y-135636
X135890Y-120015
X136296Y-142189
X137160Y-148082
X138126Y-127075
X138786Y-60122
X138811Y-149225
X138929Y-143401
X139065Y-118745
X139065Y-146685
X139192Y-96520
X139954Y-125222
X140132Y-130251
X140589Y-141224
X140589Y-147955
X140716Y-127508
X141209Y-111760
X141224Y-64516
X141592Y-125019
X141605Y-107950
X141974Y-102362
X142240Y-115570
X142263Y-114115
X142342Y-132994
X142595Y-126352
X142621Y-123317
X143281Y-60111
X143408Y-121223
X143510Y-108585
X143510Y-139700
X143764Y-84836
X143787Y-141048
X143815Y-66853
X143945Y-115802
X144272Y-87376
X144323Y-124676
X144780Y-119634
X144965Y-108134
X145288Y-64008
X145288Y-100076
X145288Y-102616
X145431Y-74932
X146050Y-78740
X146328Y-121283
X146414Y-72788
X146691Y-138159
X146952Y-120244
X147066Y-109474
X147066Y-112014
X147152Y-129857
X147320Y-84328
X147320Y-87376
X147320Y-94615
X147320Y-104140
X147320Y-139243
X147447Y-126619
X147815Y-137020
X148351Y-131163
X148590Y-65659
X148830Y-76914
X148844Y-101600
X149149Y-124562
X149225Y-78105
X149341Y-118607
X149606Y-74930
X149606Y-91948
X149969Y-121505
X150128Y-67191
X150470Y-133452
X150495Y-96901
X150890Y-86120
X150890Y-95250
X151130Y-76200
X151205Y-115010
X151304Y-83392
X152065Y-125706
X152273Y-133071
X152298Y-131803
X152400Y-100076
X153035Y-71755
X153035Y-74041
X153035Y-81661
X153060Y-61100
X153222Y-63440
X153225Y-130238
X153289Y-114427
X153543Y-94488
X153670Y-83312
X153670Y-92202
X153670Y-105410
X153728Y-79339
X154051Y-70993
X154305Y-115913
X154559Y-77724
X154779Y-64318
X155194Y-88138
X155346Y-124816
X155814Y-102919
X156703Y-84051
X156770Y-109526
X156885Y-68772
X158194Y-85923
X158496Y-77216
X159004Y-104750
X159291Y-82677
X159957Y-63564
X160223Y-107467
X160655Y-109563
X161036Y-74422
X161290Y-84836
X161290Y-87757
X161290Y-97155
X161292Y-78107
X161544Y-91440
X164405Y-78107
X164592Y-93472
X164592Y-96012
X165100Y-101092
X165378Y-105867
X167005Y-78740
X168516Y-83683
T5
X88905Y-40040
X91445Y-40040
X95885Y-39760
X98425Y-39760
X100965Y-39760
X104780Y-40040
X107320Y-40040
T6
X37041Y-57655
X38837Y-55859
X38837Y-59451
X40633Y-54063
X40633Y-57655
X42429Y-52267
X42429Y-55859
X44225Y-54063
X102743Y-119913
X105283Y-119913
X107823Y-119913
X110363Y-119913
X112669Y-133360
X112669Y-135900
X112669Y-138440
X112669Y-140980
X115209Y-133360
X115209Y-135900
X115209Y-138440
X115209Y-140980
X119576Y-139820
X121372Y-141616
X123168Y-143412
X123825Y-57770
X123825Y-60310
X123825Y-62850
X124126Y-46199
X124964Y-145208
X125922Y-47995
X126760Y-147004
X127719Y-49791
X129515Y-51587
X131311Y-53383
X133107Y-55180
X134903Y-56976
T7
X92329Y-146050
X107319Y-146050
T8
G00X59940Y-82066
M15
G01X60840Y-82066
M16
G05
G00X59940Y-84606
M15
G01X60840Y-84606
M16
G05
G00X59940Y-87146
M15
G01X60840Y-87146
M16
G05
G00X59940Y-89686
M15
G01X60840Y-89686
M16
G05
G00X59940Y-92226
M15
G01X60840Y-92226
M16
G05
G00X59940Y-94766
M15
G01X60840Y-94766
M16
G05
G00X59940Y-97306
M15
G01X60840Y-97306
M16
G05
G00X59940Y-99846
M15
G01X60840Y-99846
M16
G05
G00X59940Y-102386
M15
G01X60840Y-102386
M16
G05
G00X134450Y-82066
M15
G01X135350Y-82066
M16
G05
G00X134450Y-84616
M15
G01X135350Y-84616
M16
G05
G00X134450Y-99846
M15
G01X135350Y-99846
M16
G05
G00X134450Y-102386
M15
G01X135350Y-102386
M16
G05
T0
M30
