<?xml version="1.0" standalone="no"?>
<!DOCTYPE svg PUBLIC "-//W3C//DTD SVG 20010904//EN"
 "http://www.w3.org/TR/2001/REC-SVG-20010904/DTD/svg10.dtd">
<svg version="1.0" xmlns="http://www.w3.org/2000/svg"
 width="2000.000000pt" height="2000.000000pt" viewBox="0 0 2000.000000 2000.000000"
 preserveAspectRatio="xMidYMid meet">

<g transform="translate(0.000000,2000.000000) scale(0.100000,-0.100000)"
fill="#000000" stroke="none">
<path d="M0 10000 l0 -10000 10000 0 10000 0 0 10000 0 10000 -10000 0 -10000
0 0 -10000z m13710 9819 c36 -5 89 -21 118 -34 71 -33 157 -122 196 -204 l31
-66 3 -1010 3 -1010 49 -23 c107 -50 129 -175 48 -267 -16 -19 -45 -39 -63
-45 l-35 -12 0 -314 0 -314 40 -16 c139 -56 144 -245 7 -313 l-47 -23 0 -313
0 -313 33 -11 c79 -26 131 -125 108 -208 -14 -49 -57 -97 -106 -114 l-35 -13
0 -317 0 -317 31 -7 c60 -13 119 -99 119 -170 -1 -58 -67 -141 -127 -160 l-23
-6 0 -314 0 -313 47 -23 c80 -40 118 -121 93 -202 -14 -49 -70 -106 -111 -114
l-29 -5 0 -318 0 -318 25 -6 c14 -4 43 -23 65 -42 72 -65 77 -164 13 -235 -19
-21 -50 -44 -69 -51 l-34 -12 0 -317 0 -316 31 -7 c41 -8 94 -63 109 -113 25
-81 -13 -162 -93 -202 l-47 -23 0 -313 0 -313 33 -11 c56 -19 117 -101 117
-158 0 -70 -60 -155 -119 -168 l-31 -7 0 -318 0 -318 31 -7 c59 -13 119 -98
119 -168 0 -57 -61 -139 -117 -158 l-33 -11 0 -313 0 -313 47 -23 c80 -40 118
-121 93 -202 -15 -50 -68 -105 -109 -113 l-31 -6 0 -318 0 -318 25 -6 c14 -4
43 -23 65 -42 72 -65 77 -164 13 -235 -19 -21 -50 -44 -69 -51 l-34 -12 0
-317 0 -317 29 -5 c41 -8 97 -65 111 -114 25 -81 -13 -162 -93 -202 l-47 -23
0 -313 0 -314 23 -6 c60 -19 126 -102 127 -160 0 -71 -59 -157 -119 -170 l-31
-7 0 -317 0 -317 35 -13 c49 -17 92 -65 106 -114 23 -83 -29 -182 -108 -208
l-33 -11 0 -314 0 -314 40 -16 c139 -56 144 -245 7 -313 l-47 -23 0 -313 0
-313 35 -12 c18 -6 47 -26 63 -45 81 -92 59 -217 -48 -267 l-49 -23 -1 -985
c0 -801 -3 -995 -14 -1036 -43 -162 -170 -277 -336 -303 -91 -15 -7329 -15
-7420 0 -166 26 -293 141 -336 303 -11 41 -14 235 -14 1036 l-1 985 -49 23
c-107 50 -129 175 -48 267 16 19 45 39 63 45 l35 12 0 314 0 314 -40 16 c-139
56 -144 245 -7 313 l47 23 0 313 0 313 -33 11 c-79 26 -131 125 -108 208 14
49 57 97 106 114 l35 13 0 317 0 317 -31 7 c-60 13 -119 99 -119 170 1 58 67
141 128 160 l22 6 0 314 0 313 -47 23 c-80 40 -118 121 -93 202 14 49 70 106
111 114 l29 5 0 318 0 318 -25 6 c-14 4 -43 23 -65 42 -72 65 -77 164 -13 235
19 21 50 44 69 51 l34 12 0 317 0 317 -31 6 c-41 8 -94 63 -109 113 -25 81 13
162 93 202 l47 23 0 313 0 313 -33 11 c-56 19 -117 101 -117 158 0 70 60 155
119 168 l31 7 0 318 0 318 -31 7 c-59 13 -119 98 -119 168 0 57 61 139 117
158 l33 11 0 313 0 313 -47 23 c-80 40 -118 121 -93 202 15 50 68 105 109 113
l31 7 0 316 0 317 -34 12 c-19 7 -50 30 -69 51 -64 71 -59 170 13 235 22 19
51 38 65 42 l25 6 0 318 0 318 -29 5 c-41 8 -97 65 -111 114 -25 81 13 162 93
202 l47 23 0 313 0 314 -22 6 c-61 19 -127 102 -128 160 0 71 59 157 119 170
l31 7 0 317 0 317 -35 13 c-49 17 -92 65 -106 114 -23 83 29 182 108 208 l33
11 0 313 0 313 -47 23 c-137 68 -132 257 7 313 l40 16 0 314 0 314 -35 12
c-18 6 -47 26 -63 45 -81 92 -59 217 48 267 l49 23 1 985 c0 801 3 995 14
1036 42 157 171 277 326 303 81 13 7347 14 7430 0z"/>
<path d="M6219 19747 c-75 -31 -120 -67 -164 -132 -66 -95 -65 -71 -65 -1082
l0 -913 334 0 334 0 63 -33 c235 -121 210 -465 -40 -552 -36 -12 -103 -15
-368 -15 l-323 0 0 -184 0 -185 333 -3 c314 -3 334 -4 378 -24 66 -31 124 -87
155 -151 22 -44 27 -69 27 -127 0 -121 -61 -219 -171 -273 l-57 -28 -332 -3
-333 -3 0 -185 0 -184 323 0 c358 0 373 -2 459 -65 62 -46 110 -141 112 -223
2 -124 -55 -224 -163 -279 l-63 -33 -334 0 -334 0 0 -185 0 -185 303 0 c238 0
315 -3 361 -15 113 -30 192 -110 222 -225 27 -107 -5 -210 -91 -288 -86 -79
-105 -82 -476 -82 l-319 0 0 -184 0 -185 338 -3 337 -3 51 -27 c186 -98 226
-338 80 -483 -86 -86 -98 -89 -478 -93 l-328 -3 0 -184 0 -184 343 -3 342 -3
55 -31 c223 -126 199 -454 -40 -545 -46 -17 -81 -19 -375 -19 l-325 0 0 -184
0 -185 333 -3 c314 -3 334 -4 378 -24 158 -73 229 -258 156 -406 -32 -65 -89
-121 -156 -152 -44 -20 -63 -21 -378 -24 l-333 -3 0 -185 0 -184 318 0 c374 0
391 -3 475 -80 159 -146 127 -391 -64 -488 l-65 -33 -332 1 -332 1 0 -191 0
-191 332 1 332 1 65 -33 c191 -97 223 -342 64 -488 -84 -77 -101 -80 -475 -80
l-318 0 0 -184 0 -185 333 -3 c324 -3 333 -4 384 -27 108 -48 177 -157 177
-276 -1 -121 -63 -218 -172 -272 l-57 -28 -332 -3 -333 -3 0 -185 0 -184 325
0 c294 0 329 -2 375 -19 76 -29 125 -74 161 -147 73 -148 21 -318 -121 -398
l-55 -31 -342 -3 -343 -3 0 -184 0 -184 328 -3 c380 -4 392 -7 478 -93 146
-145 106 -385 -80 -483 l-51 -27 -337 -3 -338 -3 0 -185 0 -184 319 0 c371 0
390 -3 476 -82 86 -78 118 -181 91 -288 -30 -115 -109 -195 -222 -225 -46 -12
-123 -15 -361 -15 l-303 0 0 -185 0 -185 334 0 334 0 63 -33 c235 -121 210
-465 -40 -552 -36 -12 -103 -15 -368 -15 l-323 0 0 -184 0 -185 333 -3 c314
-3 334 -4 378 -24 202 -93 247 -355 87 -499 -22 -21 -61 -47 -87 -59 -44 -20
-64 -21 -378 -24 l-333 -3 0 -185 0 -184 323 0 c358 0 373 -2 459 -65 62 -46
110 -141 112 -223 2 -124 -55 -224 -163 -279 l-63 -33 -334 0 -334 0 0 -912
c0 -1012 -1 -988 65 -1083 44 -65 89 -101 164 -132 l56 -23 993 0 992 0 0 261
0 260 23 -3 22 -3 3 -257 2 -258 1690 0 1690 0 2 258 3 257 23 3 22 3 0 -260
0 -261 993 0 992 0 56 23 c75 31 120 67 164 132 66 95 65 71 65 1083 l0 912
-334 0 -334 0 -63 33 c-235 121 -210 465 40 552 36 12 103 15 368 15 l323 0 0
184 0 185 -332 3 c-315 3 -335 4 -379 24 -202 93 -247 355 -87 499 22 21 61
47 87 59 44 20 64 21 379 24 l332 3 0 185 0 184 -323 0 c-358 0 -373 2 -459
65 -62 46 -110 141 -112 223 -2 124 55 224 163 279 l63 33 334 0 334 0 0 185
0 185 -303 0 c-238 0 -315 3 -361 15 -113 30 -192 110 -222 225 -27 107 5 210
91 288 86 79 105 82 476 82 l319 0 0 184 0 185 -337 3 -338 3 -51 27 c-186 98
-226 338 -80 483 86 86 98 89 479 93 l327 3 0 184 0 184 -342 3 -343 3 -55 31
c-223 126 -199 454 40 545 46 17 81 19 375 19 l325 0 0 184 0 185 -332 3 -333
3 -57 28 c-109 54 -171 151 -172 272 0 119 62 218 172 272 l57 28 333 3 332 3
0 185 0 184 -318 0 c-374 0 -391 3 -475 80 -159 146 -127 391 64 488 l65 33
332 -1 332 -1 0 191 0 191 -332 -1 -332 -1 -65 33 c-191 97 -223 342 -64 488
84 77 101 80 475 80 l318 0 0 184 0 185 -332 3 c-325 3 -334 4 -385 27 -108
49 -177 157 -177 278 1 121 69 224 183 277 44 20 64 21 379 24 l332 3 0 185 0
184 -325 0 c-294 0 -329 2 -375 19 -76 29 -125 74 -161 147 -73 148 -21 318
121 398 l55 31 343 3 342 3 0 184 0 184 -327 3 c-381 4 -393 7 -479 93 -146
145 -106 385 80 483 l51 27 338 3 337 3 0 185 0 184 -319 0 c-371 0 -390 3
-476 82 -86 78 -118 181 -91 288 30 115 109 195 222 225 46 12 123 15 361 15
l303 0 0 185 0 185 -334 0 -334 0 -63 33 c-235 121 -210 465 40 552 36 12 103
15 368 15 l323 0 0 184 0 185 -332 3 -333 3 -57 28 c-109 54 -171 152 -171
272 0 120 62 218 171 272 l57 28 333 3 332 3 0 185 0 184 -323 0 c-358 0 -373
2 -459 65 -62 46 -110 141 -112 223 -2 123 55 223 159 276 33 17 61 31 62 32
1 0 9 17 18 37 15 35 14 37 -4 37 -12 0 -21 -8 -23 -22 -4 -28 -26 -35 -34
-11 -3 10 -9 25 -13 33 -5 8 -5 22 0 30 4 8 10 23 13 33 8 24 30 17 34 -11 3
-18 10 -22 37 -22 43 0 48 -9 30 -54 -19 -46 -19 -46 10 -46 19 0 28 8 39 33
7 18 27 45 45 59 l31 27 -35 3 c-20 2 -35 8 -35 13 0 13 110 19 122 7 5 -5
-16 -31 -47 -61 -30 -29 -55 -57 -55 -62 0 -10 2 -10 78 -14 48 -2 52 0 52 21
0 28 35 54 72 54 23 0 27 5 30 33 6 59 23 33 26 -40 l3 -73 139 0 140 0 0 913
c0 997 0 983 -58 1075 -37 56 -126 132 -156 132 -3 0 -7 -57 -8 -127 -3 -120
-4 -128 -23 -128 -19 0 -20 8 -23 128 l-3 127 -167 -2 -167 -3 0 -95 0 -95
-2635 0 -2635 0 -3 98 -3 97 -167 -2 -167 -3 -3 -127 c-2 -120 -4 -128 -22
-128 -19 0 -20 7 -20 145 l0 145 -737 0 -738 0 -56 -23z m2051 -737 l0 -380
-345 0 -345 0 0 380 0 380 345 0 345 0 0 -380z m5680 0 l0 -380 -340 0 -340 0
0 380 0 380 340 0 340 0 0 -380z m-7260 236 c0 -21 6 -36 15 -40 13 -5 15 -85
15 -636 0 -551 -2 -631 -15 -636 -8 -4 -15 -17 -15 -30 l0 -24 -305 0 -305 0
0 24 c0 13 -5 26 -11 28 -14 5 -14 1271 1 1276 5 2 10 19 10 38 l0 34 305 0
305 0 0 -34z m270 -360 c0 -7 -16 -33 -35 -57 -89 -112 -85 -240 11 -353 39
-45 41 -54 17 -63 -23 -9 -98 78 -118 137 -8 25 -16 76 -16 113 -1 57 4 78 30
132 43 86 111 142 111 91z m415 -31 c62 -81 81 -202 49 -303 -20 -63 -93 -148
-117 -139 -24 9 -21 24 9 54 35 35 71 104 79 152 10 59 -11 143 -48 192 -18
23 -36 47 -41 54 -5 7 -6 20 -3 29 9 23 37 7 72 -39z m-355 -41 c0 -8 -12 -31
-26 -49 -48 -63 -44 -161 7 -220 30 -34 31 -55 4 -55 -21 0 -73 66 -84 107
-14 49 -14 77 0 124 21 68 99 142 99 93z m267 -6 c51 -56 72 -136 53 -202 -15
-53 -64 -116 -91 -116 -27 0 -24 15 13 61 55 69 49 166 -14 236 -20 22 -17 43
6 43 7 0 22 -10 33 -22z m-95 -75 c10 -9 22 -30 28 -48 13 -40 1 -75 -37 -105
l-28 -22 -5 -246 c-5 -225 -7 -247 -22 -250 -17 -3 -18 14 -18 247 l0 250 -29
15 c-71 37 -59 150 19 179 22 8 72 -3 92 -20z m598 -509 l5 -319 333 -3 c322
-2 332 -3 332 -22 0 -19 -11 -19 -347 -22 -192 -2 -351 -2 -355 0 -10 4 -11
676 -1 686 24 24 28 -17 33 -320z m5995 -23 l0 -343 -349 1 c-192 1 -353 4
-357 7 -5 2 -6 11 -2 19 4 13 54 15 334 15 l329 0 0 313 c0 313 3 344 35 334
7 -3 10 -119 10 -346z m-5175 -396 l0 -225 -50 0 -50 0 0 225 0 225 50 0 50 0
0 -225z m190 0 l0 -225 -50 0 -50 0 0 225 0 225 50 0 50 0 0 -225z m200 0 l0
-225 -55 0 -55 0 0 225 0 225 55 0 55 0 0 -225z m190 0 l0 -225 -55 0 -55 0 0
225 0 225 55 0 55 0 0 -225z m190 0 l0 -225 -55 0 -55 0 0 225 0 225 55 0 55
0 0 -225z m190 0 l0 -225 -50 0 -50 0 0 225 0 225 50 0 50 0 0 -225z m190 0
l0 -225 -50 0 -50 0 0 225 0 225 50 0 50 0 0 -225z m200 0 l0 -225 -55 0 -55
0 0 225 0 225 55 0 55 0 0 -225z m190 0 l0 -225 -55 0 -55 0 0 225 0 225 55 0
55 0 0 -225z m190 0 l0 -225 -50 0 -50 0 0 225 0 225 50 0 50 0 0 -225z m190
0 l0 -225 -50 0 -50 0 0 225 0 225 50 0 50 0 0 -225z m200 0 l0 -225 -55 0
-55 0 0 225 0 225 55 0 55 0 0 -225z m190 0 l0 -225 -55 0 -55 0 0 225 0 225
55 0 55 0 0 -225z m190 0 l0 -225 -55 0 -55 0 0 225 0 225 55 0 55 0 0 -225z
m190 0 l0 -225 -50 0 -50 0 0 225 0 225 50 0 50 0 0 -225z m190 0 l0 -225 -50
0 -50 0 0 225 0 225 50 0 50 0 0 -225z m200 0 l0 -225 -55 0 -55 0 0 225 0
225 55 0 55 0 0 -225z m190 0 l0 -225 -55 0 -55 0 0 225 0 225 55 0 55 0 0
-225z m190 0 l0 -225 -55 0 -55 0 0 225 0 225 55 0 55 0 0 -225z m190 0 l0
-225 -50 0 -50 0 0 225 0 225 50 0 50 0 0 -225z m190 0 l0 -225 -50 0 -50 0 0
225 0 225 50 0 50 0 0 -225z m200 0 l0 -225 -55 0 -55 0 0 225 0 225 55 0 55
0 0 -225z m190 0 l0 -225 -55 0 -55 0 0 225 0 225 55 0 55 0 0 -225z m190 0
l0 -225 -50 0 -50 0 0 225 0 225 50 0 50 0 0 -225z m-4985 -45 c3 -6 -5 -14
-19 -20 -22 -8 -26 -16 -26 -50 0 -26 4 -39 10 -35 6 4 18 4 26 1 13 -5 9 -12
-15 -37 -17 -17 -35 -28 -41 -24 -5 3 -10 37 -10 76 0 62 -2 69 -20 69 -11 0
-20 7 -20 15 0 11 13 15 54 15 30 0 58 -5 61 -10z m143 -86 l-3 -79 -38 -3
c-45 -4 -77 19 -77 54 0 26 34 54 67 54 19 0 23 6 23 28 0 16 3 32 7 36 16 16
24 -16 21 -90z m102 -364 l0 -70 -110 0 -110 0 0 70 0 70 110 0 110 0 0 -70z
m340 -10 l0 -70 -110 0 -110 0 0 70 0 70 110 0 110 0 0 -70z m340 0 l0 -70
-110 0 -110 0 0 70 0 70 110 0 110 0 0 -70z m340 0 l0 -70 -110 0 -110 0 0 70
0 70 110 0 110 0 0 -70z m340 0 l0 -70 -110 0 -110 0 0 70 0 70 110 0 110 0 0
-70z m340 0 l0 -70 -110 0 -110 0 0 70 0 70 110 0 110 0 0 -70z m338 3 l-3
-68 -99 -3 c-73 -2 -102 1 -108 10 -9 16 -11 112 -1 121 3 4 53 7 110 7 l104
0 -3 -67z m346 51 c9 -25 7 -83 -4 -105 -9 -17 -22 -19 -105 -19 -106 0 -115
6 -115 74 0 65 2 66 115 66 85 0 104 -3 109 -16z m-2384 -369 l0 -75 -110 0
-110 0 0 75 0 75 110 0 110 0 0 -75z m340 -10 l0 -75 -110 0 -110 0 0 75 0 75
110 0 110 0 0 -75z m340 0 l0 -75 -110 0 -110 0 0 75 0 75 110 0 110 0 0 -75z
m340 0 l0 -75 -110 0 -110 0 0 75 0 75 110 0 110 0 0 -75z m340 0 l0 -75 -110
0 -110 0 0 75 0 75 110 0 110 0 0 -75z m340 0 l0 -75 -110 0 -110 0 0 75 0 75
110 0 110 0 0 -75z m338 6 c2 -45 -1 -67 -10 -72 -21 -14 -182 -11 -196 3 -16
16 -15 111 0 126 9 9 42 12 108 10 l95 -3 3 -64z m342 50 c5 -11 10 -36 10
-56 0 -69 -9 -75 -115 -75 -106 0 -115 6 -115 75 0 69 9 75 115 75 83 0 96 -2
105 -19z m-3375 -221 l0 -105 -65 0 -65 0 -3 94 c-1 52 0 101 2 108 4 10 22
13 68 11 l63 -3 0 -105z m330 0 l0 -105 -65 0 -65 0 -3 94 c-1 52 0 101 2 108
4 10 22 13 68 11 l63 -3 0 -105z m2850 -59 c0 -42 -25 -62 -55 -43 -25 15
-635 18 -645 2 -11 -17 -44 -11 -55 11 -7 11 -9 32 -6 45 l6 24 378 -2 377 -3
0 -34z m-2185 -96 l0 -75 -110 0 -110 0 0 75 0 75 110 0 110 0 0 -75z m-530
-15 c0 -5 0 -163 0 -350 0 -187 0 -345 0 -350 0 -7 -70 -9 -202 -8 l-203 3 -3
345 c-1 190 0 351 3 357 6 16 405 19 405 3z m1169 -14 c8 -9 11 -47 9 -107
l-3 -94 -64 -3 c-45 -2 -67 1 -72 10 -5 7 -9 50 -9 95 0 61 4 86 16 97 20 20
107 22 123 2z m315 8 c13 -5 16 -25 16 -111 l0 -104 -67 3 -68 3 -3 94 c-2 60
1 98 9 107 12 14 84 19 113 8z m706 -109 l0 -105 -270 0 -270 0 0 105 0 105
270 0 270 0 0 -105z m830 0 l0 -105 -275 0 -275 0 0 105 0 105 275 0 275 0 0
-105z m398 -38 l3 -68 -108 3 -108 3 -3 53 c-5 78 3 83 117 80 l96 -3 3 -68z
m-1228 -327 l0 -100 -270 0 -270 0 0 100 0 100 270 0 270 0 0 -100z m830 0 l0
-100 -275 0 -275 0 0 100 0 100 275 0 275 0 0 -100z m395 0 l0 -65 -105 0
-105 0 -3 54 c-5 83 -7 82 110 79 l103 -3 0 -65z m-860 -195 c17 -9 38 -27 45
-40 l13 -25 204 0 203 0 0 -105 0 -105 -200 0 -200 0 0 -45 c0 -47 7 -53 40
-33 30 19 55 -1 55 -43 0 -33 -1 -34 -48 -37 l-47 -3 2 -577 3 -577 48 -3 47
-3 0 -110 0 -109 -70 0 -69 0 -3 88 -3 87 -92 3 -93 3 0 -91 0 -90 -70 0 -70
0 0 90 0 90 -310 0 -310 0 0 -90 0 -90 -75 0 -75 0 0 90 0 90 -90 0 -90 0 0
-90 0 -90 -70 0 -70 0 0 90 0 90 -104 0 c-93 0 -106 2 -119 19 -10 16 -27 21
-78 23 l-64 3 -3 44 c-6 83 -1 90 76 93 l67 3 0 75 0 75 -75 3 c-44 2 -78 8
-82 15 -4 7 -8 32 -8 57 0 25 4 50 8 57 4 7 38 13 82 15 l75 3 3 88 3 87 -74
0 c-43 0 -78 5 -85 12 -16 16 -15 113 1 126 7 6 44 12 82 14 l70 3 1 268 c1
147 4 274 8 282 3 10 19 15 46 15 l40 0 0 84 c0 64 4 88 16 100 19 19 104 22
122 4 8 -8 12 -45 12 -100 l0 -88 90 0 90 0 0 88 c0 55 4 92 12 100 13 13 96
16 115 4 8 -5 13 -41 15 -97 l3 -90 73 -3 72 -3 0 96 0 95 270 0 269 0 3 -92
3 -93 138 -3 137 -3 0 25 c0 15 -8 30 -20 36 -75 40 -66 161 15 196 39 17 50
17 90 -1z m-2687 -179 c3 -112 1 -116 -65 -116 -73 0 -73 0 -73 117 l0 104 68
-3 67 -3 3 -99z m330 5 c2 -60 -1 -98 -9 -107 -7 -9 -31 -14 -65 -14 -67 0
-74 11 -74 114 0 107 0 107 79 104 l66 -3 3 -94z m2667 -216 c0 -27 -3 -30
-30 -30 -21 0 -31 5 -33 18 -5 25 17 49 42 45 16 -2 21 -10 21 -33z m-67 -334
c2 -60 -1 -98 -9 -107 -6 -8 -30 -14 -54 -14 -75 0 -75 0 -75 117 l0 104 68
-3 67 -3 3 -94z m330 -1 c2 -80 0 -97 -15 -107 -21 -16 -105 -17 -121 -1 -13
13 -17 189 -5 202 4 4 37 6 73 4 l65 -3 3 -95z m-103 -705 l0 -70 -94 -3 c-60
-2 -98 1 -107 9 -18 14 -19 110 -2 127 9 9 42 12 108 10 l95 -3 0 -70z m1595
5 c0 -13 -7 -20 -20 -20 -13 0 -20 7 -20 20 0 13 7 20 20 20 13 0 20 -7 20
-20z m-3955 -100 l0 -65 -105 0 -105 0 -3 54 c-5 83 -7 82 110 79 l103 -3 0
-65z m2363 -232 l3 -68 -104 0 c-117 0 -117 0 -117 74 0 62 10 67 120 64 l95
-3 3 -67z m-2363 -98 l0 -65 -105 0 -105 0 -3 54 c-5 83 -7 82 110 79 l103 -3
0 -65z m343 3 l-3 -68 -99 -3 c-73 -2 -102 1 -108 10 -9 16 -11 112 -1 121 3
4 53 7 110 7 l104 0 -3 -67z m262 -443 l0 -110 -30 0 -30 0 0 110 0 110 30 0
30 0 0 -110z m160 0 l0 -110 -35 0 -35 0 0 110 0 110 35 0 35 0 0 -110z m150
0 l0 -110 -35 0 -35 0 0 110 0 110 35 0 35 0 0 -110z m160 0 l0 -110 -35 0
-35 0 0 110 0 110 35 0 35 0 0 -110z m150 0 l0 -110 -35 0 -35 0 0 110 0 110
35 0 35 0 0 -110z m150 0 l0 -110 -30 0 -30 0 0 110 0 110 30 0 30 0 0 -110z
m160 0 l0 -110 -35 0 -35 0 0 110 0 110 35 0 35 0 0 -110z m150 0 l0 -110 -35
0 -35 0 0 110 0 110 35 0 35 0 0 -110z m150 0 l0 -110 -30 0 -30 0 0 110 0
110 30 0 30 0 0 -110z m160 0 l0 -110 -35 0 -35 0 0 110 0 110 35 0 35 0 0
-110z m150 0 l0 -110 -35 0 -35 0 0 110 0 110 35 0 35 0 0 -110z m160 0 l0
-110 -35 0 -35 0 0 110 0 110 35 0 35 0 0 -110z m150 0 l0 -110 -35 0 -35 0 0
110 0 110 35 0 35 0 0 -110z m150 0 l0 -110 -30 0 -30 0 0 110 0 110 30 0 30
0 0 -110z m-2123 44 c8 -23 -238 -269 -261 -261 -14 5 -16 26 -16 135 0 71 3
132 7 135 3 4 64 7 135 7 109 0 130 -2 135 -16z m2458 -119 c0 -123 -1 -130
-20 -130 -19 0 -20 8 -23 113 l-3 112 -114 0 c-109 0 -115 1 -115 20 0 20 5
20 138 18 l137 -3 0 -130z m-2867 -181 c42 -29 17 -104 -35 -104 -20 0 -53 38
-53 60 0 22 33 60 53 60 7 0 23 -7 35 -16z m302 -49 l0 -35 -110 0 -110 0 0
35 0 35 110 0 110 0 0 -35z m2620 0 l0 -35 -110 0 -110 0 0 35 0 35 110 0 110
0 0 -35z m-3112 -282 l2 -203 -360 0 -360 0 0 198 c0 109 3 202 7 205 4 4 164
6 357 5 l351 -3 3 -202z m-1124 161 c13 -5 16 -25 16 -111 l0 -104 -67 3 -68
3 -3 94 c-2 60 1 98 9 107 12 14 84 19 113 8z m334 -2 c9 -6 12 -35 10 -108
l-3 -99 -67 -3 -68 -3 0 105 c0 74 4 106 13 109 20 9 101 7 115 -1z m1282 -32
l0 -30 -110 0 -110 0 0 30 0 30 110 0 110 0 0 -30z m2620 0 l0 -30 -110 0
-110 0 0 30 0 30 110 0 110 0 0 -30z m-660 -845 l0 -765 -760 0 -760 0 0 765
0 765 760 0 760 0 0 -765z m-1960 690 l0 -35 -110 0 -110 0 0 35 0 35 110 0
110 0 0 -35z m2620 0 l0 -35 -110 0 -110 0 0 35 0 35 110 0 110 0 0 -35z
m-2620 -150 l0 -35 -110 0 -110 0 0 35 0 35 110 0 110 0 0 -35z m2620 0 l0
-35 -110 0 -110 0 0 35 0 35 110 0 110 0 0 -35z m-4222 -108 l3 -108 -68 3
-68 3 -3 94 c-3 115 2 123 77 119 l56 -3 3 -108z m327 3 l0 -105 -65 0 -65 0
-3 94 c-1 52 0 101 2 108 4 10 22 13 68 11 l63 -3 0 -105z m265 -75 l0 -115
-70 0 -70 0 0 115 0 115 70 0 70 0 0 -115z m330 0 l0 -115 -70 0 -70 0 0 115
0 115 70 0 70 0 0 -115z m680 20 l0 -35 -110 0 -110 0 0 35 0 35 110 0 110 0
0 -35z m2620 0 l0 -35 -110 0 -110 0 0 35 0 35 110 0 110 0 0 -35z m-2620
-150 l0 -35 -110 0 -110 0 0 35 0 35 110 0 110 0 0 -35z m2620 0 l0 -35 -110
0 -110 0 0 35 0 35 110 0 110 0 0 -35z m-4222 -142 l-3 -108 -53 -3 c-76 -4
-82 3 -82 113 0 50 3 95 7 98 3 4 35 7 70 7 l64 0 -3 -107z m327 -3 l0 -105
-65 0 -65 0 -3 94 c-1 52 0 101 2 108 4 10 22 13 68 11 l63 -3 0 -105z m260
-70 l0 -105 -44 -3 c-90 -7 -91 -5 -91 107 0 54 3 101 7 105 4 4 34 6 68 4
l60 -3 0 -105z m333 11 c3 -115 -2 -123 -77 -119 l-56 3 -3 108 -3 108 68 -3
68 -3 3 -94z m682 49 l0 -30 -110 0 -110 0 0 30 0 30 110 0 110 0 0 -30z
m2620 0 l0 -30 -110 0 -110 0 0 30 0 30 110 0 110 0 0 -30z m-2620 -155 l0
-35 -110 0 -110 0 0 35 0 35 110 0 110 0 0 -35z m2620 0 l0 -35 -110 0 -110 0
0 35 0 35 110 0 110 0 0 -35z m-2620 -150 l0 -35 -110 0 -110 0 0 35 0 35 110
0 110 0 0 -35z m2620 0 l0 -35 -110 0 -110 0 0 35 0 35 110 0 110 0 0 -35z
m-2620 -155 l0 -30 -110 0 -110 0 0 30 0 30 110 0 110 0 0 -30z m2620 0 l0
-30 -110 0 -110 0 0 30 0 30 110 0 110 0 0 -30z m-2620 -155 l0 -35 -110 0
-110 0 0 35 0 35 110 0 110 0 0 -35z m2620 0 l0 -35 -110 0 -110 0 0 35 0 35
110 0 110 0 0 -35z m-2620 -150 l0 -35 -110 0 -110 0 0 35 0 35 110 0 110 0 0
-35z m2620 0 l0 -35 -110 0 -110 0 0 35 0 35 110 0 110 0 0 -35z m-2620 -160
l0 -35 -110 0 -110 0 0 35 0 35 110 0 110 0 0 -35z m2620 0 l0 -35 -110 0
-110 0 0 35 0 35 110 0 110 0 0 -35z m449 -39 c8 -9 11 -47 9 -107 l-3 -94
-64 -3 c-45 -2 -67 1 -72 10 -5 7 -9 50 -9 95 0 61 4 86 16 97 20 20 107 22
123 2z m315 8 c13 -5 16 -25 16 -111 l0 -104 -67 3 -68 3 -3 94 c-2 60 1 98 9
107 12 14 84 19 113 8z m-3384 -119 l0 -35 -110 0 -110 0 0 35 0 35 110 0 110
0 0 -35z m2620 0 l0 -35 -110 0 -110 0 0 35 0 35 110 0 110 0 0 -35z m-2742
-212 l3 -112 112 -3 c92 -2 112 -6 112 -18 0 -12 -23 -16 -125 -20 -69 -3
-131 -4 -137 -2 -10 3 -13 38 -13 131 0 70 3 131 7 135 4 4 14 5 23 4 12 -3
16 -24 18 -115z m2690 -19 c2 -100 0 -133 -10 -135 -7 -2 -70 -3 -140 -1 -119
3 -128 5 -128 23 0 18 8 19 115 19 l115 0 0 108 c0 60 3 112 7 116 4 4 14 5
23 4 12 -3 15 -25 18 -134z m-2338 -74 l0 -110 -30 0 -30 0 0 110 0 110 30 0
30 0 0 -110z m160 0 l0 -110 -35 0 -35 0 0 110 0 110 35 0 35 0 0 -110z m150
0 l0 -110 -35 0 -35 0 0 110 0 110 35 0 35 0 0 -110z m160 0 l0 -110 -35 0
-35 0 0 110 0 110 35 0 35 0 0 -110z m150 0 l0 -110 -35 0 -35 0 0 110 0 110
35 0 35 0 0 -110z m150 0 l0 -110 -30 0 -30 0 0 110 0 110 30 0 30 0 0 -110z
m160 0 l0 -110 -35 0 -35 0 0 110 0 110 35 0 35 0 0 -110z m150 0 l0 -110 -35
0 -35 0 0 110 0 110 35 0 35 0 0 -110z m150 0 l0 -110 -30 0 -30 0 0 110 0
110 30 0 30 0 0 -110z m160 0 l0 -110 -35 0 -35 0 0 110 0 110 35 0 35 0 0
-110z m150 0 l0 -110 -35 0 -35 0 0 110 0 110 35 0 35 0 0 -110z m160 0 l0
-110 -35 0 -35 0 0 110 0 110 35 0 35 0 0 -110z m150 0 l0 -110 -35 0 -35 0 0
110 0 110 35 0 35 0 0 -110z m150 0 l0 -110 -30 0 -30 0 0 110 0 110 30 0 30
0 0 -110z m-1172 -512 l3 -68 -104 0 c-116 0 -117 0 -117 70 0 71 1 71 114 68
l101 -3 3 -67z m1980 -145 c5 -17 -26 -29 -40 -15 -6 6 -7 15 -3 22 9 14 37 9
43 -7z m-1980 -180 l-3 -68 -94 -3 c-60 -2 -98 1 -107 9 -8 6 -14 30 -14 54 0
75 0 75 117 75 l104 0 -3 -67z m1147 -153 l30 -30 3 -153 c2 -92 -1 -167 -7
-189 -24 -80 -119 -106 -180 -49 l-31 29 0 179 c0 197 4 212 64 239 42 19 85
10 121 -26z m449 26 c62 -26 66 -40 66 -239 l0 -179 -29 -29 c-37 -37 -104
-41 -144 -8 -41 31 -49 78 -45 246 3 152 3 152 32 182 25 26 38 33 79 40 4 0
23 -5 41 -13z m490 0 c61 -26 66 -41 66 -229 0 -104 -4 -177 -11 -190 -33 -64
-116 -77 -171 -28 l-33 29 0 180 c0 179 0 181 25 207 42 45 72 53 124 31z
m491 0 c57 -24 65 -53 65 -242 l0 -166 -34 -34 c-28 -28 -42 -34 -76 -34 -34
0 -48 6 -76 34 l-34 34 0 166 c0 187 8 217 63 241 41 18 50 18 92 1z m-3628
-202 c8 -21 -13 -42 -28 -27 -13 13 -5 43 11 43 6 0 13 -7 17 -16z m877 -30
c12 -11 16 -36 16 -97 0 -45 -4 -88 -9 -95 -5 -9 -27 -12 -72 -10 l-64 3 -3
94 c-2 60 1 98 9 107 16 20 103 18 123 -2z m320 10 c13 -5 16 -25 16 -110 l0
-104 -70 0 -70 0 0 104 c0 74 4 106 13 109 18 8 93 8 111 1z m274 -2 c9 -6 12
-35 10 -108 l-3 -99 -67 -3 -68 -3 0 105 c0 74 4 106 13 109 20 9 101 7 115
-1z m331 -6 c8 -9 11 -47 9 -107 l-3 -94 -64 -3 c-45 -2 -67 1 -72 10 -5 7 -9
50 -9 95 0 61 4 86 16 97 20 20 107 22 123 2z m-2831 -162 c27 -19 52 -65 52
-96 0 -62 -69 -116 -134 -104 -54 10 -86 50 -86 107 0 40 5 52 31 78 24 25 39
31 73 31 23 0 52 -7 64 -16z m1607 -1109 l0 -990 -607 -3 c-404 -1 -608 1
-608 8 0 5 0 449 0 985 0 536 0 980 0 985 0 7 204 9 608 8 l607 -3 0 -990z
m3313 -97 c1 -690 -1 -1038 -8 -1038 -5 0 -469 0 -1030 0 -561 0 -1024 0
-1030 0 -11 0 -15 2062 -3 2073 3 4 470 6 1037 5 l1031 -3 3 -1037z m-4627
903 c52 -53 34 -147 -33 -170 -19 -7 -141 -11 -325 -11 -315 0 -333 2 -367 52
-19 27 -20 74 -2 107 27 49 39 50 379 51 l319 0 29 -29z m2108 14 c64 -33 65
-130 2 -172 -33 -23 -38 -23 -331 -23 -186 0 -309 4 -328 11 -40 14 -62 49
-62 99 0 33 6 48 29 71 l29 29 317 0 c257 0 321 -3 344 -15z m-2108 -504 c41
-41 41 -98 0 -143 l-29 -33 -299 -3 c-200 -2 -310 0 -336 8 -41 12 -77 58 -77
98 0 30 25 78 47 91 11 7 140 11 341 11 l324 0 29 -29z m2110 19 c23 -13 49
-61 49 -92 0 -40 -36 -86 -77 -98 -26 -8 -135 -10 -335 -8 l-297 3 -30 29
c-25 24 -31 38 -31 74 0 35 6 49 29 73 l29 29 322 0 c201 0 329 -4 341 -10z
m-2112 -504 c25 -24 31 -38 31 -74 0 -35 -6 -49 -29 -73 l-29 -29 -322 0
c-352 0 -355 1 -380 60 -15 36 -6 91 18 113 37 34 67 36 374 34 l307 -2 30
-29z m2096 20 c53 -23 79 -89 54 -139 -29 -57 -27 -57 -377 -57 l-324 0 -29
29 c-41 41 -41 106 -1 143 15 14 36 28 47 31 11 3 150 5 308 6 228 1 295 -2
322 -13z m-2127 -487 c40 -14 62 -49 62 -99 0 -33 -6 -48 -29 -71 l-29 -29
-322 0 -322 0 -34 34 c-26 26 -34 43 -34 69 0 38 30 84 64 97 32 13 607 12
644 -1z m2158 -20 c16 -16 28 -41 31 -67 5 -37 2 -45 -30 -77 l-35 -35 -322 0
-322 0 -29 29 c-49 50 -37 135 26 170 14 7 117 10 337 8 l318 -2 26 -26z m809
-599 l30 -30 3 -153 c2 -92 -1 -167 -7 -189 -26 -87 -135 -106 -193 -34 -15
18 -18 45 -18 197 0 165 1 178 21 203 43 55 112 58 164 6z m488 0 l27 -30 0
-178 c0 -153 -3 -180 -18 -198 -57 -71 -167 -52 -193 34 -7 23 -10 96 -7 189
3 145 4 153 28 178 14 15 34 31 45 36 36 16 88 2 118 -31z m457 25 c56 -29 60
-43 60 -233 l0 -174 -34 -34 c-56 -56 -135 -44 -171 26 -11 22 -15 66 -15 180
0 175 10 212 62 235 43 18 62 18 98 0z m490 0 c53 -27 60 -56 60 -241 l0 -166
-34 -34 c-28 -28 -42 -34 -76 -34 -34 0 -48 6 -76 34 l-34 34 0 166 c0 183 7
213 58 240 35 20 66 20 102 1z m-4720 -285 l0 -240 -140 0 -140 0 0 240 0 240
140 0 140 0 0 -240z m578 47 c2 -12 -3 -17 -17 -17 -15 0 -21 6 -21 21 0 25
33 22 38 -4z m2420 -63 c27 -19 52 -65 52 -96 0 -62 -69 -116 -134 -104 -54
10 -86 50 -86 107 0 40 5 52 31 78 24 25 39 31 73 31 23 0 52 -7 64 -16z
m-2568 -1056 c0 -523 3 -669 12 -660 18 18 812 17 825 0 10 -15 9 -189 -1
-207 -10 -16 -807 -16 -824 1 -9 9 -12 -54 -12 -285 l0 -297 -572 2 -573 3 -3
1045 c-1 575 0 1051 3 1058 3 9 128 12 575 12 l570 0 0 -672z m3375 492 l0
-105 -65 0 -65 0 -3 94 c-1 52 0 101 2 108 4 10 22 13 68 11 l63 -3 0 -105z
m330 0 l0 -105 -65 0 -65 0 -3 94 c-1 52 0 101 2 108 4 10 22 13 68 11 l63 -3
0 -105z m-3385 -15 l0 -75 -110 0 -110 0 0 75 0 75 110 0 110 0 0 -75z m350 0
l0 -75 -110 0 -110 0 0 75 0 75 110 0 110 0 0 -75z m728 -107 c19 -19 16 -173
-4 -192 -20 -20 -33 -20 -56 1 -15 13 -18 31 -18 98 0 85 8 105 45 105 12 0
26 -5 33 -12z m190 0 c8 -8 12 -45 12 -100 0 -85 -1 -89 -25 -100 -21 -9 -28
-8 -45 7 -17 15 -20 31 -20 92 0 41 5 83 10 94 12 21 50 25 68 7z m197 -92 c0
-83 -3 -101 -17 -110 -13 -8 -23 -8 -35 0 -15 9 -19 28 -21 99 -4 110 -1 117
40 113 l33 -3 0 -99z m195 85 c5 -11 10 -53 10 -94 0 -61 -3 -77 -20 -92 -17
-15 -24 -16 -45 -7 -24 11 -25 15 -25 100 0 55 4 92 12 100 18 18 56 14 68 -7z
m-732 -68 c3 -18 -1 -23 -19 -23 -31 0 -129 -97 -129 -127 0 -27 -34 -32 -44
-7 -11 29 -6 160 6 172 9 9 40 12 98 10 80 -3 85 -4 88 -25z m998 15 c5 -7 8
-52 6 -100 -3 -79 -5 -88 -23 -88 -17 0 -19 8 -19 75 l0 75 -69 0 c-70 0 -88
8 -77 35 7 20 169 21 182 3z m-1926 -163 l0 -75 -110 0 -110 0 0 75 0 75 110
0 110 0 0 -75z m350 0 l0 -75 -110 0 -110 0 0 75 0 75 110 0 110 0 0 -75z
m2740 -260 l0 -275 -100 0 -100 0 0 275 0 275 100 0 100 0 0 -275z m730 0 l0
-275 -100 0 -100 0 0 275 0 275 100 0 100 0 0 -275z m-2930 120 l0 -45 -110 0
-110 0 0 45 0 45 110 0 110 0 0 -45z m1098 33 c7 -7 12 -21 12 -33 0 -37 -19
-45 -110 -45 -54 0 -91 5 -98 12 -18 18 -15 55 6 67 24 15 175 14 190 -1z
m-328 -323 l0 -325 -325 0 -325 0 0 325 0 325 325 0 325 0 0 -325z m-785 125
c15 -17 16 -24 7 -45 -11 -24 -16 -25 -91 -25 l-80 0 15 -35 c8 -20 13 -44 12
-53 -3 -14 8 -18 66 -22 76 -6 101 -24 80 -57 -9 -15 -28 -19 -100 -21 -49 -2
-98 2 -109 7 -11 5 -37 15 -57 21 -44 13 -68 43 -68 82 0 59 38 98 95 98 20 0
25 5 25 25 0 34 24 44 111 45 63 0 79 -3 94 -20z m1106 10 c21 -12 25 -50 7
-68 -7 -7 -44 -12 -98 -12 -86 0 -110 8 -110 39 0 36 31 51 107 51 41 0 83 -5
94 -10z m828 -18 c6 -11 6 -24 0 -33 -5 -7 -9 -156 -9 -329 0 -173 4 -322 9
-329 6 -9 6 -22 0 -33 -13 -23 -74 -25 -83 -2 -3 9 -6 172 -6 364 0 192 3 355
6 364 9 23 70 21 83 -2z m1179 -342 c1 -195 0 -365 -3 -378 -5 -20 -11 -23
-41 -20 l-36 3 1 373 c0 204 0 375 1 378 0 3 17 4 38 2 l37 -3 3 -355z m-4058
120 l0 -190 -75 0 -75 0 0 190 0 190 75 0 75 0 0 -190z m250 0 l0 -190 -75 0
-75 0 0 190 0 190 75 0 75 0 0 -190z m250 0 l0 -190 -75 0 -75 0 0 190 0 190
75 0 75 0 0 -190z m1935 110 l0 -65 -105 0 -105 0 -3 54 c-5 83 -7 82 110 79
l103 -3 0 -65z m-371 -82 c8 -13 8 -23 0 -35 -9 -15 -28 -19 -99 -21 -90 -3
-115 5 -115 37 0 34 22 42 114 39 72 -2 91 -6 100 -20z m-1110 -190 c8 -13 8
-23 0 -35 -9 -15 -27 -18 -110 -18 -96 0 -99 1 -102 23 -7 44 13 53 111 50 73
-2 92 -6 101 -20z m1106 8 c6 -8 10 -25 8 -38 -3 -22 -7 -23 -97 -26 -96 -3
-121 5 -121 37 0 33 22 41 111 41 63 0 90 -4 99 -14z m369 0 c7 -9 11 -38 9
-73 l-3 -58 -85 -3 c-127 -4 -130 -3 -130 66 0 32 5 63 12 70 18 18 182 16
197 -2z m731 -396 l0 -270 -100 0 -100 0 0 270 0 270 100 0 100 0 0 -270z
m370 0 l0 -270 -105 0 -105 0 0 270 0 270 105 0 105 0 0 -270z m360 0 l0 -270
-100 0 -100 0 0 270 0 270 100 0 100 0 0 -270z m-3042 172 l3 -72 74 0 c67 0
75 -2 75 -19 0 -18 -9 -20 -91 -23 -49 -2 -94 1 -100 7 -10 10 -13 144 -3 170
4 9 14 15 23 13 13 -3 17 -18 19 -76z m1154 -9 c2 -52 -1 -92 -7 -98 -6 -6
-46 -9 -97 -7 -78 3 -88 6 -88 22 0 17 9 19 73 22 l72 3 3 73 c3 63 5 72 22
72 16 0 19 -10 22 -87z m-854 35 c7 -7 12 -44 12 -98 0 -91 -8 -110 -45 -110
-12 0 -26 5 -33 12 -15 15 -16 161 -2 189 12 21 50 25 68 7z m190 0 c7 -7 12
-44 12 -98 0 -92 -8 -110 -47 -110 -32 0 -43 28 -43 111 0 53 4 77 17 91 19
21 44 23 61 6z m191 -2 c8 -9 11 -46 9 -101 -2 -71 -6 -90 -20 -99 -13 -8 -23
-8 -35 0 -15 9 -19 28 -21 99 -3 91 5 115 38 115 10 0 23 -6 29 -14z m193 -3
c14 -13 18 -31 18 -90 0 -85 -11 -113 -43 -113 -39 0 -47 18 -47 110 0 86 8
110 39 110 8 0 23 -7 33 -17z m-1722 -388 l0 -185 -75 0 -75 0 0 185 0 185 75
0 75 0 0 -185z m250 0 l0 -185 -75 0 -75 0 0 185 0 185 75 0 75 0 0 -185z
m250 0 l0 -185 -75 0 -75 0 0 185 0 185 75 0 75 0 0 -185z m2358 136 c8 -4 12
-19 10 -32 -2 -19 -9 -24 -33 -24 -36 0 -47 31 -19 52 21 15 24 16 42 4z
m-1790 -129 c9 -6 12 -35 10 -108 l-3 -99 -67 -3 -68 -3 0 104 c0 57 3 107 7
110 9 10 105 8 121 -1z m330 -4 c13 -13 17 -163 6 -192 -9 -23 -129 -23 -138
0 -11 29 -7 179 6 192 16 16 110 16 126 0z m892 -378 l0 -110 -70 0 -70 0 0
110 0 110 70 0 70 0 0 -110z m330 0 l0 -110 -70 0 -70 0 0 110 0 110 70 0 70
0 0 -110z m530 91 c12 -23 13 -170 1 -189 -5 -9 -27 -12 -72 -10 l-64 3 -3 94
c-2 60 1 98 9 107 7 9 31 14 65 14 42 0 55 -4 64 -19z m318 11 c9 -6 12 -35
10 -108 l-3 -99 -65 0 -65 0 -3 99 c-3 113 -1 116 68 116 25 0 51 -4 58 -8z
m562 -102 l0 -110 -75 0 -75 0 0 110 0 110 75 0 75 0 0 -110z m320 0 l0 -110
-70 0 -70 0 0 110 0 110 70 0 70 0 0 -110z m-2747 48 c55 1 49 1 236 -3 79 -2
146 -6 148 -9 10 -10 6 -557 -5 -568 -14 -14 -750 -14 -764 0 -11 11 -15 558
-5 569 3 3 66 5 139 4 76 -1 139 3 148 9 8 6 24 7 35 3 11 -3 41 -6 68 -5z
m-875 -127 c2 -45 -1 -67 -10 -72 -19 -12 -166 -11 -189 1 -15 9 -19 22 -19
63 0 29 6 59 12 65 9 9 42 12 108 10 l95 -3 3 -64z m352 -6 l0 -75 -110 0
-110 0 0 75 0 75 110 0 110 0 0 -75z m-1172 -8 c2 -12 -3 -17 -17 -17 -12 0
-21 6 -21 13 0 31 32 34 38 4z m-588 -252 l0 -235 -140 0 -140 0 0 235 0 235
140 0 140 0 0 -235z m2970 -5 l0 -110 -70 0 -70 0 0 110 0 110 70 0 70 0 0
-110z m330 0 l0 -110 -70 0 -70 0 0 110 0 110 70 0 70 0 0 -110z m-2722 58 c3
-16 -7 -18 -112 -18 l-116 0 0 -30 c0 -20 -5 -30 -15 -30 -11 0 -15 12 -15 50
l0 51 127 -3 c112 -3 128 -5 131 -20z m300 -31 c3 -42 1 -48 -15 -45 -11 2
-19 14 -21 31 l-3 27 -108 0 c-59 0 -111 3 -114 7 -4 3 -2 12 5 20 8 10 39 13
132 11 l121 -3 3 -48z m2962 -57 l0 -110 -75 0 -75 0 0 110 0 110 75 0 75 0 0
-110z m320 0 l0 -110 -70 0 -70 0 0 110 0 110 70 0 70 0 0 -110z m638 88 c3
-16 -7 -18 -112 -18 l-116 0 0 -30 c0 -20 -5 -30 -15 -30 -11 0 -15 12 -15 50
l0 51 127 -3 c112 -3 128 -5 131 -20z m296 14 c2 -4 2 -27 -1 -50 -7 -50 -33
-59 -33 -12 l0 30 -109 0 c-105 0 -130 7 -116 30 7 12 251 14 259 2z m-4544
-167 l0 -115 -75 0 -75 0 0 115 0 115 75 0 75 0 0 -115z m250 0 l0 -115 -75 0
-75 0 0 115 0 115 75 0 75 0 0 -115z m3970 0 l0 -115 -75 0 -75 0 0 115 0 115
75 0 75 0 0 -115z m250 0 l0 -115 -75 0 -75 0 0 115 0 115 75 0 75 0 0 -115z
m-3612 33 l3 -68 -104 0 c-116 0 -117 0 -117 70 0 71 1 71 114 68 l101 -3 3
-67z m352 2 l0 -70 -110 0 -110 0 0 70 0 70 110 0 110 0 0 -70z m-1410 -140
l0 -30 116 0 c105 0 115 -2 112 -17 -3 -16 -19 -18 -131 -21 l-127 -3 0 51 c0
38 4 50 15 50 10 0 15 -10 15 -30z m528 -17 l-3 -48 -119 -3 c-114 -3 -155 6
-140 29 3 5 54 9 115 9 108 0 109 0 109 23 0 27 7 37 27 37 11 0 13 -12 11
-47z m3692 17 l0 -30 116 0 c105 0 115 -2 112 -17 -3 -16 -19 -18 -131 -21
l-127 -3 0 51 c0 38 4 50 15 50 10 0 15 -10 15 -30z m528 -17 l-3 -48 -124 -3
c-91 -2 -127 1 -132 10 -15 23 3 28 112 28 108 0 109 0 109 23 0 27 7 37 27
37 11 0 13 -12 11 -47z m-2864 -159 c9 -8 16 -20 16 -25 0 -5 61 -9 140 -9
133 0 140 -1 140 -20 0 -19 -7 -20 -115 -20 l-115 0 0 -30 c0 -23 -4 -30 -20
-30 -15 0 -20 7 -20 29 0 28 -2 29 -42 28 -24 -1 -76 0 -115 1 -66 2 -73 4
-73 22 0 18 7 20 60 20 43 0 60 4 60 13 0 35 56 50 84 21z m-2756 -31 c2 -8
-5 -13 -17 -13 -12 0 -21 6 -21 16 0 18 31 15 38 -3z m2510 -20 c-3 -16 -18
-18 -116 -21 l-112 -3 0 -29 c0 -20 -5 -30 -15 -30 -11 0 -15 12 -15 50 l0 50
131 0 c119 0 130 -2 127 -17z m842 -33 c0 -38 -4 -50 -15 -50 -10 0 -15 10
-15 30 l0 29 -112 3 c-98 3 -113 5 -116 21 -3 15 8 17 127 17 l131 0 0 -50z
m515 30 c0 -12 -20 -16 -112 -18 l-112 -3 -3 -27 c-2 -16 -10 -28 -20 -30 -15
-3 -18 4 -18 41 0 24 3 47 7 51 4 3 63 5 132 4 104 -3 126 -6 126 -18z m295
-30 c0 -38 -4 -50 -15 -50 -10 0 -15 10 -15 30 l0 30 -109 0 c-105 0 -130 7
-116 30 4 6 58 10 131 10 l124 0 0 -50z m1488 8 c-6 -18 -28 -21 -28 -4 0 9 7
16 16 16 9 0 14 -5 12 -12z m-3168 -128 l0 -110 -75 0 -75 0 0 110 0 110 75 0
75 0 0 -110z m250 0 l0 -110 -75 0 -75 0 0 110 0 110 75 0 75 0 0 -110z m290
0 l0 -110 -75 0 -75 0 0 110 0 110 75 0 75 0 0 -110z m250 0 l0 -110 -75 0
-75 0 0 110 0 110 75 0 75 0 0 -110z m560 0 l0 -110 -70 0 -70 0 0 110 0 110
70 0 70 0 0 -110z m250 0 l0 -110 -75 0 -75 0 0 110 0 110 75 0 75 0 0 -110z
m-3642 -62 c14 -14 17 -464 3 -486 -4 -8 -19 -12 -32 -10 l-24 3 -5 215 -5
215 -265 0 -265 0 -5 -215 -5 -215 -24 -3 c-13 -2 -28 2 -32 10 -5 7 -9 120
-9 250 0 180 3 238 13 241 6 3 154 6 328 6 232 1 318 -2 327 -11z m5376 6 c14
-5 16 -36 16 -243 0 -130 -4 -242 -9 -249 -4 -8 -19 -12 -32 -10 l-24 3 -5
215 -5 215 -265 0 -265 0 -5 -215 -5 -215 -24 -3 c-13 -2 -28 2 -32 10 -14 22
-11 472 3 486 9 9 95 12 324 12 172 0 319 -3 328 -6z m-5014 -74 l0 -70 -110
0 -110 0 0 70 0 70 110 0 110 0 0 -70z m4220 0 l0 -70 -110 0 -110 0 0 70 0
70 110 0 110 0 0 -70z m-2740 19 l0 -29 115 0 c96 0 115 -3 115 -15 0 -12 -20
-15 -115 -16 -63 -1 -121 -2 -127 -3 -14 -1 -24 65 -14 91 9 23 26 5 26 -28z
m540 5 l5 -29 115 -5 c69 -3 114 -9 113 -15 -2 -6 -57 -12 -128 -15 -163 -7
-380 2 -380 15 0 6 48 12 115 15 105 5 115 7 118 25 9 55 33 60 42 9z m528
-25 c-2 -28 -8 -44 -15 -43 -7 1 -65 2 -128 3 -95 1 -115 4 -115 16 0 12 19
15 115 15 l115 0 0 28 c0 16 3 32 7 36 14 14 24 -13 21 -55z m810 0 c-2 -28
-8 -44 -15 -43 -7 1 -65 2 -128 3 -95 1 -115 4 -115 16 0 12 19 15 115 15
l115 0 0 28 c0 16 3 32 7 36 14 14 24 -13 21 -55z m-520 18 l3 -27 109 0 c96
0 137 -8 112 -24 -4 -2 -64 -6 -132 -7 l-125 -3 -3 48 c-3 41 -1 47 15 44 11
-2 19 -14 21 -31z m-1973 -122 l0 -30 -95 0 c-83 0 -95 2 -98 18 -8 41 3 45
100 44 l93 -2 0 -30z m106 23 c0 -10 2 -10 6 0 3 7 25 12 59 12 36 0 54 -4 55
-12 0 -10 2 -10 6 0 3 7 23 12 48 12 42 0 43 -1 42 -32 l-2 -33 -111 -1 c-109
-2 -112 -1 -123 23 -6 13 -11 28 -11 33 0 15 30 12 31 -2z m2069 -23 l0 -36
-111 3 c-93 2 -112 5 -120 19 -22 42 -15 45 111 47 l120 2 0 -35z m295 0 l0
-30 -92 -3 c-97 -3 -109 2 -99 43 6 22 9 23 98 22 l93 -2 0 -30z m-3845 -150
l0 -175 -180 0 -180 0 0 175 0 175 180 0 180 0 0 -175z m5380 0 l0 -175 -180
0 -180 0 0 175 0 175 180 0 180 0 0 -175z m-3469 137 c13 -34 5 -38 -85 -34
-71 3 -76 5 -76 26 0 34 8 37 83 35 63 -2 69 -4 78 -27z m180 -1 c13 -32 3
-37 -61 -32 -52 3 -68 16 -56 46 4 12 18 15 57 14 44 -2 52 -6 60 -28z m204
-1 c0 -24 -3 -25 -63 -28 l-62 -3 0 31 0 31 63 -3 c59 -3 62 -4 62 -28z m175
10 c17 -31 4 -39 -53 -37 -49 2 -52 4 -55 30 -3 26 -2 27 47 27 40 0 52 -4 61
-20z m194 -2 c10 -38 8 -39 -51 -36 -55 3 -58 4 -61 31 -3 27 -2 27 51 27 48
0 55 -3 61 -22z m204 -5 c-3 -27 -6 -28 -61 -31 -44 -2 -59 1 -63 13 -13 34 3
45 66 45 61 0 61 0 58 -27z m200 -5 l3 -28 -80 0 c-78 0 -81 1 -81 23 0 35 8
38 85 35 68 -3 70 -4 73 -30z m172 2 c0 -30 -1 -30 -54 -30 -57 0 -81 15 -70
44 5 12 20 16 65 16 59 0 59 0 59 -30z m-1850 -305 l0 -215 -110 0 -110 0 0
215 0 215 110 0 110 0 0 -215z m310 0 l0 -215 -110 0 -110 0 0 215 0 215 110
0 110 0 0 -215z m190 0 l0 -215 -55 0 -55 0 0 215 0 215 55 0 55 0 0 -215z
m190 0 l0 -215 -50 0 -50 0 0 215 0 215 50 0 50 0 0 -215z m190 0 l0 -215 -50
0 -50 0 0 215 0 215 50 0 50 0 0 -215z m200 0 l0 -215 -55 0 -55 0 0 215 0
215 55 0 55 0 0 -215z m190 0 l0 -215 -55 0 -55 0 0 215 0 215 55 0 55 0 0
-215z m190 0 l0 -215 -50 0 -50 0 0 215 0 215 50 0 50 0 0 -215z m190 0 l0
-215 -50 0 -50 0 0 215 0 215 50 0 50 0 0 -215z m200 0 l0 -215 -55 0 -55 0 0
215 0 215 55 0 55 0 0 -215z m300 0 l0 -215 -110 0 -110 0 0 215 0 215 110 0
110 0 0 -215z m310 0 l0 -215 -110 0 -110 0 0 215 0 215 110 0 110 0 0 -215z
m-3340 100 l0 -75 -110 0 -110 0 0 75 0 75 110 0 110 0 0 -75z m408 60 c49
-21 81 -52 103 -100 16 -35 19 -68 19 -283 0 -197 -3 -250 -15 -280 -67 -160
-283 -160 -350 0 -12 30 -15 83 -15 280 0 215 3 248 19 283 44 96 146 138 239
100z m3313 4 c45 -16 87 -55 110 -104 16 -35 19 -68 19 -283 0 -197 -3 -250
-15 -280 -67 -160 -283 -160 -350 0 -22 55 -22 501 0 556 40 95 141 143 236
111z m499 -64 l0 -75 -110 0 -110 0 0 75 0 75 110 0 110 0 0 -75z m-5180 -532
c5 -175 6 -182 29 -207 l24 -26 217 0 217 0 24 26 c23 25 24 32 29 207 l5 182
24 3 c13 2 28 -2 32 -10 5 -7 9 -96 8 -198 l0 -185 -44 -48 -44 -48 -251 0
-251 0 -44 48 -44 48 -1 191 c0 105 3 194 7 198 4 4 19 6 33 4 l25 -3 5 -182z
m450 12 l0 -175 -180 0 -180 0 0 175 0 175 180 0 180 0 0 -175z m4930 -12 c5
-175 6 -182 29 -207 l24 -26 217 0 217 0 24 26 c23 25 24 32 29 207 l5 182 30
0 30 0 2 -195 2 -195 -44 -48 -44 -48 -251 0 -251 0 -44 48 -44 48 -1 182 c0
100 3 189 6 198 4 10 16 15 33 13 l26 -3 5 -182z m450 12 l0 -175 -180 0 -180
0 0 175 0 175 180 0 180 0 0 -175z m-4870 75 l0 -70 -110 0 -110 0 0 70 0 70
110 0 110 0 0 -70z m4220 0 l0 -70 -110 0 -110 0 0 70 0 70 110 0 110 0 0 -70z
m-4220 -325 l0 -75 -110 0 -110 0 0 75 0 75 110 0 110 0 0 -75z m4220 0 l0
-75 -110 0 -110 0 0 75 0 75 110 0 110 0 0 -75z m-3916 -21 c3 -9 6 -161 6
-339 0 -270 -2 -325 -15 -335 -8 -6 -19 -9 -25 -5 -11 7 -15 677 -3 688 11 12
31 7 37 -9z m3434 -328 c1 -210 -1 -343 -7 -349 -7 -7 -16 -6 -26 3 -13 11
-15 57 -15 335 0 178 3 331 6 340 4 9 14 15 23 13 14 -3 16 -39 19 -342z
m-4198 199 l0 -55 -230 0 -230 0 0 55 0 55 230 0 230 0 0 -55z m5380 0 l0 -55
-230 0 -230 0 0 55 0 55 230 0 230 0 0 -55z m-5890 -305 c0 -11 -6 -20 -14
-20 -18 0 -29 16 -21 30 11 18 35 11 35 -10z m6018 3 c5 -17 -26 -29 -40 -15
-6 6 -7 15 -3 22 9 14 37 9 43 -7z m-5258 -260 c4 -5 4 -33 1 -63 -4 -40 -10
-55 -21 -55 -10 0 -16 13 -18 43 l-3 42 -745 0 -744 0 0 -32 c0 -42 -13 -63
-34 -55 -12 5 -16 20 -16 65 0 32 2 61 4 63 8 8 1569 0 1576 -8z m5998 -53 c2
-49 0 -61 -14 -67 -21 -8 -34 13 -34 55 l0 32 -744 0 -745 0 -3 -42 c-2 -30
-8 -43 -18 -43 -11 0 -17 15 -21 55 -3 30 -2 60 2 65 5 7 278 9 791 8 l783 -2
3 -61z m-5380 5 c49 -21 81 -52 103 -100 16 -35 19 -68 19 -283 0 -197 -3
-250 -16 -280 -67 -162 -281 -162 -348 0 -23 55 -23 501 -1 556 21 49 52 81
100 103 49 23 94 24 143 4z m3320 0 c49 -21 81 -52 103 -100 16 -35 19 -68 19
-283 0 -197 -3 -250 -16 -280 -67 -162 -281 -162 -348 0 -23 55 -23 501 -1
556 21 49 52 81 100 103 49 23 94 24 143 4z m-5308 -235 l0 -130 -185 0 -185
0 0 130 0 130 185 0 185 0 0 -130z m1540 0 l0 -130 -190 0 -190 0 0 130 0 130
190 0 190 0 0 -130z m4460 0 l0 -130 -190 0 -190 0 0 130 0 130 190 0 190 0 0
-130z m1530 0 l0 -130 -185 0 -185 0 0 130 0 130 185 0 185 0 0 -130z m-6806
-29 c145 -71 208 -258 137 -406 -56 -117 -154 -177 -287 -176 -117 1 -214 62
-267 170 -77 156 -16 335 143 416 72 37 192 35 274 -4z m6006 -7 c97 -53 154
-152 154 -270 1 -170 -131 -304 -298 -305 -133 -1 -231 59 -287 176 -71 149
-8 335 138 406 90 43 205 41 293 -7z m-3192 -57 c4 -22 -27 -35 -38 -16 -10
15 7 42 24 36 6 -2 12 -11 14 -20z m-3704 -103 c3 -9 6 -57 6 -108 0 -92 -9
-120 -36 -109 -11 4 -14 30 -14 112 0 59 3 111 7 114 11 12 31 7 37 -9z m1534
-94 c3 -115 0 -132 -23 -124 -12 5 -15 26 -15 113 0 59 3 111 7 115 20 19 28
-9 31 -104z m4460 -5 c2 -78 -1 -111 -10 -116 -6 -4 -16 -5 -20 -3 -10 6 -11
218 -1 228 20 20 28 -9 31 -109z m1540 1 c2 -79 -1 -112 -10 -117 -27 -17 -38
12 -38 106 0 105 5 127 29 123 13 -3 16 -21 19 -112z m-7368 -316 l0 -130
-185 0 -185 0 0 130 0 130 185 0 185 0 0 -130z m1540 0 l0 -130 -190 0 -190 0
0 130 0 130 190 0 190 0 0 -130z m4460 0 l0 -130 -190 0 -190 0 0 130 0 130
190 0 190 0 0 -130z m1530 0 l0 -130 -185 0 -185 0 0 130 0 130 185 0 185 0 0
-130z m-3993 34 c8 -21 -13 -42 -28 -27 -13 13 -5 43 11 43 6 0 13 -7 17 -16z
m-3699 -242 l3 -42 744 0 744 0 3 42 c2 30 8 44 20 46 13 3 17 -8 20 -55 2
-32 1 -61 -2 -66 -5 -5 -1186 -11 -1570 -7 -11 0 -14 113 -3 124 19 18 38 -1
41 -42z m5990 0 l3 -42 744 0 744 0 3 43 c2 34 7 42 23 42 18 0 20 -8 23 -62
2 -39 -1 -63 -8 -63 -396 -4 -1565 2 -1570 7 -3 5 -4 34 -2 66 3 47 7 58 20
55 12 -2 18 -16 20 -46z"/>
<path d="M6102 18803 l3 -208 283 -3 282 -2 0 210 0 210 -285 0 -285 0 2 -207z"/>
<path d="M6104 18537 c-2 -7 -3 -98 -2 -202 l3 -190 283 -3 282 -2 0 205 0
205 -280 0 c-219 0 -282 -3 -286 -13z"/>
<path d="M7092 18698 c-7 -7 -12 -24 -12 -38 0 -33 17 -50 50 -50 33 0 50 17
50 50 0 33 -17 50 -50 50 -14 0 -31 -5 -38 -12z"/>
<path d="M8113 17659 c-17 -17 -4 -39 23 -39 19 0 24 5 24 25 0 27 -26 35 -47
14z"/>
<path d="M7400 16290 l0 -310 160 0 160 0 0 310 0 310 -160 0 -160 0 0 -310z
m280 160 l0 -110 -120 0 -120 0 0 110 0 110 120 0 120 0 0 -110z m0 -320 l0
-110 -120 0 -120 0 0 110 0 110 120 0 120 0 0 -110z"/>
<path d="M8772 15023 l3 -618 768 -3 767 -2 0 565 0 565 -40 0 -40 0 0 -210 0
-210 -266 0 -266 0 4 233 c3 243 9 277 48 277 10 0 22 -4 25 -10 4 -6 105 -10
271 -10 257 0 264 1 264 20 0 20 -7 20 -770 20 l-770 0 2 -617z m608 302 l0
-215 -265 0 -265 0 0 215 0 215 265 0 265 0 0 -215z m0 -610 l0 -215 -265 0
-265 0 0 215 0 215 265 0 265 0 0 -215z m850 0 l0 -215 -265 0 -265 0 0 215 0
215 265 0 265 0 0 -215z"/>
<path d="M8680 13613 l0 -77 70 69 c39 38 70 73 70 77 0 5 -31 8 -70 8 l-70 0
0 -77z"/>
<path d="M8460 13370 c0 -5 5 -10 10 -10 6 0 10 5 10 10 0 6 -4 10 -10 10 -5
0 -10 -4 -10 -10z"/>
<path d="M7640 13080 l0 -160 310 0 310 0 0 160 0 160 -310 0 -310 0 0 -160z
m260 10 l0 -120 -110 0 -110 0 0 120 0 120 110 0 110 0 0 -120z m320 0 l0
-120 -110 0 -110 0 0 120 0 120 110 0 110 0 0 -120z"/>
<path d="M8220 8595 l0 -945 558 2 557 3 0 940 0 940 -557 3 -558 2 0 -945z
m341 809 c24 -23 29 -36 29 -77 0 -42 -4 -53 -31 -78 -25 -24 -40 -29 -79 -29
-58 0 -95 30 -105 84 -21 110 105 178 186 100z m315 -723 c-9 -14 -33 -14 -41
-1 -4 6 -1 18 6 26 11 13 14 13 27 0 8 -8 11 -19 8 -25z"/>
<path d="M10677 9483 c-4 -3 -7 -449 -7 -990 l0 -983 990 0 990 0 -2 988 -3
987 -981 3 c-539 1 -984 -1 -987 -5z m971 -936 c2 -12 -3 -17 -17 -17 -15 0
-21 6 -21 21 0 25 33 22 38 -4z m-627 -693 c51 -46 44 -139 -15 -175 -60 -36
-131 -15 -162 49 -50 105 90 205 177 126z"/>
<path d="M7050 5615 l0 -1015 528 2 527 3 3 1013 2 1012 -530 0 -530 0 0
-1015z m740 880 c6 -8 9 -23 5 -35 -5 -16 -15 -20 -46 -20 l-39 0 0 -86 c0
-78 2 -85 18 -79 29 13 54 11 65 -6 15 -23 -104 -143 -133 -134 -18 6 -20 17
-22 153 l-3 147 -37 3 c-27 2 -39 9 -43 23 -13 40 10 49 120 49 77 0 106 -4
115 -15z m5 -880 l0 -410 -215 0 -215 0 -3 413 -2 412 217 -2 218 -3 0 -410z
m-304 -691 l54 -96 5 85 c5 89 15 111 46 105 18 -3 19 -17 22 -181 2 -158 1
-178 -14 -184 -27 -10 -45 8 -98 103 l-51 89 -3 -75 c-3 -110 -7 -122 -40
-118 l-27 3 -3 170 c-1 93 0 175 2 182 3 7 16 13 29 13 19 0 33 -18 78 -96z
m426 62 c36 -33 37 -35 41 -123 5 -106 -7 -152 -49 -188 -24 -20 -41 -25 -84
-25 -43 0 -60 5 -84 25 -42 36 -54 82 -49 188 4 88 5 90 41 123 32 30 43 34
92 34 49 0 60 -4 92 -34z"/>
<path d="M7410 5860 l0 -120 170 0 170 0 0 120 0 120 -170 0 -170 0 0 -120z"/>
<path d="M7410 5615 l0 -75 170 0 170 0 0 75 0 75 -170 0 -170 0 0 -75z"/>
<path d="M7410 5375 l0 -125 170 0 170 0 0 125 0 125 -170 0 -170 0 0 -125z"/>
<path d="M7776 4928 c-11 -15 -16 -45 -16 -93 0 -87 16 -115 65 -115 49 0 65
28 65 115 0 87 -16 115 -65 115 -24 0 -39 -7 -49 -22z"/>
<path d="M8230 5250 l0 -40 345 0 345 0 0 40 0 40 -345 0 -345 0 0 -40z"/>
<path d="M9660 4470 l0 -30 64 0 c71 0 99 -17 79 -48 -7 -13 -28 -18 -77 -20
l-66 -3 0 -39 0 -39 66 -3 c74 -3 99 -21 78 -55 -8 -14 -27 -19 -78 -21 l-66
-3 0 -34 0 -35 58 0 c47 0 63 -4 78 -21 31 -35 9 -53 -70 -57 -66 -3 -66 -3
-66 -32 l0 -30 110 0 110 0 0 95 0 95 40 0 39 0 3 -92 3 -93 35 0 35 0 5 70
c5 64 7 70 28 73 40 6 52 -14 52 -84 l0 -64 110 0 110 0 0 30 c0 29 0 29 -66
32 -79 4 -101 22 -70 57 15 17 31 21 78 21 l58 0 0 35 0 34 -66 3 c-74 3 -99
21 -78 56 8 13 27 18 78 20 l66 3 0 39 0 39 -66 3 c-49 2 -70 7 -77 20 -20 31
8 48 79 48 l64 0 0 30 0 30 -110 0 -110 0 0 -56 c0 -63 -13 -94 -39 -94 -29 0
-40 21 -43 85 l-3 60 -35 0 -35 0 -3 -60 c-3 -64 -14 -85 -43 -85 -26 0 -39
31 -39 94 l0 56 -110 0 -110 0 0 -30z"/>
<path d="M6910 1290 c-66 -22 -140 -96 -158 -157 -44 -147 35 -298 177 -340
100 -29 190 -3 267 79 49 51 68 102 66 183 -1 77 -20 121 -77 177 -75 75 -170
95 -275 58z"/>
<path d="M12907 1293 c-57 -21 -131 -90 -153 -142 -19 -45 -21 -143 -4 -196
15 -48 80 -119 133 -146 125 -65 286 -8 351 123 62 125 9 284 -117 349 -55 29
-150 34 -210 12z"/>
<path d="M8180 19665 l0 -75 2590 0 2590 0 0 75 0 75 -2590 0 -2590 0 0 -75z"/>
<path d="M13639 17654 c-10 -13 -10 -17 2 -25 24 -15 54 -6 57 19 3 18 -1 22
-21 22 -14 0 -30 -7 -38 -16z"/>
</g>
</svg>
