M48
; DRILL file {KiCad 6.0.10-86aedd382b~118~ubuntu18.04.1} date Tue 03 Jun 2025 01:30:54 PM UTC
; FORMAT={3:3/ absolute / metric / suppress leading zeros}
; #@! TF.CreationDate,2025-06-03T13:30:54+00:00
; #@! TF.GenerationSoftware,Kicad,Pcbnew,6.0.10-86aedd382b~118~ubuntu18.04.1
; #@! TF.FileFunction,Plated,1,2,PTH
FMAT,2
METRIC,TZ
; #@! TA.AperFunction,Plated,PTH,ViaDrill
T1C0.300
; #@! TA.AperFunction,Plated,PTH,ComponentDrill
T2C0.300
; #@! TA.AperFunction,Plated,PTH,ViaDrill
T3C0.400
; #@! TA.AperFunction,Plated,PTH,ViaDrill
T4C0.600
; #@! TA.AperFunction,Plated,PTH,ComponentDrill
T5C0.600
; #@! TA.AperFunction,Plated,PTH,ComponentDrill
T6C0.900
; #@! TA.AperFunction,Plated,PTH,ComponentDrill
T7C1.000
; #@! TA.AperFunction,Plated,PTH,ComponentDrill
T8C1.020
; #@! TA.AperFunction,Plated,PTH,ComponentDrill
T9C1.100
%
G90
G05
T1
X23885Y-84561
X23936Y-82022
X23984Y-87098
X24128Y-79493
X24436Y-89596
X24685Y-77015
X24826Y-92105
X25155Y-74519
X25316Y-94596
X25766Y-72056
X26014Y-97038
X26539Y-69636
X26640Y-99500
X27354Y-101934
X27446Y-67264
X28257Y-104308
X28518Y-64962
X28988Y-106727
X29758Y-62745
X30145Y-108982
X31773Y-110926
X32290Y-59657
X32520Y-61912
X32520Y-64452
X32520Y-66992
X33553Y-112706
X33822Y-68964
X34340Y-58372
X35427Y-114410
X35640Y-56430
X36121Y-60577
X36235Y-68995
X37010Y-116381
X37274Y-54851
X37680Y-60918
X37836Y-68577
X37975Y-118722
X38477Y-121190
X38716Y-128761
X38748Y-123701
X38760Y-63087
X38767Y-126221
X38787Y-131299
X38941Y-53293
X39228Y-133797
X39603Y-136281
X39632Y-70373
X39967Y-138794
X39988Y-60926
X40364Y-141303
X40608Y-67779
X40648Y-51735
X40765Y-143812
X41095Y-64322
X41428Y-72170
X41429Y-146260
X41787Y-59278
X42033Y-148712
X42322Y-67803
X42504Y-69674
X42538Y-151176
X42585Y-50410
X43224Y-73966
X43264Y-153609
X43929Y-48452
X44063Y-156021
X44218Y-69697
X44275Y-52039
X44331Y-146666
X44396Y-144135
X44399Y-71570
X44944Y-150720
X44967Y-158394
X45021Y-75762
X45212Y-66190
X45474Y-78159
X45474Y-80699
X45474Y-83239
X45474Y-85780
X45474Y-88320
X45474Y-90860
X45798Y-93307
X45814Y-148636
X45922Y-160748
X46021Y-53582
X46045Y-47048
X46110Y-142279
X46114Y-71593
X46295Y-73465
X46417Y-152214
X46480Y-59045
X46903Y-163091
X47071Y-68048
X47506Y-112121
X47508Y-101961
X47508Y-104501
X47508Y-107041
X47508Y-109581
X47527Y-95033
X47577Y-60968
X47585Y-55183
X47692Y-63493
X47849Y-165449
X47999Y-77882
X48009Y-73488
X48014Y-97371
X48073Y-147971
X48142Y-140946
X48181Y-75257
X48244Y-45776
X48699Y-144020
X48798Y-151757
X48805Y-167802
X48899Y-81070
X48929Y-69907
X48988Y-114091
X49015Y-146589
X49059Y-59045
X49686Y-149322
X49885Y-55763
X49887Y-170100
X49910Y-100275
X50046Y-105356
X50046Y-107914
X50156Y-60968
X50321Y-63493
X50450Y-44518
X50682Y-140946
X50785Y-115888
X50788Y-71766
X51038Y-49564
X51074Y-172345
X51122Y-52174
X51234Y-151589
X51572Y-162973
X51572Y-165514
X51610Y-146589
X51638Y-59045
X51741Y-81457
X52012Y-167915
X52185Y-143213
X52275Y-174584
X52281Y-149322
X52425Y-55763
X52581Y-117684
X52647Y-73624
X52651Y-43251
X52735Y-60968
X52914Y-104380
X52920Y-160948
X52949Y-63493
X53222Y-140946
X53259Y-48192
X53421Y-53408
X53516Y-176800
X53839Y-165029
X53906Y-144322
X54217Y-59045
X54362Y-168480
X54377Y-119480
X54527Y-75426
X54876Y-149322
X54885Y-178939
X54940Y-42151
X54966Y-55763
X55071Y-159903
X55255Y-70479
X55255Y-73108
X55258Y-67851
X55314Y-60968
X55517Y-112948
X55558Y-49426
X55561Y-115244
X55613Y-110176
X55642Y-52036
X55762Y-140946
X55763Y-77739
X55968Y-163552
X56036Y-101174
X56165Y-103749
X56173Y-121276
X56315Y-151589
X56333Y-181026
X56496Y-123621
X56595Y-144322
X56641Y-169082
X56796Y-59045
X56800Y-146589
X56910Y-126034
X56913Y-65865
X57289Y-41184
X57414Y-132256
X57472Y-149322
X57506Y-55763
X57562Y-159783
X57648Y-63627
X57874Y-183045
X57892Y-60968
X58303Y-140946
X58493Y-134391
X58648Y-114898
X58695Y-130202
X58855Y-151589
X58946Y-109552
X59174Y-169061
X59192Y-136643
X59192Y-139183
X59209Y-63640
X59285Y-144322
X59315Y-126083
X59346Y-146661
X59358Y-157987
X59375Y-59045
X59484Y-185010
X59581Y-71658
X59649Y-40246
X59819Y-148790
X60046Y-55763
X60118Y-153222
X60118Y-155762
X60192Y-142960
X60385Y-67629
X60461Y-128394
X60471Y-60968
X60823Y-161213
X61087Y-164094
X61127Y-186947
X61262Y-75508
X61262Y-78118
X61457Y-168480
X61458Y-140753
X61612Y-63985
X61627Y-138784
X61728Y-147214
X61953Y-59045
X62000Y-39283
X62284Y-158171
X62386Y-152998
X62386Y-155593
X62399Y-148704
X62586Y-55763
X62799Y-188860
X63050Y-60968
X63065Y-132504
X63065Y-140834
X63065Y-143523
X63167Y-124597
X63418Y-161213
X63543Y-149978
X63603Y-147098
X63800Y-164094
X63997Y-168480
X64018Y-152406
X64156Y-63985
X64365Y-38357
X64553Y-190691
X64732Y-148147
X65126Y-55763
X65465Y-154444
X65465Y-142355
X65629Y-60968
X65923Y-174785
X65923Y-177324
X66013Y-161213
X66073Y-156830
X66110Y-179824
X66513Y-164094
X66526Y-192267
X66537Y-168480
X66700Y-63985
X66786Y-186978
X66794Y-37621
X66870Y-189588
X67485Y-172847
X67667Y-55763
X67908Y-158665
X68078Y-181283
X68208Y-60968
X68374Y-194009
X68697Y-177730
X69007Y-185606
X69078Y-168480
X69169Y-190823
X69245Y-63985
X69281Y-37100
X69281Y-171051
X69332Y-147870
X69332Y-153157
X69587Y-137276
X69647Y-145424
X69690Y-59045
X69743Y-160500
X69766Y-155539
X69891Y-142998
X70268Y-163552
X70338Y-195618
X70462Y-139517
X70618Y-181282
X70731Y-173696
X70787Y-60968
X70884Y-149799
X70954Y-176252
X71017Y-154662
X71077Y-169255
X71306Y-186840
X71390Y-189450
X71751Y-36511
X71784Y-147911
X71789Y-63985
X72126Y-130628
X72261Y-156405
X72269Y-59045
X72443Y-123153
X72499Y-173288
X72582Y-145207
X72747Y-55763
X72912Y-181804
X73366Y-60968
X73446Y-134562
X73446Y-141613
X73529Y-132021
X73669Y-183896
X73669Y-186436
X73669Y-188976
X73669Y-191516
X73669Y-194056
X73669Y-196597
X74064Y-136857
X74218Y-35906
X74231Y-139437
X74333Y-63985
X74342Y-170085
X74347Y-147940
X74666Y-178690
X74716Y-176413
X74744Y-156111
X74792Y-173909
X74848Y-59045
X74881Y-151140
X74928Y-153434
X74953Y-145789
X74984Y-167754
X75287Y-55763
X75471Y-165422
X75898Y-60747
X75937Y-183474
X75937Y-186101
X75937Y-188727
X75997Y-181179
X76320Y-190428
X76527Y-195574
X76605Y-136934
X76662Y-148513
X76686Y-35303
X76783Y-139418
X76817Y-128310
X76842Y-124844
X76877Y-63985
X76958Y-126093
X76988Y-130827
X77122Y-155780
X77245Y-178913
X77343Y-173913
X77361Y-122326
X77404Y-167018
X77426Y-176413
X77427Y-59045
X77469Y-199877
X77523Y-153513
X77524Y-145789
X77633Y-161497
X77660Y-151140
X77827Y-55763
X78177Y-188571
X78183Y-194385
X78190Y-196921
X78624Y-181179
X78721Y-137934
X78802Y-191324
X79158Y-34720
X79209Y-168823
X79234Y-148513
X79442Y-163310
X79462Y-142657
X79683Y-155780
X79896Y-173913
X79965Y-201202
X80095Y-145789
X80171Y-153513
X80175Y-196068
X80368Y-55763
X80439Y-151140
X80743Y-188317
X80924Y-166570
X81015Y-170629
X81251Y-181179
X81279Y-191068
X81641Y-34185
X81805Y-148513
X81837Y-163713
X81882Y-63985
X81931Y-62165
X82244Y-155780
X82330Y-146600
X82336Y-165980
X82425Y-199214
X82428Y-196731
X82449Y-173913
X82607Y-59137
X82665Y-178913
X82718Y-127225
X82811Y-194096
X82820Y-153513
X82846Y-176413
X82908Y-55763
X83218Y-151140
X83244Y-203031
X83370Y-188317
X83381Y-171187
X83728Y-32830
X83787Y-47500
X83878Y-181179
X83881Y-190584
X84117Y-45054
X84149Y-148418
X84340Y-42614
X84376Y-144861
X84398Y-163713
X84531Y-40265
X84800Y-196947
X84806Y-155780
X85002Y-173913
X85097Y-30716
X85099Y-161852
X85165Y-165991
X85251Y-204524
X85254Y-176252
X85288Y-178778
X85353Y-194096
X85419Y-150852
X85419Y-153440
X85448Y-55763
X85488Y-48874
X85700Y-28251
X85715Y-200068
X85813Y-168469
X85828Y-202335
X85872Y-120903
X85934Y-171187
X85996Y-188317
X86004Y-191829
X86242Y-181804
X86302Y-159745
X86318Y-157191
X86339Y-25792
X86448Y-63985
X86670Y-126555
X86716Y-145789
X86749Y-42898
X86971Y-40303
X86997Y-206344
X87281Y-23463
X87293Y-173288
X87334Y-44406
X87342Y-196947
X87479Y-48683
X87988Y-55763
X88122Y-38296
X88372Y-202335
X88390Y-200068
X88396Y-120570
X88406Y-171218
X88532Y-208358
X88546Y-191829
X88586Y-160092
X88623Y-188317
X88801Y-45107
X88811Y-181569
X88948Y-41951
X89019Y-63985
X89287Y-135705
X89334Y-155352
X89339Y-21992
X89398Y-145789
X89420Y-175753
X89767Y-25441
X89772Y-62168
X89867Y-48502
X89883Y-196947
X90121Y-178913
X90240Y-137265
X90300Y-161213
X90417Y-56142
X90436Y-194096
X90437Y-147531
X90450Y-199214
X90455Y-27675
X90526Y-38132
X90576Y-152075
X90598Y-119555
X90676Y-21421
X90791Y-209496
X90917Y-202335
X90980Y-163967
X91026Y-134892
X91087Y-191829
X91121Y-42559
X91124Y-45107
X91197Y-181007
X91250Y-188317
X91577Y-49681
X91577Y-52221
X91577Y-54761
X91589Y-63985
X92420Y-155251
X92425Y-196947
X92760Y-152922
X92844Y-161213
X92897Y-130453
X92950Y-194151
X92972Y-45266
X92990Y-27721
X93045Y-20711
X93048Y-201290
X93071Y-179169
X93197Y-210317
X93291Y-191188
X93388Y-40777
X93504Y-43043
X93535Y-163967
X93539Y-175397
X93877Y-188317
X93893Y-168870
X93990Y-182205
X93990Y-184831
X94064Y-39185
X94116Y-150106
X94198Y-59318
X94508Y-196068
X95129Y-187029
X95274Y-200524
X95389Y-161213
X95497Y-45320
X95497Y-50370
X95497Y-53018
X95497Y-55667
X95530Y-27721
X95714Y-210632
X95753Y-170731
X95805Y-20449
X95813Y-191068
X95903Y-47844
X96006Y-37853
X96090Y-163967
X96257Y-173198
X96257Y-179976
X96257Y-182590
X96430Y-194573
X96548Y-140823
X96558Y-177664
X96660Y-150106
X96689Y-175397
X96789Y-193060
X97171Y-43877
X97361Y-196946
X97607Y-199906
X97647Y-185992
X97658Y-168480
X97933Y-161213
X98070Y-27721
X98224Y-191114
X98258Y-210653
X98271Y-37854
X98397Y-188710
X98549Y-125095
X98577Y-183117
X98578Y-20522
X98645Y-163967
X98790Y-128133
X98889Y-119981
X99048Y-140823
X99173Y-177664
X99204Y-150106
X99321Y-175397
X99350Y-130509
X99512Y-44521
X99832Y-46660
X99832Y-49308
X99949Y-199584
X99963Y-147582
X100027Y-185166
X100240Y-163552
X100240Y-168552
X100340Y-171152
X100340Y-173784
X100344Y-160985
X100348Y-51786
X100561Y-124492
X100611Y-27721
X100634Y-37852
X100635Y-140506
X100664Y-187561
X100664Y-190175
X100793Y-210510
X100827Y-146120
X100910Y-119568
X100971Y-138028
X101093Y-127348
X101245Y-194320
X101351Y-20641
X101502Y-196797
X101595Y-178128
X101748Y-150106
X101921Y-191946
X101968Y-130428
X102099Y-43989
X102099Y-46529
X102099Y-49070
X102220Y-53658
X102377Y-199214
X102607Y-169255
X102607Y-171893
X102607Y-174531
X102626Y-147582
X102627Y-58667
X102664Y-144200
X102759Y-160588
X102764Y-55674
X102845Y-137153
X102877Y-40184
X102891Y-141651
X103151Y-27721
X103192Y-124516
X103223Y-209759
X103380Y-38742
X103443Y-179976
X103615Y-127335
X103633Y-42790
X103970Y-51029
X103987Y-194320
X104013Y-21289
X104237Y-48573
X104293Y-150106
X104316Y-174084
X104437Y-163708
X104437Y-167008
X104536Y-191946
X104716Y-171585
X104818Y-130435
X104827Y-133540
X104922Y-199214
X104949Y-178276
X105040Y-161213
X105072Y-21881
X105140Y-138040
X105185Y-26793
X105185Y-24253
X105288Y-147582
X105292Y-181825
X105313Y-145949
X105367Y-208425
X105593Y-58667
X105764Y-41708
X105823Y-124539
X106027Y-46772
X106138Y-127348
X106554Y-167955
X106730Y-194320
X106752Y-180079
X106837Y-150106
X106894Y-144087
X107022Y-139923
X107023Y-170542
X107140Y-183673
X107150Y-191946
X107157Y-206618
X107199Y-23262
X107300Y-135150
X107341Y-162008
X107466Y-199214
X107504Y-165362
X107698Y-137027
X107823Y-44976
X107855Y-131024
X108047Y-54531
X108146Y-38132
X108217Y-41948
X108455Y-124562
X108555Y-181882
X108570Y-177664
X108596Y-127873
X108603Y-25348
X108811Y-168326
X108905Y-141805
X108962Y-204826
X108989Y-185522
X109107Y-145127
X109127Y-27826
X109171Y-40009
X109178Y-133273
X109218Y-149615
X109306Y-30351
X109472Y-196946
X109472Y-194320
X109502Y-179642
X109764Y-191946
X109788Y-166097
X109871Y-32827
X109976Y-36083
X110010Y-199214
X110118Y-170422
X110118Y-174765
X110156Y-181858
X110291Y-46945
X110358Y-183685
X110608Y-144654
X110769Y-126769
X110822Y-134387
X110837Y-187370
X110902Y-203222
X110976Y-164662
X110986Y-139234
X111017Y-147816
X111067Y-136843
X111086Y-124585
X111090Y-131806
X111259Y-45819
X111387Y-142331
X111924Y-196620
X111994Y-33791
X112041Y-191448
X112088Y-194268
X112128Y-179073
X112161Y-185488
X112179Y-51847
X112222Y-120006
X112269Y-35425
X112449Y-167446
X112449Y-199510
X112523Y-181405
X112686Y-189219
X112775Y-162863
X112816Y-146017
X113131Y-202024
X113139Y-130015
X113241Y-177501
X113339Y-126516
X113439Y-165405
X113661Y-131509
X113717Y-124608
X113964Y-187291
X114022Y-49992
X114053Y-172446
X114118Y-53500
X114514Y-34114
X114534Y-191068
X114574Y-161064
X114615Y-144219
X114946Y-175864
X114974Y-167558
X115194Y-170694
X115238Y-163606
X115358Y-200795
X115767Y-189094
X115794Y-130015
X115839Y-197469
X115971Y-126516
X116335Y-173071
X116373Y-159265
X116400Y-142413
X116452Y-49917
X116598Y-187738
X116741Y-53500
X116854Y-140105
X116954Y-36560
X116966Y-137823
X117008Y-34587
X117037Y-161807
X117100Y-120246
X117237Y-130692
X117275Y-168071
X117331Y-135882
X117392Y-133177
X117526Y-199464
X117545Y-170338
X117603Y-195656
X118403Y-185937
X118462Y-50820
X118482Y-190888
X118482Y-193432
X118577Y-141449
X118804Y-158885
X118879Y-173071
X118991Y-188555
X119083Y-53217
X119238Y-137665
X119310Y-161153
X119356Y-119522
X119415Y-62095
X119466Y-35227
X119677Y-198105
X119798Y-175338
X119806Y-157267
X119819Y-168071
X119875Y-135882
X120089Y-170338
X120206Y-184134
X120300Y-143140
X120474Y-133210
X120791Y-186755
X120868Y-155260
X121255Y-158561
X121263Y-138879
X121278Y-145262
X121424Y-173071
X121761Y-161477
X121807Y-196714
X122009Y-182331
X122119Y-61461
X122348Y-175338
X122363Y-136063
X122363Y-168071
X122467Y-59041
X122590Y-184956
X122633Y-170338
X122666Y-186978
X122750Y-189588
X122839Y-139043
X123002Y-119622
X123287Y-154609
X123379Y-160488
X123419Y-146341
X123594Y-157115
X123743Y-131876
X123812Y-180528
X123921Y-195298
X123968Y-173071
X124337Y-162501
X124389Y-183157
X124468Y-135343
X124845Y-158984
X124887Y-185606
X124897Y-175338
X125049Y-190823
X125108Y-147864
X125178Y-170338
X125566Y-60972
X125615Y-178725
X125616Y-58268
X125669Y-153984
X125985Y-193811
X126116Y-157501
X126188Y-181358
X126276Y-172587
X127146Y-149175
X127185Y-175963
X127186Y-186840
X127189Y-167446
X127232Y-159437
X127270Y-189450
X127459Y-170963
X127492Y-42218
X127670Y-60185
X127723Y-130674
X127825Y-55455
X127907Y-192146
X127987Y-179559
X128051Y-154609
X128092Y-38105
X128498Y-156876
X128794Y-172446
X128945Y-150974
X129019Y-125146
X129243Y-41197
X129591Y-45341
X129603Y-167844
X129671Y-159609
X129704Y-190345
X129736Y-170331
X129786Y-177760
X129808Y-174401
X129908Y-128489
X130113Y-57743
X130134Y-121279
X130688Y-134213
X130695Y-154609
X130830Y-152649
X131142Y-156876
X131430Y-188477
X131444Y-38340
X131471Y-42172
X131516Y-172824
X131585Y-175961
X131707Y-161876
X131850Y-46817
X133115Y-186570
X133292Y-43993
X133315Y-171025
X133340Y-154609
X133359Y-152697
X133384Y-174162
X133787Y-156876
X133878Y-48846
X133886Y-39152
X134029Y-87705
X134029Y-90388
X134029Y-93071
X134029Y-95755
X134029Y-105600
X134029Y-108205
X134029Y-110810
X134252Y-161876
X134626Y-97837
X134759Y-159609
X134767Y-184636
X134822Y-80057
X135009Y-112438
X135112Y-45813
X135114Y-169226
X135183Y-172363
X135428Y-104394
X135631Y-86625
X135661Y-93908
X135697Y-96532
X135699Y-91305
X135841Y-88662
X135903Y-152697
X135907Y-50875
X135985Y-154609
X136176Y-116220
X136269Y-40127
X136336Y-182632
X136432Y-156876
X136796Y-161876
X136913Y-167427
X136933Y-47633
X136982Y-170564
X137303Y-159609
X137774Y-133294
X137828Y-180572
X138017Y-114378
X138028Y-104364
X138236Y-153938
X138350Y-152363
X138554Y-163018
X138554Y-165563
X138567Y-109396
X138603Y-135404
X138622Y-41171
X138753Y-49454
X138781Y-168765
X138814Y-157501
X139114Y-132387
X139288Y-178489
X139585Y-158984
X140011Y-130220
X140011Y-137092
X140145Y-150570
X140217Y-48883
X140578Y-166964
X140725Y-176389
X140821Y-164478
X140976Y-42213
X141327Y-162273
X141387Y-157226
X141409Y-138336
X141688Y-159844
X141841Y-53405
X142041Y-152687
X142104Y-129430
X142107Y-55119
X142107Y-174253
X142327Y-154929
X142338Y-139786
X142463Y-151060
X142607Y-48266
X143199Y-130990
X143280Y-43360
X143413Y-172069
X143873Y-138080
X143928Y-56940
X143967Y-149387
X144079Y-52361
X144445Y-49917
X144639Y-169840
X144867Y-132391
X144960Y-147656
X145500Y-44664
X145748Y-58760
X145805Y-167579
X145842Y-136906
X145970Y-134385
X146758Y-145857
X146944Y-165304
X147321Y-141044
X147463Y-143565
X147584Y-60423
X147692Y-46014
X148023Y-118453
X148036Y-163006
X148928Y-122626
X148989Y-160648
X149748Y-61401
X149871Y-158261
X149895Y-47345
X150071Y-137584
X150667Y-155845
X151361Y-153397
X151958Y-150924
X152026Y-119807
X152026Y-122540
X152071Y-48721
X152082Y-60715
X152154Y-129131
X152232Y-136562
X152630Y-148470
X153313Y-146020
X153535Y-134517
X153863Y-143536
X154089Y-50315
X154134Y-77688
X154193Y-61941
X154293Y-141029
X154548Y-127635
X154552Y-117040
X154552Y-119584
X154552Y-122128
X154561Y-130179
X154574Y-132723
X154669Y-138512
X154973Y-135986
X155592Y-123619
X155592Y-126163
X155693Y-115474
X156008Y-52032
X156216Y-120796
X156549Y-118295
X156767Y-61941
X157497Y-113680
X157670Y-116040
X157920Y-53755
X159296Y-111881
X159341Y-61941
X159384Y-114195
X159773Y-55542
X161388Y-112696
X161488Y-57460
X161916Y-61941
X162690Y-109437
X162913Y-59602
X163057Y-93727
X163630Y-101297
X164247Y-61804
X168657Y-96627
T2
X83499Y-137922
X84074Y-136972
X84074Y-138872
X84649Y-137922
T3
X43180Y-59055
X43905Y-59762
X44704Y-58420
X51308Y-82804
X54610Y-76835
X55118Y-78994
X56007Y-105410
X58420Y-64807
X58547Y-79502
X60071Y-76581
X60198Y-111912
X60249Y-105867
X60325Y-73660
X60554Y-108966
X60579Y-79629
X62230Y-123190
X62865Y-128270
X64770Y-121920
X64770Y-124460
X65988Y-143914
X67310Y-130810
X67437Y-143891
X68707Y-143764
X69484Y-130175
X70485Y-127724
X72390Y-127000
X74295Y-159893
X75565Y-125730
X76196Y-163072
X76200Y-164211
X76708Y-159893
X78486Y-129845
X78740Y-128168
X78994Y-159893
X79629Y-118649
X79951Y-130767
X80010Y-134874
X80010Y-141224
X80620Y-131978
X80645Y-119253
X81025Y-117200
X82140Y-135988
X82220Y-121658
X82423Y-119099
X82804Y-42418
X83185Y-119888
X86673Y-137985
X87757Y-164846
X89357Y-132029
X89916Y-59436
X90170Y-139700
X90195Y-131420
X90297Y-132893
X91211Y-132004
X91821Y-176530
X92964Y-37846
X94056Y-132512
X94437Y-133299
X95275Y-132309
X95504Y-133121
X104394Y-59182
X105651Y-38367
X106324Y-63586
X106426Y-59182
X106808Y-61626
X107324Y-63575
X108458Y-59182
X109324Y-60980
X110033Y-61685
X110109Y-42418
X110738Y-62393
X111684Y-47168
X113083Y-47369
X113088Y-48369
X113284Y-175895
X117754Y-49366
X118186Y-47142
X118415Y-40970
X120574Y-62905
X121371Y-40843
X122072Y-44120
X123342Y-140360
X124289Y-43411
X124663Y-53340
X124955Y-141304
X125654Y-53188
X125679Y-142113
X125948Y-45740
X126148Y-138422
X126599Y-52862
X126991Y-51197
X127299Y-52148
X127660Y-142926
X127838Y-137058
X127872Y-45686
X128651Y-43028
X129642Y-123647
X129667Y-42545
X129934Y-136919
X130155Y-43529
X130366Y-142756
X130556Y-62044
X131343Y-59708
X131623Y-62044
X132080Y-133985
X132080Y-140335
X132343Y-59708
X132622Y-62044
X133020Y-146533
X133342Y-59708
X133622Y-62044
X134264Y-54204
X134342Y-59708
X134621Y-62044
X135341Y-59708
X135382Y-73406
X135382Y-78232
X135406Y-144475
X135458Y-146228
X135509Y-75946
X135639Y-62044
X136636Y-61965
X136957Y-79959
X136982Y-109017
X137135Y-105893
X137312Y-112065
X137592Y-95809
X137742Y-61553
X138100Y-89662
X138650Y-70200
X138741Y-61589
X139161Y-86677
X139264Y-75163
X139333Y-69438
X139505Y-79154
X139706Y-98142
X139732Y-76046
X139740Y-61552
X139797Y-94432
X140036Y-70669
X140150Y-73990
X140335Y-144145
X140436Y-68561
X140836Y-67586
X141032Y-92940
X141050Y-65688
X141156Y-58386
X141173Y-96012
X141184Y-84561
X141224Y-91948
X141236Y-66670
X141634Y-83575
X141805Y-85361
X141935Y-93548
X142062Y-90093
X142072Y-87192
X142072Y-89078
X142145Y-62034
X142390Y-58524
X142570Y-96962
X142635Y-71451
X142790Y-128107
X143244Y-102423
X143264Y-81293
X143510Y-144145
X143662Y-93447
X143671Y-67920
X143975Y-79951
X144450Y-80981
X144490Y-82788
X144724Y-95062
X145406Y-66533
X145503Y-62966
X145986Y-63844
X145999Y-106782
X146083Y-69308
X146228Y-60808
X146405Y-65481
X146914Y-66396
X147079Y-107849
X147091Y-62535
X147978Y-102462
X149166Y-93311
X149863Y-70916
X149995Y-87520
X150279Y-78908
X150279Y-79907
X150333Y-77910
X150495Y-111125
X150956Y-87246
X151130Y-131445
X151206Y-109169
X151359Y-93510
X151734Y-86619
X152121Y-73635
X152197Y-62738
X152358Y-93496
X152396Y-111121
X153303Y-110058
X154081Y-74942
X154107Y-87438
X155089Y-108429
X155626Y-71540
X156158Y-110057
X157193Y-72118
X158219Y-86142
X158276Y-87918
X158916Y-76747
X159266Y-84633
X160215Y-84946
X160568Y-96299
X160579Y-76479
X160934Y-72913
X161215Y-84980
X161636Y-96468
X161965Y-86565
X162530Y-71950
X162549Y-76657
X162674Y-106667
X162700Y-85750
X162965Y-88798
X163178Y-84872
X165947Y-75446
X166245Y-82729
X166372Y-71024
X166442Y-86872
X167143Y-84133
X167579Y-69473
X167927Y-86283
X168365Y-90733
X169065Y-75575
X169292Y-74602
X169351Y-84832
X169614Y-78622
X169697Y-87655
T4
X34036Y-60198
X35052Y-66040
X35358Y-67766
X36068Y-62484
X36068Y-64770
X36778Y-67766
X39878Y-66040
X41148Y-61214
X42164Y-62230
X45085Y-99060
X45212Y-62230
X45466Y-63500
X45515Y-61018
X46736Y-75692
X47498Y-93218
X48260Y-99060
X49530Y-102235
X49530Y-110490
X49784Y-76454
X50038Y-91440
X50292Y-87884
X50292Y-143764
X50800Y-96520
X51232Y-86258
X51308Y-99695
X51308Y-111760
X51562Y-68834
X51562Y-78232
X52590Y-97575
X52832Y-94488
X53340Y-80010
X53467Y-152400
X53594Y-87884
X53975Y-113665
X54102Y-147955
X54864Y-91186
X54864Y-99568
X54889Y-102768
X55052Y-107364
X55118Y-83312
X55118Y-85852
X55118Y-96647
X55372Y-63500
X57150Y-106680
X59690Y-132080
X59713Y-121766
X61468Y-126365
X62865Y-120650
X63379Y-129298
X65200Y-120650
X65786Y-131953
X65786Y-163221
X65786Y-166101
X66040Y-59182
X67259Y-127062
X68453Y-120904
X68580Y-124460
X68580Y-128778
X70104Y-55118
X70358Y-133858
X71120Y-123190
X71501Y-121158
X72771Y-171577
X75311Y-123190
X75565Y-120650
X75565Y-121920
X75692Y-49530
X76200Y-62230
X77470Y-185928
X78105Y-63754
X79121Y-46101
X79248Y-59436
X79659Y-122525
X80010Y-178689
X80137Y-176403
X81077Y-120929
X81534Y-124968
X81661Y-43561
X82042Y-129438
X82042Y-161798
X82296Y-143002
X82677Y-139827
X82677Y-141224
X82766Y-134620
X82804Y-132334
X83058Y-167640
X83566Y-197206
X83566Y-200152
X83629Y-192087
X83769Y-121056
X83947Y-125095
X84074Y-129032
X84120Y-141419
X84328Y-62484
X85425Y-134044
X85522Y-123063
X85725Y-140994
X85852Y-132334
X86341Y-143656
X86614Y-129540
X86741Y-62484
X86868Y-135890
X86995Y-59055
X87884Y-134874
X87884Y-144018
X88011Y-195453
X88254Y-147841
X88900Y-128524
X89154Y-140843
X89408Y-122809
X89916Y-157353
X90424Y-144018
X91186Y-129032
X91440Y-200025
X91948Y-141097
X92583Y-144018
X92710Y-135382
X93853Y-125692
X93853Y-128817
X94132Y-144018
X94234Y-47244
X94742Y-120650
X96012Y-59436
X96393Y-125692
X96393Y-128817
X97282Y-144018
X97536Y-120650
X97790Y-135890
X97790Y-142494
X98425Y-42785
X98425Y-59055
X99060Y-55880
X100330Y-135890
X100330Y-142240
X100584Y-62484
X100787Y-143459
X101549Y-142342
X103251Y-134239
X104369Y-55855
X104648Y-185928
X105232Y-53340
X105283Y-196850
X106045Y-132207
X107518Y-52248
X108382Y-48616
X108712Y-165608
X109982Y-44602
X111555Y-44448
X112268Y-59436
X112522Y-57150
X113462Y-40386
X114148Y-137160
X114300Y-59055
X114427Y-119380
X114910Y-51943
X115742Y-38392
X116713Y-176149
X117348Y-62484
X117348Y-125476
X117907Y-37541
X118161Y-119380
X118364Y-124460
X118770Y-44450
X118872Y-128524
X118999Y-38545
X119202Y-63195
X119380Y-59690
X119380Y-123190
X119863Y-56539
X119876Y-126746
X120396Y-121920
X120904Y-125730
X121285Y-120650
X121285Y-171323
X121412Y-53010
X121641Y-54762
X121666Y-124535
X121920Y-134620
X122022Y-38786
X122174Y-131826
X122403Y-51257
X123190Y-124460
X123330Y-40119
X123698Y-127508
X124054Y-48082
X124460Y-120015
X124460Y-137160
X124587Y-167259
X124714Y-130668
X124968Y-128524
X125095Y-124460
X125730Y-133985
X126289Y-62865
X126492Y-128778
X126924Y-144856
X127065Y-121920
X127065Y-123190
X127065Y-124460
X127396Y-132716
X127762Y-134112
X128245Y-56998
X128270Y-162052
X128321Y-62890
X128458Y-142099
X128524Y-135890
X128893Y-146164
X129261Y-61824
X130175Y-139408
X130277Y-148209
X130429Y-132588
X130683Y-135890
X131064Y-144653
X131651Y-128095
X132015Y-121920
X132080Y-123190
X132080Y-124460
X132461Y-158242
X133325Y-148539
X133350Y-130429
X133477Y-136652
X134211Y-149702
X134366Y-132207
X134449Y-145412
X134620Y-124856
X135270Y-140175
X135763Y-135636
X135890Y-120015
X136296Y-142189
X137160Y-148082
X137414Y-97384
X137973Y-86766
X138126Y-127075
X138151Y-57531
X138811Y-149225
X138913Y-93675
X138929Y-143401
X139065Y-118745
X139065Y-146685
X139954Y-125222
X140589Y-141224
X140589Y-147955
X140716Y-127508
X141209Y-111760
X141356Y-80031
X141592Y-125019
X141605Y-107950
X141992Y-105056
X142240Y-115570
X142263Y-114115
X142342Y-132994
X142595Y-126352
X142605Y-99588
X142621Y-123317
X142624Y-94962
X142697Y-91262
X143408Y-121223
X143510Y-139700
X143597Y-69067
X143656Y-60141
X143713Y-113259
X143787Y-141048
X143789Y-62890
X143815Y-104668
X143916Y-108712
X143945Y-115802
X144166Y-98010
X144323Y-124676
X144780Y-119634
X144893Y-88983
X145085Y-71298
X145135Y-76658
X145437Y-86486
X145580Y-84415
X145885Y-73351
X146202Y-105232
X146328Y-121283
X146691Y-138159
X146952Y-120244
X147066Y-112014
X147142Y-109449
X147152Y-129857
X147320Y-139243
X147447Y-126619
X147483Y-100077
X147815Y-137020
X147955Y-71425
X148351Y-131163
X148514Y-105588
X148543Y-86000
X148892Y-109165
X149149Y-124562
X149341Y-118607
X149530Y-101297
X149969Y-121505
X150167Y-93953
X150470Y-133452
X150787Y-99641
X151090Y-116840
X151205Y-115010
X151531Y-107056
X151567Y-84063
X151621Y-72305
X152065Y-125706
X152273Y-133071
X152298Y-131803
X152542Y-100635
X152832Y-98069
X152959Y-96647
X153213Y-81382
X153225Y-130238
X153271Y-86012
X153289Y-114427
X153340Y-79223
X153888Y-104699
X154305Y-115913
X154305Y-93320
X155252Y-87339
X155346Y-124816
X155546Y-112264
X157410Y-85326
X157498Y-105268
X157679Y-79839
X158340Y-109572
X158598Y-93421
X158699Y-82283
X158979Y-72238
X158979Y-75026
X159639Y-78384
X159755Y-83588
X160468Y-104334
X160503Y-79288
X160782Y-107899
X161036Y-100355
X161315Y-109525
X161532Y-77480
X161704Y-99233
X161734Y-97645
X161799Y-88170
X162708Y-74023
X163271Y-72907
X164175Y-90899
X164324Y-93220
X164567Y-99111
X165356Y-72708
X165517Y-103159
X166109Y-73892
X166697Y-85192
X167741Y-77457
X168239Y-82533
X169201Y-86006
X169670Y-90737
T6
X88905Y-40040
X91445Y-40040
X95885Y-39760
X98425Y-39760
X100965Y-39760
X104780Y-40040
X107320Y-40040
T7
X37041Y-57655
X38837Y-55859
X38837Y-59451
X40633Y-54063
X40633Y-57655
X42429Y-52267
X42429Y-55859
X44225Y-54063
X102743Y-119913
X105283Y-119913
X107823Y-119913
X110363Y-119913
X112669Y-133360
X112669Y-135900
X112669Y-138440
X112669Y-140980
X115209Y-133360
X115209Y-135900
X115209Y-138440
X115209Y-140980
X119576Y-139820
X121372Y-141616
X123168Y-143412
X123825Y-57770
X123825Y-60310
X123825Y-62850
X124126Y-46199
X124964Y-145208
X125922Y-47995
X126760Y-147004
X127719Y-49791
X129515Y-51587
X131311Y-53383
X133107Y-55180
X134903Y-56976
T8
X92329Y-146050
X107319Y-146050
T5
G00X159307Y-101692
M15
G01X158247Y-101399
M16
G05
G00X161616Y-93367
M15
G01X160556Y-93073
M16
G05
G00X163094Y-102743
M15
G01X162515Y-102582
M16
G05
G00X165403Y-94417
M15
G01X164824Y-94257
M16
G05
T9
G00X59940Y-82066
M15
G01X60840Y-82066
M16
G05
G00X59940Y-84606
M15
G01X60840Y-84606
M16
G05
G00X59940Y-87146
M15
G01X60840Y-87146
M16
G05
G00X59940Y-89686
M15
G01X60840Y-89686
M16
G05
G00X59940Y-92226
M15
G01X60840Y-92226
M16
G05
G00X59940Y-94766
M15
G01X60840Y-94766
M16
G05
G00X59940Y-97306
M15
G01X60840Y-97306
M16
G05
G00X59940Y-99846
M15
G01X60840Y-99846
M16
G05
G00X59940Y-102386
M15
G01X60840Y-102386
M16
G05
G00X134450Y-82066
M15
G01X135350Y-82066
M16
G05
G00X134450Y-84616
M15
G01X135350Y-84616
M16
G05
G00X134450Y-99846
M15
G01X135350Y-99846
M16
G05
G00X134450Y-102386
M15
G01X135350Y-102386
M16
G05
T0
M30
