%TF.GenerationSoftware,KiCad,Pcbnew,6.0.10-86aedd382b~118~ubuntu18.04.1*%
%TF.CreationDate,2025-06-03T13:30:18+00:00*%
%TF.ProjectId,badge,62616467-652e-46b6-9963-61645f706362,rev?*%
%TF.SameCoordinates,Original*%
%TF.FileFunction,Paste,Bot*%
%TF.FilePolarity,Positive*%
%FSLAX46Y46*%
G04 Gerber Fmt 4.6, Leading zero omitted, Abs format (unit mm)*
G04 Created by KiCad (PCBNEW 6.0.10-86aedd382b~118~ubuntu18.04.1) date 2025-06-03 13:30:18*
%MOMM*%
%LPD*%
G01*
G04 APERTURE LIST*
G04 Aperture macros list*
%AMRoundRect*
0 Rectangle with rounded corners*
0 $1 Rounding radius*
0 $2 $3 $4 $5 $6 $7 $8 $9 X,Y pos of 4 corners*
0 Add a 4 corners polygon primitive as box body*
4,1,4,$2,$3,$4,$5,$6,$7,$8,$9,$2,$3,0*
0 Add four circle primitives for the rounded corners*
1,1,$1+$1,$2,$3*
1,1,$1+$1,$4,$5*
1,1,$1+$1,$6,$7*
1,1,$1+$1,$8,$9*
0 Add four rect primitives between the rounded corners*
20,1,$1+$1,$2,$3,$4,$5,0*
20,1,$1+$1,$4,$5,$6,$7,0*
20,1,$1+$1,$6,$7,$8,$9,0*
20,1,$1+$1,$8,$9,$2,$3,0*%
%AMRotRect*
0 Rectangle, with rotation*
0 The origin of the aperture is its center*
0 $1 length*
0 $2 width*
0 $3 Rotation angle, in degrees counterclockwise*
0 Add horizontal line*
21,1,$1,$2,0,0,$3*%
G04 Aperture macros list end*
%ADD10RoundRect,0.250000X0.650000X-0.412500X0.650000X0.412500X-0.650000X0.412500X-0.650000X-0.412500X0*%
%ADD11RotRect,0.600000X1.450000X254.500000*%
%ADD12RotRect,0.300000X1.450000X254.500000*%
%ADD13R,1.500000X2.000000*%
%ADD14R,3.800000X2.000000*%
%ADD15R,1.200000X0.900000*%
%ADD16RoundRect,0.250000X0.412500X0.650000X-0.412500X0.650000X-0.412500X-0.650000X0.412500X-0.650000X0*%
%ADD17RoundRect,0.250000X0.400000X0.625000X-0.400000X0.625000X-0.400000X-0.625000X0.400000X-0.625000X0*%
%ADD18RoundRect,0.250000X-0.625000X0.400000X-0.625000X-0.400000X0.625000X-0.400000X0.625000X0.400000X0*%
%ADD19RoundRect,0.150000X0.150000X-0.587500X0.150000X0.587500X-0.150000X0.587500X-0.150000X-0.587500X0*%
%ADD20RoundRect,0.150000X0.875000X0.150000X-0.875000X0.150000X-0.875000X-0.150000X0.875000X-0.150000X0*%
%ADD21R,2.000000X3.000000*%
%ADD22R,0.300000X1.300000*%
%ADD23RoundRect,0.250000X-0.650000X0.412500X-0.650000X-0.412500X0.650000X-0.412500X0.650000X0.412500X0*%
%ADD24RoundRect,0.062500X0.062500X0.350000X-0.062500X0.350000X-0.062500X-0.350000X0.062500X-0.350000X0*%
%ADD25RoundRect,0.062500X0.350000X0.062500X-0.350000X0.062500X-0.350000X-0.062500X0.350000X-0.062500X0*%
%ADD26RoundRect,0.172500X0.172500X0.172500X-0.172500X0.172500X-0.172500X-0.172500X0.172500X-0.172500X0*%
%ADD27R,2.100000X1.800000*%
%ADD28R,1.600000X0.410000*%
%ADD29RoundRect,0.150000X-0.150000X0.587500X-0.150000X-0.587500X0.150000X-0.587500X0.150000X0.587500X0*%
%ADD30RoundRect,0.250000X-0.412500X-0.650000X0.412500X-0.650000X0.412500X0.650000X-0.412500X0.650000X0*%
%ADD31RotRect,1.200000X2.200000X250.000000*%
%ADD32RotRect,1.200000X1.400000X250.000000*%
%ADD33RotRect,1.600000X1.400000X250.000000*%
%ADD34RotRect,0.700000X1.600000X250.000000*%
%ADD35RoundRect,0.250000X-0.400000X-0.625000X0.400000X-0.625000X0.400000X0.625000X-0.400000X0.625000X0*%
%ADD36RotRect,0.900000X0.900000X356.000000*%
%ADD37RotRect,1.500000X0.900000X356.000000*%
%ADD38RotRect,1.500000X0.900000X86.000000*%
%ADD39RotRect,1.500000X0.900000X176.000000*%
%ADD40RoundRect,0.150000X0.825000X0.150000X-0.825000X0.150000X-0.825000X-0.150000X0.825000X-0.150000X0*%
G04 APERTURE END LIST*
D10*
%TO.C,C12*%
X93853000Y-125691500D03*
X93853000Y-128816500D03*
%TD*%
D11*
%TO.C,J9*%
X159917873Y-94006276D03*
X159704082Y-94777180D03*
D12*
X159517015Y-95451721D03*
X159249777Y-96415352D03*
X158848919Y-97860798D03*
X158581681Y-98824428D03*
D11*
X158394614Y-99498969D03*
X158180823Y-100269874D03*
X158180823Y-100269874D03*
X158394614Y-99498969D03*
D12*
X158715300Y-98342613D03*
X158982538Y-97378982D03*
X159116157Y-96897167D03*
X159383396Y-95933537D03*
D11*
X159704082Y-94777180D03*
X159917873Y-94006276D03*
%TD*%
D13*
%TO.C,U3*%
X86600000Y-128880000D03*
X88900000Y-128880000D03*
D14*
X88900000Y-122580000D03*
D13*
X91200000Y-128880000D03*
%TD*%
D15*
%TO.C,D12*%
X85725000Y-44830000D03*
X85725000Y-41530000D03*
%TD*%
D16*
%TO.C,C18*%
X82765500Y-134620000D03*
X85890500Y-134620000D03*
%TD*%
D17*
%TO.C,R6*%
X65125000Y-135255000D03*
X68225000Y-135255000D03*
%TD*%
D18*
%TO.C,R24*%
X87884000Y-142393000D03*
X87884000Y-139293000D03*
%TD*%
D17*
%TO.C,R7*%
X91160000Y-46990000D03*
X94260000Y-46990000D03*
%TD*%
D19*
%TO.C,Q1*%
X61595000Y-133682500D03*
X60645000Y-135557500D03*
X62545000Y-135557500D03*
%TD*%
D18*
%TO.C,R12*%
X118872000Y-131852000D03*
X118872000Y-128752000D03*
%TD*%
D20*
%TO.C,U1*%
X65200000Y-120650000D03*
X65200000Y-121920000D03*
X65200000Y-123190000D03*
X65200000Y-124460000D03*
X65200000Y-125730000D03*
X65200000Y-127000000D03*
X65200000Y-128270000D03*
X65200000Y-129540000D03*
X74500000Y-129540000D03*
X74500000Y-128270000D03*
X74500000Y-127000000D03*
X74500000Y-125730000D03*
X74500000Y-124460000D03*
X74500000Y-123190000D03*
X74500000Y-121920000D03*
X74500000Y-120650000D03*
%TD*%
D21*
%TO.C,J8*%
X111294200Y-39777200D03*
X126094200Y-39777200D03*
D22*
X124444200Y-42127200D03*
X123944200Y-42127200D03*
X123444200Y-42127200D03*
X122944200Y-42127200D03*
X122444200Y-42127200D03*
X121944200Y-42127200D03*
X121444200Y-42127200D03*
X120944200Y-42127200D03*
X120444200Y-42127200D03*
X119944200Y-42127199D03*
X119444200Y-42127200D03*
X118944200Y-42127200D03*
X118444200Y-42127200D03*
X117944200Y-42127200D03*
X117444200Y-42127200D03*
X116944200Y-42127200D03*
X116444200Y-42127200D03*
X115944200Y-42127200D03*
X115444200Y-42127200D03*
X114944200Y-42127200D03*
X114444200Y-42127200D03*
X113944200Y-42127200D03*
X113444200Y-42127199D03*
X112944200Y-42127200D03*
%TD*%
D18*
%TO.C,R13*%
X121920000Y-131852000D03*
X121920000Y-128752000D03*
%TD*%
D10*
%TO.C,C49*%
X148793200Y-103847500D03*
X148793200Y-106972500D03*
%TD*%
D23*
%TO.C,C17*%
X130175000Y-142532500D03*
X130175000Y-139407500D03*
%TD*%
D24*
%TO.C,U11*%
X143294800Y-98435700D03*
X142794800Y-98435700D03*
X142294800Y-98435700D03*
X141794800Y-98435700D03*
D25*
X141082300Y-99148200D03*
X141082300Y-99648200D03*
X141082300Y-100148200D03*
X141082300Y-100648200D03*
D24*
X141794800Y-101360700D03*
X142294800Y-101360700D03*
X142794800Y-101360700D03*
X143294800Y-101360700D03*
D25*
X144007300Y-100648200D03*
X144007300Y-100148200D03*
X144007300Y-99648200D03*
X144007300Y-99148200D03*
D26*
X142969800Y-100323200D03*
X142969800Y-99473200D03*
X142119800Y-99473200D03*
X142119800Y-100323200D03*
%TD*%
D16*
%TO.C,C20*%
X118808100Y-44450000D03*
X121933100Y-44450000D03*
%TD*%
D27*
%TO.C,Y1*%
X151331000Y-106763200D03*
X154231000Y-106763200D03*
X154231000Y-104463200D03*
X151331000Y-104463200D03*
%TD*%
D17*
%TO.C,R9*%
X85445000Y-46990000D03*
X88545000Y-46990000D03*
%TD*%
D28*
%TO.C,U10*%
X154546300Y-100342700D03*
X154546300Y-99707700D03*
X154546300Y-99072700D03*
X154546300Y-98437700D03*
X154546300Y-97802700D03*
X154546300Y-97167700D03*
X154546300Y-96532700D03*
X154546300Y-95897700D03*
X149237700Y-95897700D03*
X149237700Y-96532700D03*
X149237700Y-97167700D03*
X149237700Y-97802700D03*
X149237700Y-98437700D03*
X149237700Y-99072700D03*
X149237700Y-99707700D03*
X149237700Y-100342700D03*
%TD*%
D18*
%TO.C,R35*%
X137490200Y-95657000D03*
X137490200Y-92557000D03*
%TD*%
D29*
%TO.C,Q8*%
X138099800Y-90650300D03*
X139049800Y-88775300D03*
X137149800Y-88775300D03*
%TD*%
D16*
%TO.C,C52*%
X140474300Y-105587800D03*
X143599300Y-105587800D03*
%TD*%
D23*
%TO.C,C8*%
X81407000Y-128816500D03*
X81407000Y-125691500D03*
%TD*%
D17*
%TO.C,R5*%
X65125000Y-139065000D03*
X68225000Y-139065000D03*
%TD*%
D19*
%TO.C,Q5*%
X141503400Y-86844900D03*
X140553400Y-88719900D03*
X142453400Y-88719900D03*
%TD*%
D17*
%TO.C,R26*%
X92684000Y-135128000D03*
X95784000Y-135128000D03*
%TD*%
D16*
%TO.C,C29*%
X82765500Y-132283200D03*
X85890500Y-132283200D03*
%TD*%
D18*
%TO.C,R23*%
X90424000Y-142393000D03*
X90424000Y-139293000D03*
%TD*%
D19*
%TO.C,Q4*%
X149860000Y-126697500D03*
X148910000Y-128572500D03*
X150810000Y-128572500D03*
%TD*%
D30*
%TO.C,C4*%
X83477500Y-60960000D03*
X80352500Y-60960000D03*
%TD*%
D23*
%TO.C,C23*%
X88011000Y-137325500D03*
X88011000Y-134200500D03*
%TD*%
D10*
%TO.C,C13*%
X96393000Y-125691500D03*
X96393000Y-128816500D03*
%TD*%
D31*
%TO.C,J3*%
X140483467Y-153830810D03*
D32*
X136763730Y-135982181D03*
D31*
X145784779Y-139265574D03*
D33*
X131770236Y-149701693D03*
D34*
X135900560Y-136891817D03*
X135524338Y-137925479D03*
X135148116Y-138959141D03*
X134771894Y-139992803D03*
X134395672Y-141026465D03*
X134019450Y-142060127D03*
X133643227Y-143093788D03*
X133267005Y-144127450D03*
X132890783Y-145161112D03*
%TD*%
D30*
%TO.C,C14*%
X116497500Y-60960000D03*
X113372500Y-60960000D03*
%TD*%
D29*
%TO.C,Q6*%
X93472000Y-139367500D03*
X94422000Y-137492500D03*
X92522000Y-137492500D03*
%TD*%
D35*
%TO.C,R22*%
X147269800Y-122961400D03*
X144169800Y-122961400D03*
%TD*%
D30*
%TO.C,C9*%
X99987500Y-60960000D03*
X96862500Y-60960000D03*
%TD*%
D36*
%TO.C,U2*%
X156282881Y-79741801D03*
X156185222Y-81138391D03*
X157777130Y-78442870D03*
X159173719Y-78540530D03*
X157679471Y-79839460D03*
X158978401Y-81333709D03*
X156380540Y-78345211D03*
X157581812Y-81236050D03*
X157777130Y-78442870D03*
X158978401Y-81333709D03*
X159076060Y-79937119D03*
D37*
X147992959Y-71423262D03*
X147904368Y-72690168D03*
X147815778Y-73957074D03*
X147727187Y-75223981D03*
X147638596Y-76490887D03*
X147550005Y-77757794D03*
X147461415Y-79024700D03*
X147372824Y-80291606D03*
X147284233Y-81558513D03*
X147195643Y-82825419D03*
X147107052Y-84092325D03*
X147018461Y-85359232D03*
X146929870Y-86626138D03*
X146841280Y-87893044D03*
D38*
X148514785Y-89263120D03*
X149781691Y-89351710D03*
X151048597Y-89440301D03*
X152315504Y-89528892D03*
X153582410Y-89617482D03*
X154849316Y-89706073D03*
X156116223Y-89794664D03*
X157383129Y-89883255D03*
X158650035Y-89971845D03*
X159916942Y-90060436D03*
X161183848Y-90149027D03*
X162450754Y-90237617D03*
D39*
X164298651Y-89113783D03*
X164387241Y-87846876D03*
X164475832Y-86579970D03*
X164564423Y-85313064D03*
X164653013Y-84046157D03*
X164741604Y-82779251D03*
X164830195Y-81512344D03*
X164918786Y-80245438D03*
X165007376Y-78978532D03*
X165095967Y-77711625D03*
X165184558Y-76444719D03*
X165273148Y-75177813D03*
X165361739Y-73910906D03*
X165450330Y-72644000D03*
%TD*%
D10*
%TO.C,C39*%
X168884600Y-89140900D03*
X168884600Y-92265900D03*
%TD*%
D23*
%TO.C,C51*%
X156743400Y-107023300D03*
X156743400Y-103898300D03*
%TD*%
%TO.C,C24*%
X85344000Y-142405500D03*
X85344000Y-139280500D03*
%TD*%
D17*
%TO.C,R25*%
X96240000Y-138938000D03*
X99340000Y-138938000D03*
%TD*%
%TO.C,R43*%
X151586600Y-102133400D03*
X154686600Y-102133400D03*
%TD*%
D23*
%TO.C,C10*%
X83947000Y-128816500D03*
X83947000Y-125691500D03*
%TD*%
D40*
%TO.C,Q3*%
X127065000Y-121920000D03*
X127065000Y-123190000D03*
X127065000Y-124460000D03*
X127065000Y-125730000D03*
X132015000Y-125730000D03*
X132015000Y-124460000D03*
X132015000Y-123190000D03*
X132015000Y-121920000D03*
%TD*%
D18*
%TO.C,R8*%
X135890000Y-133630000D03*
X135890000Y-130530000D03*
%TD*%
M02*
