%TF.GenerationSoftware,KiCad,Pcbnew,(6.0.11)*%
%TF.CreationDate,2024-05-07T01:49:41+08:00*%
%TF.ProjectId,badge,62616467-652e-46b6-9963-61645f706362,rev?*%
%TF.SameCoordinates,Original*%
%TF.FileFunction,Profile,NP*%
%FSLAX46Y46*%
G04 Gerber Fmt 4.6, Leading zero omitted, Abs format (unit mm)*
G04 Created by KiCad (PCBNEW (6.0.11)) date 2024-05-07 01:49:41*
%MOMM*%
%LPD*%
G01*
G04 APERTURE LIST*
%TA.AperFunction,Profile*%
%ADD10C,0.100000*%
%TD*%
%TA.AperFunction,Profile*%
%ADD11C,0.200000*%
%TD*%
G04 APERTURE END LIST*
D10*
X104176600Y-22430200D02*
X90775800Y-22430200D01*
X90775800Y-22430200D02*
X90775800Y-26713000D01*
X90775800Y-26713000D02*
X104176600Y-26713000D01*
X104176600Y-26713000D02*
X104176600Y-22430200D01*
X96811073Y-19437481D02*
X102075187Y-19662375D01*
X102366955Y-19680561D01*
X102659432Y-19722655D01*
X102952368Y-19786586D01*
X103245507Y-19870284D01*
X103538597Y-19971680D01*
X103831386Y-20088703D01*
X104123619Y-20219284D01*
X104415045Y-20361353D01*
X104705411Y-20512840D01*
X104994462Y-20671675D01*
X105567611Y-21003110D01*
X106687011Y-21663079D01*
X106958530Y-21825277D01*
X107215881Y-21994315D01*
X107459442Y-22170011D01*
X107689589Y-22352185D01*
X107906700Y-22540657D01*
X108111153Y-22735247D01*
X108303324Y-22935773D01*
X108483591Y-23142056D01*
X108652330Y-23353915D01*
X108809919Y-23571170D01*
X108956735Y-23793640D01*
X109093156Y-24021145D01*
X109219558Y-24253504D01*
X109336319Y-24490537D01*
X109443815Y-24732064D01*
X109542425Y-24977903D01*
X109714492Y-25481800D01*
X109855537Y-26000784D01*
X109968578Y-26533412D01*
X110056632Y-27078240D01*
X110122717Y-27633825D01*
X110169850Y-28198723D01*
X110201048Y-28771491D01*
X110219330Y-29350686D01*
X110227901Y-29552748D01*
X110244204Y-29754732D01*
X110267484Y-29956748D01*
X110296989Y-30158905D01*
X110331965Y-30361312D01*
X110371657Y-30564078D01*
X110462179Y-30971126D01*
X110666670Y-31794346D01*
X110768583Y-32212266D01*
X110862236Y-32635558D01*
X113395118Y-32947024D01*
X114682246Y-33118818D01*
X115326632Y-33216589D01*
X115969909Y-33325272D01*
X116472800Y-33424357D01*
X116972945Y-33538397D01*
X117471126Y-33663301D01*
X117968127Y-33794976D01*
X118961717Y-34062269D01*
X119459872Y-34189703D01*
X119959976Y-34307538D01*
X120362889Y-34390633D01*
X120768163Y-34463665D01*
X121582027Y-34595011D01*
X121988733Y-34661055D01*
X122394031Y-34732501D01*
X122796981Y-34813216D01*
X123196640Y-34907065D01*
X123841841Y-35076139D01*
X124485317Y-35252035D01*
X125768327Y-35619250D01*
X128327255Y-36380099D01*
X131145778Y-37198375D01*
X131848420Y-37408817D01*
X132548404Y-37626693D01*
X133244800Y-37854546D01*
X133936676Y-38094920D01*
X134576564Y-38332759D01*
X135211931Y-38583408D01*
X135843570Y-38844504D01*
X136472276Y-39113684D01*
X138973648Y-40224023D01*
X141246065Y-41227584D01*
X141810149Y-41486769D01*
X142370344Y-41753258D01*
X142925508Y-42029041D01*
X143474502Y-42316111D01*
X144087392Y-42653754D01*
X144694414Y-43002328D01*
X145296805Y-43359518D01*
X145895799Y-43723014D01*
X148282547Y-45193789D01*
X150307537Y-46414594D01*
X151314593Y-47033432D01*
X151814363Y-47348590D01*
X152310714Y-47668956D01*
X152610812Y-47868696D01*
X152908091Y-48073854D01*
X153202034Y-48284490D01*
X153492120Y-48500662D01*
X153777834Y-48722429D01*
X154058654Y-48949848D01*
X154334065Y-49182980D01*
X154603546Y-49421882D01*
X158128786Y-52575464D01*
X158997262Y-53376322D01*
X159850245Y-54191361D01*
X160682555Y-55025181D01*
X161089340Y-55450571D01*
X161489013Y-55882380D01*
X161763622Y-56194281D01*
X162028904Y-56514852D01*
X162285681Y-56843297D01*
X162534771Y-57178820D01*
X162776997Y-57520628D01*
X163013177Y-57867925D01*
X163470682Y-58575803D01*
X165222931Y-61467818D01*
X165826815Y-62451311D01*
X166122175Y-62947977D01*
X166410547Y-63448617D01*
X166689979Y-63953751D01*
X166958519Y-64463898D01*
X167214218Y-64979578D01*
X167455124Y-65501311D01*
X167736357Y-66153728D01*
X168005141Y-66811901D01*
X168263125Y-67474936D01*
X168511961Y-68141937D01*
X168988783Y-69484258D01*
X169448806Y-70831706D01*
X169658361Y-71465096D01*
X169860443Y-72101016D01*
X170248686Y-73378240D01*
X171006988Y-75938823D01*
X171009232Y-75946671D01*
X171011257Y-75954599D01*
X171013078Y-75962601D01*
X171014707Y-75970668D01*
X171017449Y-75986967D01*
X171019590Y-76003434D01*
X171021242Y-76020008D01*
X171022513Y-76036627D01*
X171024353Y-76069751D01*
X171345859Y-81661278D01*
X171416320Y-83059068D01*
X171470488Y-84456704D01*
X171502200Y-85854126D01*
X171505295Y-87251277D01*
X171495467Y-87649599D01*
X171474157Y-88048105D01*
X171442280Y-88446727D01*
X171400756Y-88845397D01*
X171292435Y-89642617D01*
X171156538Y-90439228D01*
X171000406Y-91234693D01*
X170831384Y-92028477D01*
X170484039Y-93608851D01*
X170321881Y-94320737D01*
X170144860Y-95029413D01*
X169956332Y-95735610D01*
X169759651Y-96440056D01*
X169355250Y-97846614D01*
X168958496Y-99254924D01*
X168567144Y-100768495D01*
X168185936Y-102285599D01*
X167986377Y-103040854D01*
X167774045Y-103791448D01*
X167543837Y-104535532D01*
X167290649Y-105271258D01*
X167053930Y-105889813D01*
X166797331Y-106502844D01*
X166522138Y-107109607D01*
X166229631Y-107709357D01*
X165921095Y-108301350D01*
X165597813Y-108884840D01*
X165261067Y-109459083D01*
X164912140Y-110023333D01*
X164757695Y-110259678D01*
X164597088Y-110492217D01*
X164430852Y-110721259D01*
X164259522Y-110947112D01*
X164083632Y-111170086D01*
X163903716Y-111390488D01*
X163533943Y-111824814D01*
X163154477Y-112252558D01*
X162769591Y-112676189D01*
X162000656Y-113520991D01*
X161943211Y-113580935D01*
X161881979Y-113637352D01*
X161817388Y-113690658D01*
X161749863Y-113741267D01*
X161679831Y-113789596D01*
X161607719Y-113836060D01*
X161458961Y-113925051D01*
X161155254Y-114098916D01*
X161080525Y-114143947D01*
X161007130Y-114190434D01*
X160935493Y-114238793D01*
X160866043Y-114289439D01*
X160521248Y-114558346D01*
X160186061Y-114834039D01*
X159861899Y-115117298D01*
X159550178Y-115408907D01*
X159252313Y-115709646D01*
X158969720Y-116020296D01*
X158703816Y-116341640D01*
X158456016Y-116674458D01*
X158227736Y-117019534D01*
X158020392Y-117377647D01*
X157835400Y-117749579D01*
X157751728Y-117940972D01*
X157674175Y-118136113D01*
X157602919Y-118335100D01*
X157538135Y-118538029D01*
X157480000Y-118745000D01*
X157428693Y-118956110D01*
X157384390Y-119171456D01*
X157347267Y-119391136D01*
X157317502Y-119615248D01*
X157295272Y-119843890D01*
X157142987Y-121976765D01*
X157013065Y-124111417D01*
X156886319Y-126246357D01*
X156743561Y-128380099D01*
X156633420Y-129689531D01*
X156503055Y-130997483D01*
X156223068Y-133611834D01*
X155974931Y-136097738D01*
X155839330Y-137339123D01*
X155763015Y-137958593D01*
X155678878Y-138576930D01*
X155446543Y-140172801D01*
X155199049Y-141766856D01*
X155065759Y-142562121D01*
X154924051Y-143355635D01*
X154772381Y-144146965D01*
X154609207Y-144935679D01*
X154446584Y-145647496D01*
X154268496Y-146355948D01*
X154078726Y-147061875D01*
X153881054Y-147766118D01*
X153477126Y-149172915D01*
X153086960Y-150583064D01*
X152947078Y-151128561D01*
X152813095Y-151675694D01*
X152552555Y-152771941D01*
X152284799Y-153865950D01*
X152141797Y-154410287D01*
X151989288Y-154951869D01*
X151621551Y-156171667D01*
X151233259Y-157385713D01*
X150823152Y-158592466D01*
X150389969Y-159790385D01*
X149909571Y-161066005D01*
X149411346Y-162335776D01*
X149151299Y-162965853D01*
X148881696Y-163591329D01*
X148600837Y-164211156D01*
X148307022Y-164824290D01*
X147214436Y-167029066D01*
X146100651Y-169224150D01*
X145529578Y-170313869D01*
X144945729Y-171396136D01*
X144346612Y-172469275D01*
X143729736Y-173531611D01*
X143108089Y-174556895D01*
X142468107Y-175571590D01*
X141812530Y-176577114D01*
X141144098Y-177574883D01*
X139779625Y-179552825D01*
X138396606Y-181516749D01*
X137920825Y-182182712D01*
X137437295Y-182843888D01*
X136945840Y-183499687D01*
X136446287Y-184149514D01*
X135938459Y-184792777D01*
X135422180Y-185428884D01*
X134897276Y-186057241D01*
X134363571Y-186677257D01*
X132867577Y-188380871D01*
X132112157Y-189227156D01*
X131348753Y-190065942D01*
X130575088Y-190894364D01*
X129788888Y-191709559D01*
X128987873Y-192508663D01*
X128169769Y-193288813D01*
X127853815Y-193576262D01*
X127531555Y-193857251D01*
X127203496Y-194132245D01*
X126870144Y-194401705D01*
X126189585Y-194925875D01*
X125493927Y-195433463D01*
X124787219Y-195928169D01*
X124073512Y-196413694D01*
X122641296Y-197372004D01*
X120848883Y-198553669D01*
X119039349Y-199710017D01*
X117215969Y-200844770D01*
X115382019Y-201961650D01*
X114855770Y-202265172D01*
X114319425Y-202552451D01*
X113232303Y-203103160D01*
X112689456Y-203379031D01*
X112152369Y-203663539D01*
X111625007Y-203962906D01*
X111366212Y-204120105D01*
X111111335Y-204283351D01*
X110936134Y-204404043D01*
X110765492Y-204531561D01*
X110598921Y-204665189D01*
X110435936Y-204804213D01*
X110276050Y-204947918D01*
X110118776Y-205095590D01*
X109810123Y-205399974D01*
X109202770Y-206024894D01*
X108896288Y-206333996D01*
X108740644Y-206485205D01*
X108582748Y-206633235D01*
X108278390Y-206921196D01*
X107980381Y-207217256D01*
X107395335Y-207823418D01*
X106811458Y-208431220D01*
X106514909Y-208729328D01*
X106212594Y-209020158D01*
X105902494Y-209301146D01*
X105582589Y-209569730D01*
X105250861Y-209823348D01*
X104905291Y-210059435D01*
X104543857Y-210275430D01*
X104356561Y-210375092D01*
X104164543Y-210468770D01*
X103967549Y-210556143D01*
X103765328Y-210636891D01*
X103557626Y-210710695D01*
X103344192Y-210777232D01*
X102972974Y-210891324D01*
X102602481Y-211013911D01*
X101861560Y-211261035D01*
X101490079Y-211373806D01*
X101303853Y-211424919D01*
X101117215Y-211471538D01*
X100930101Y-211512926D01*
X100742443Y-211548348D01*
X100554176Y-211577069D01*
X100365234Y-211598353D01*
X99790388Y-211639078D01*
X99213793Y-211659569D01*
X98635843Y-211664888D01*
X98056930Y-211660096D01*
X96897790Y-211640421D01*
X96318349Y-211635660D01*
X95739517Y-211641032D01*
X95287155Y-211639385D01*
X94841462Y-211616281D01*
X94401889Y-211573148D01*
X93967887Y-211511417D01*
X93538906Y-211432516D01*
X93114397Y-211337877D01*
X92693810Y-211228928D01*
X92276597Y-211107098D01*
X91862207Y-210973819D01*
X91450092Y-210830519D01*
X90630489Y-210519575D01*
X89813392Y-210185704D01*
X88994407Y-209840342D01*
X88848012Y-209774981D01*
X88707467Y-209705371D01*
X88572507Y-209631709D01*
X88442871Y-209554193D01*
X88318297Y-209473019D01*
X88198522Y-209388384D01*
X88083282Y-209300486D01*
X87972316Y-209209521D01*
X87865361Y-209115686D01*
X87762154Y-209019179D01*
X87565935Y-208818935D01*
X87381558Y-208610364D01*
X87206923Y-208395043D01*
X87039929Y-208174548D01*
X86878475Y-207950454D01*
X86563786Y-207497776D01*
X86246050Y-207049617D01*
X86080788Y-206831173D01*
X85908462Y-206618586D01*
X85519102Y-206179961D01*
X85114668Y-205766530D01*
X84696214Y-205376392D01*
X84264797Y-205007649D01*
X83821470Y-204658399D01*
X83367289Y-204326744D01*
X82903310Y-204010782D01*
X82430586Y-203708615D01*
X81950172Y-203418342D01*
X81463125Y-203138063D01*
X80473348Y-202599888D01*
X78460602Y-201559871D01*
X77581978Y-201093033D01*
X76711349Y-200610851D01*
X74986176Y-199615474D01*
X73269290Y-198603789D01*
X71544899Y-197605845D01*
X71138006Y-197367810D01*
X70739579Y-197119673D01*
X70349086Y-196862039D01*
X69965997Y-196595509D01*
X69589779Y-196320688D01*
X69219902Y-196038178D01*
X68855835Y-195748582D01*
X68497046Y-195452502D01*
X67793180Y-194843306D01*
X67104054Y-194215413D01*
X66425420Y-193573647D01*
X65753029Y-192922831D01*
X65598730Y-192777889D01*
X65439369Y-192637870D01*
X65275769Y-192501997D01*
X65108754Y-192369492D01*
X64767772Y-192111475D01*
X64423012Y-191857598D01*
X64081062Y-191601641D01*
X63913201Y-191470938D01*
X63748513Y-191337382D01*
X63587822Y-191200195D01*
X63431952Y-191058600D01*
X63281727Y-190911819D01*
X63137970Y-190759074D01*
X61560198Y-188985247D01*
X60003756Y-187191886D01*
X58473440Y-185376477D01*
X57719577Y-184459720D01*
X56974044Y-183536509D01*
X56463240Y-182886001D01*
X55963229Y-182226311D01*
X55473310Y-181558387D01*
X54992784Y-180883176D01*
X54520950Y-180201625D01*
X54057107Y-179514683D01*
X53600554Y-178823296D01*
X53150593Y-178128413D01*
X52788056Y-177548381D01*
X52437756Y-176960394D01*
X52097479Y-176365945D01*
X51765012Y-175766528D01*
X50468940Y-173349025D01*
X49877633Y-172250959D01*
X49293069Y-171148925D01*
X49007110Y-170594854D01*
X48727390Y-170037913D01*
X48455427Y-169477474D01*
X48192737Y-168912913D01*
X47916967Y-168290741D01*
X47651130Y-167664070D01*
X47139919Y-166401429D01*
X46640432Y-165133395D01*
X46133999Y-163868373D01*
X45728701Y-162891936D01*
X45318313Y-161917573D01*
X44909469Y-160942600D01*
X44508804Y-159964335D01*
X43728377Y-158011512D01*
X43353770Y-157029338D01*
X43174088Y-156535656D01*
X43000904Y-156039805D01*
X42587403Y-154803760D01*
X42190280Y-153561959D01*
X41812406Y-152314331D01*
X41456657Y-151060801D01*
X41406913Y-150870153D01*
X41361301Y-150678400D01*
X41280316Y-150292146D01*
X41209382Y-149903166D01*
X41144179Y-149512587D01*
X41013687Y-148731146D01*
X40939758Y-148342539D01*
X40854282Y-147956843D01*
X40755630Y-147567629D01*
X40649332Y-147180265D01*
X40537150Y-146794321D01*
X40420848Y-146409366D01*
X40182935Y-145640698D01*
X39949699Y-144870814D01*
X39927796Y-144793072D01*
X39907431Y-144714804D01*
X39888505Y-144636088D01*
X39870920Y-144557004D01*
X39854578Y-144477628D01*
X39839380Y-144398039D01*
X39825228Y-144318316D01*
X39812023Y-144238536D01*
X39271417Y-140860372D01*
X38739826Y-137480807D01*
X38675762Y-137024654D01*
X38620713Y-136566321D01*
X38517587Y-135648295D01*
X38459473Y-135191195D01*
X38390298Y-134737096D01*
X38305044Y-134287296D01*
X38254819Y-134064412D01*
X38198692Y-133843089D01*
X38031455Y-133139745D01*
X37904284Y-132434750D01*
X37812369Y-131728348D01*
X37750897Y-131020785D01*
X37715058Y-130312306D01*
X37700038Y-129603154D01*
X37713214Y-128183816D01*
X37777696Y-125347851D01*
X37773692Y-124640853D01*
X37752016Y-123935142D01*
X37707855Y-123230962D01*
X37636398Y-122528560D01*
X37492495Y-121427555D01*
X37409534Y-120877848D01*
X37314845Y-120330952D01*
X37205133Y-119788578D01*
X37077106Y-119252437D01*
X36927471Y-118724241D01*
X36752936Y-118205700D01*
X36550207Y-117698525D01*
X36315992Y-117204429D01*
X36046998Y-116725121D01*
X35739932Y-116262313D01*
X35391500Y-115817716D01*
X35200744Y-115602781D01*
X34998412Y-115393041D01*
X34784092Y-115188709D01*
X34557372Y-114989999D01*
X34317842Y-114797125D01*
X34065090Y-114610301D01*
X33900180Y-114486960D01*
X33741127Y-114355617D01*
X33587179Y-114217265D01*
X33437586Y-114072897D01*
X33291597Y-113923506D01*
X33148461Y-113770086D01*
X32867745Y-113455131D01*
X32589432Y-113135977D01*
X32307516Y-112820570D01*
X32163329Y-112666755D01*
X32015989Y-112516857D01*
X31864746Y-112371868D01*
X31708847Y-112232783D01*
X31326645Y-111893541D01*
X30961136Y-111545078D01*
X30612286Y-111187224D01*
X30280061Y-110819809D01*
X29964428Y-110442663D01*
X29665354Y-110055616D01*
X29382805Y-109658497D01*
X29116748Y-109251137D01*
X28867149Y-108833365D01*
X28633975Y-108405011D01*
X28417193Y-107965906D01*
X28216769Y-107515879D01*
X28032669Y-107054761D01*
X27864861Y-106582380D01*
X27713310Y-106098567D01*
X27577983Y-105603152D01*
X27506707Y-105335734D01*
X27429419Y-105069673D01*
X27259199Y-104540348D01*
X27072104Y-104012623D01*
X26872913Y-103483944D01*
X26457359Y-102413505D01*
X26250554Y-101866636D01*
X26050770Y-101308596D01*
X25274778Y-98187710D01*
X24873115Y-96669125D01*
X24659598Y-95918497D01*
X24434093Y-95172961D01*
X24323619Y-94797273D01*
X24225388Y-94419391D01*
X24137903Y-94039669D01*
X24059667Y-93658457D01*
X23924951Y-92892970D01*
X23809264Y-92125742D01*
X23587067Y-90597311D01*
X23456602Y-89841732D01*
X23381288Y-89467332D01*
X23297256Y-89095660D01*
X23187536Y-88596029D01*
X23097471Y-88097598D01*
X23025346Y-87600274D01*
X22969443Y-87103966D01*
X22928044Y-86608583D01*
X22899433Y-86114031D01*
X22873706Y-85127058D01*
X22878524Y-84142311D01*
X22900149Y-83159057D01*
X22924844Y-82176560D01*
X22938873Y-81194087D01*
X22947108Y-80862235D01*
X22968182Y-80530439D01*
X23000814Y-80198695D01*
X23043725Y-79866995D01*
X23095634Y-79535333D01*
X23155263Y-79203704D01*
X23292560Y-78540517D01*
X23603476Y-77214253D01*
X23756619Y-76551077D01*
X23894569Y-75887805D01*
X23962785Y-75514835D01*
X24026781Y-75140711D01*
X24152775Y-74391957D01*
X24220104Y-74018803D01*
X24293877Y-73647451D01*
X24376759Y-73278637D01*
X24471416Y-72913100D01*
X24801718Y-71761305D01*
X25151207Y-70616843D01*
X25524215Y-69481220D01*
X25925077Y-68355941D01*
X26358127Y-67242513D01*
X26827699Y-66142441D01*
X27338127Y-65057232D01*
X27610017Y-64520671D01*
X27893745Y-63988391D01*
X28445357Y-62996589D01*
X29013385Y-62018233D01*
X29603635Y-61056724D01*
X30221909Y-60115467D01*
X30543369Y-59653495D01*
X30874012Y-59197862D01*
X31214563Y-58748994D01*
X31565748Y-58307315D01*
X31928292Y-57873251D01*
X32302921Y-57447227D01*
X32690360Y-57029668D01*
X33091335Y-56621001D01*
X33272492Y-56434797D01*
X33447752Y-56242212D01*
X33618065Y-56044311D01*
X33784380Y-55842160D01*
X34108820Y-55429378D01*
X34428670Y-55012393D01*
X34751530Y-54599737D01*
X34916463Y-54397698D01*
X35085000Y-54199939D01*
X35258088Y-54007527D01*
X35436679Y-53821529D01*
X35621722Y-53643010D01*
X35814167Y-53473037D01*
X36673954Y-52763642D01*
X37545712Y-52068542D01*
X39313276Y-50706931D01*
X41093132Y-49359612D01*
X42861557Y-47997996D01*
X43322680Y-47646122D01*
X43791598Y-47307411D01*
X44267494Y-46980504D01*
X44749550Y-46664038D01*
X45728869Y-46056991D01*
X46723014Y-45475383D01*
X48729610Y-44344945D01*
X49728975Y-43774343D01*
X50716995Y-43185637D01*
X51184016Y-42906240D01*
X51654437Y-42638403D01*
X52604695Y-42134016D01*
X53566209Y-41665692D01*
X54537417Y-41226650D01*
X55516759Y-40810107D01*
X56502673Y-40409280D01*
X58487976Y-39627643D01*
X60095839Y-38977408D01*
X61699480Y-38315584D01*
X62503176Y-37990465D01*
X63309968Y-37674617D01*
X64121237Y-37372094D01*
X64938369Y-37086953D01*
X65235689Y-36991120D01*
X65535151Y-36901759D01*
X66139605Y-36739699D01*
X66749943Y-36595268D01*
X67364375Y-36462957D01*
X68598367Y-36212665D01*
X69214349Y-36083669D01*
X69827270Y-35944764D01*
X76132141Y-34397757D01*
X78512380Y-33831570D01*
X79705719Y-33563393D01*
X80903023Y-33315673D01*
X81046836Y-33283901D01*
X81190226Y-33245099D01*
X81332988Y-33199497D01*
X81474914Y-33147324D01*
X81615801Y-33088809D01*
X81755442Y-33024180D01*
X82030164Y-32877501D01*
X82297435Y-32709117D01*
X82555611Y-32520862D01*
X82803047Y-32314569D01*
X83038096Y-32092068D01*
X83259115Y-31855194D01*
X83464459Y-31605778D01*
X83652482Y-31345653D01*
X83821540Y-31076651D01*
X83969987Y-30800604D01*
X84096178Y-30519346D01*
X84198469Y-30234708D01*
X84240138Y-30091695D01*
X84275215Y-29948523D01*
X84628086Y-28397338D01*
X84813601Y-27623414D01*
X85007167Y-26851560D01*
X85210281Y-26082492D01*
X85424438Y-25316928D01*
X85651138Y-24555585D01*
X85891876Y-23799181D01*
X85940412Y-23668272D01*
X85998817Y-23538927D01*
X86066347Y-23411325D01*
X86142261Y-23285645D01*
X86225817Y-23162067D01*
X86316271Y-23040769D01*
X86412883Y-22921931D01*
X86514908Y-22805732D01*
X86621607Y-22692351D01*
X86732234Y-22581968D01*
X86846050Y-22474762D01*
X86962310Y-22370912D01*
X87080274Y-22270598D01*
X87199197Y-22173998D01*
X87318340Y-22081292D01*
X87436958Y-21992659D01*
X87669614Y-21826754D01*
X87905545Y-21667449D01*
X88144741Y-21514570D01*
X88387190Y-21367946D01*
X88632882Y-21227404D01*
X88881805Y-21092770D01*
X89133949Y-20963872D01*
X89389302Y-20840538D01*
X89647854Y-20722595D01*
X89909594Y-20609869D01*
X90174511Y-20502188D01*
X90442593Y-20399380D01*
X90713831Y-20301271D01*
X90988212Y-20207689D01*
X91546364Y-20033416D01*
X92202100Y-19859114D01*
X92858781Y-19719607D01*
X93516270Y-19611754D01*
X94174432Y-19532419D01*
X94833129Y-19478462D01*
X95492226Y-19446746D01*
X96151586Y-19434131D01*
X96811073Y-19437481D01*
D11*
%TO.C,U5*%
X62270000Y-67216000D02*
X133020000Y-67216000D01*
X133020000Y-67216000D02*
X133020000Y-115776000D01*
X133020000Y-115776000D02*
X62270000Y-115776000D01*
X62270000Y-115776000D02*
X62270000Y-67216000D01*
G36*
X62270000Y-67216000D02*
G01*
X133020000Y-67216000D01*
X133020000Y-115776000D01*
X62270000Y-115776000D01*
X62270000Y-67216000D01*
G37*
%TD*%
M02*
