%TF.GenerationSoftware,KiCad,Pcbnew,(6.0.11)*%
%TF.CreationDate,2024-05-07T01:49:41+08:00*%
%TF.ProjectId,badge,62616467-652e-46b6-9963-61645f706362,rev?*%
%TF.SameCoordinates,Original*%
%TF.FileFunction,Paste,Top*%
%TF.FilePolarity,Positive*%
%FSLAX46Y46*%
G04 Gerber Fmt 4.6, Leading zero omitted, Abs format (unit mm)*
G04 Created by KiCad (PCBNEW (6.0.11)) date 2024-05-07 01:49:41*
%MOMM*%
%LPD*%
G01*
G04 APERTURE LIST*
G04 Aperture macros list*
%AMRoundRect*
0 Rectangle with rounded corners*
0 $1 Rounding radius*
0 $2 $3 $4 $5 $6 $7 $8 $9 X,Y pos of 4 corners*
0 Add a 4 corners polygon primitive as box body*
4,1,4,$2,$3,$4,$5,$6,$7,$8,$9,$2,$3,0*
0 Add four circle primitives for the rounded corners*
1,1,$1+$1,$2,$3*
1,1,$1+$1,$4,$5*
1,1,$1+$1,$6,$7*
1,1,$1+$1,$8,$9*
0 Add four rect primitives between the rounded corners*
20,1,$1+$1,$2,$3,$4,$5,0*
20,1,$1+$1,$4,$5,$6,$7,0*
20,1,$1+$1,$6,$7,$8,$9,0*
20,1,$1+$1,$8,$9,$2,$3,0*%
G04 Aperture macros list end*
%ADD10R,1.200000X0.900000*%
%ADD11R,2.195000X2.195000*%
%ADD12RoundRect,0.250000X-0.412500X-0.650000X0.412500X-0.650000X0.412500X0.650000X-0.412500X0.650000X0*%
%ADD13RoundRect,0.250000X-0.625000X0.400000X-0.625000X-0.400000X0.625000X-0.400000X0.625000X0.400000X0*%
%ADD14R,2.000000X1.500000*%
%ADD15RoundRect,0.250000X0.400000X0.625000X-0.400000X0.625000X-0.400000X-0.625000X0.400000X-0.625000X0*%
%ADD16RoundRect,0.250000X0.625000X-0.400000X0.625000X0.400000X-0.625000X0.400000X-0.625000X-0.400000X0*%
%ADD17RoundRect,0.250000X-0.650000X0.412500X-0.650000X-0.412500X0.650000X-0.412500X0.650000X0.412500X0*%
%ADD18RoundRect,0.250000X0.650000X-0.412500X0.650000X0.412500X-0.650000X0.412500X-0.650000X-0.412500X0*%
%ADD19RoundRect,0.250000X0.412500X0.650000X-0.412500X0.650000X-0.412500X-0.650000X0.412500X-0.650000X0*%
%ADD20R,1.500000X0.900000*%
%ADD21RoundRect,0.250000X-0.400000X-0.625000X0.400000X-0.625000X0.400000X0.625000X-0.400000X0.625000X0*%
%ADD22RoundRect,0.150000X-0.150000X0.587500X-0.150000X-0.587500X0.150000X-0.587500X0.150000X0.587500X0*%
%ADD23RoundRect,0.250000X-0.751301X-0.167938X-0.167938X-0.751301X0.751301X0.167938X0.167938X0.751301X0*%
%ADD24R,4.000000X3.500000*%
%ADD25RoundRect,0.250001X-0.624999X0.462499X-0.624999X-0.462499X0.624999X-0.462499X0.624999X0.462499X0*%
%ADD26RoundRect,0.150000X0.150000X-0.587500X0.150000X0.587500X-0.150000X0.587500X-0.150000X-0.587500X0*%
%ADD27R,1.000000X1.550000*%
%ADD28R,0.600000X0.240000*%
%ADD29RoundRect,0.025000X-0.100000X-0.145000X0.100000X-0.145000X0.100000X0.145000X-0.100000X0.145000X0*%
%ADD30RoundRect,0.106000X-0.644000X-0.424000X0.644000X-0.424000X0.644000X0.424000X-0.644000X0.424000X0*%
G04 APERTURE END LIST*
D10*
%TO.C,D17*%
X130810000Y-142952200D03*
X130810000Y-146252200D03*
%TD*%
D11*
%TO.C,BZ1*%
X137905000Y-137685000D03*
X137905000Y-130285000D03*
X145305000Y-130285000D03*
%TD*%
D12*
%TO.C,C32*%
X163410500Y-96367600D03*
X166535500Y-96367600D03*
%TD*%
D13*
%TO.C,R28*%
X100584000Y-129006000D03*
X100584000Y-132106000D03*
%TD*%
D14*
%TO.C,SW1*%
X87325000Y-149646000D03*
X73025000Y-149646000D03*
X73025000Y-154646000D03*
X87325000Y-154646000D03*
%TD*%
D15*
%TO.C,R15*%
X138710000Y-146685000D03*
X135610000Y-146685000D03*
%TD*%
D14*
%TO.C,SW4*%
X72860000Y-175046000D03*
X87160000Y-175046000D03*
X87160000Y-180046000D03*
X72860000Y-180046000D03*
%TD*%
D10*
%TO.C,D1*%
X91313000Y-153923000D03*
X91313000Y-150623000D03*
%TD*%
D14*
%TO.C,SW7*%
X72174000Y-162346000D03*
X57874000Y-162346000D03*
X57874000Y-167346000D03*
X72174000Y-167346000D03*
%TD*%
D16*
%TO.C,R16*%
X140335000Y-144425000D03*
X140335000Y-141325000D03*
%TD*%
D17*
%TO.C,C3*%
X68580000Y-121627500D03*
X68580000Y-124752500D03*
%TD*%
D18*
%TO.C,C2*%
X161290000Y-101892500D03*
X161290000Y-98767500D03*
%TD*%
D10*
%TO.C,D9*%
X65151000Y-149605000D03*
X65151000Y-146305000D03*
%TD*%
D19*
%TO.C,C31*%
X86195300Y-141122400D03*
X83070300Y-141122400D03*
%TD*%
D18*
%TO.C,C26*%
X103378000Y-132131000D03*
X103378000Y-129006000D03*
%TD*%
D10*
%TO.C,D8*%
X111048800Y-180440600D03*
X111048800Y-177140600D03*
%TD*%
D13*
%TO.C,R3*%
X71120000Y-121640000D03*
X71120000Y-124740000D03*
%TD*%
D16*
%TO.C,R30*%
X163753800Y-105816400D03*
X163753800Y-102716400D03*
%TD*%
D10*
%TO.C,D4*%
X68961000Y-179196000D03*
X68961000Y-175896000D03*
%TD*%
%TO.C,D6*%
X97155000Y-187451000D03*
X97155000Y-184151000D03*
%TD*%
D20*
%TO.C,D11*%
X95975000Y-59310000D03*
X95975000Y-62610000D03*
X100875000Y-62610000D03*
X100875000Y-59310000D03*
%TD*%
D21*
%TO.C,R1*%
X58140000Y-121920000D03*
X61240000Y-121920000D03*
%TD*%
D15*
%TO.C,R31*%
X166497600Y-98679000D03*
X163397600Y-98679000D03*
%TD*%
D13*
%TO.C,R4*%
X73660000Y-121640000D03*
X73660000Y-124740000D03*
%TD*%
D18*
%TO.C,C1*%
X161290000Y-96812500D03*
X161290000Y-93687500D03*
%TD*%
D14*
%TO.C,SW9*%
X61252000Y-145455000D03*
X46952000Y-145455000D03*
X61252000Y-150455000D03*
X46952000Y-150455000D03*
%TD*%
D15*
%TO.C,R29*%
X163957600Y-107899200D03*
X160857600Y-107899200D03*
%TD*%
D14*
%TO.C,SW8*%
X127800000Y-169204000D03*
X113500000Y-169204000D03*
X113500000Y-174204000D03*
X127800000Y-174204000D03*
%TD*%
D20*
%TO.C,D10*%
X79465000Y-59310000D03*
X79465000Y-62610000D03*
X84365000Y-62610000D03*
X84365000Y-59310000D03*
%TD*%
D17*
%TO.C,C7*%
X147320000Y-84162500D03*
X147320000Y-87287500D03*
%TD*%
D21*
%TO.C,R10*%
X49885000Y-84455000D03*
X52985000Y-84455000D03*
%TD*%
D17*
%TO.C,C28*%
X147878800Y-131685900D03*
X147878800Y-134810900D03*
%TD*%
D18*
%TO.C,C27*%
X153797000Y-92621500D03*
X153797000Y-89496500D03*
%TD*%
D16*
%TO.C,R27*%
X106172000Y-132106000D03*
X106172000Y-129006000D03*
%TD*%
%TO.C,R20*%
X143510000Y-144425000D03*
X143510000Y-141325000D03*
%TD*%
D19*
%TO.C,C21*%
X85890500Y-132207000D03*
X82765500Y-132207000D03*
%TD*%
D21*
%TO.C,R2*%
X58140000Y-124460000D03*
X61240000Y-124460000D03*
%TD*%
D18*
%TO.C,C11*%
X52832000Y-97574500D03*
X52832000Y-94449500D03*
%TD*%
%TO.C,C5*%
X148590000Y-101892500D03*
X148590000Y-98767500D03*
%TD*%
D22*
%TO.C,Q7*%
X168844000Y-92331300D03*
X166944000Y-92331300D03*
X167894000Y-94206300D03*
%TD*%
D15*
%TO.C,R21*%
X138710000Y-149225000D03*
X135610000Y-149225000D03*
%TD*%
D23*
%TO.C,C19*%
X33947146Y-60363146D03*
X36156854Y-62572854D03*
%TD*%
D24*
%TO.C,L1*%
X76454000Y-134176000D03*
X76454000Y-142176000D03*
%TD*%
D14*
%TO.C,SW5*%
X125387200Y-155742000D03*
X139687200Y-155742000D03*
X139687200Y-160742000D03*
X125387200Y-160742000D03*
%TD*%
D19*
%TO.C,C16*%
X85890500Y-134620000D03*
X82765500Y-134620000D03*
%TD*%
D25*
%TO.C,FB1*%
X78740000Y-125120400D03*
X78740000Y-128095400D03*
%TD*%
D14*
%TO.C,SW2*%
X87846000Y-162346000D03*
X102146000Y-162346000D03*
X102146000Y-167346000D03*
X87846000Y-167346000D03*
%TD*%
D13*
%TO.C,R19*%
X137160000Y-141325000D03*
X137160000Y-144425000D03*
%TD*%
D10*
%TO.C,D5*%
X121412000Y-160019000D03*
X121412000Y-156719000D03*
%TD*%
D19*
%TO.C,C15*%
X98717500Y-42672000D03*
X95592500Y-42672000D03*
%TD*%
D10*
%TO.C,D2*%
X106045000Y-166496000D03*
X106045000Y-163196000D03*
%TD*%
D26*
%TO.C,Q2*%
X53152000Y-107363500D03*
X55052000Y-107363500D03*
X54102000Y-105488500D03*
%TD*%
D27*
%TO.C,SW10*%
X95290000Y-135840000D03*
X97790000Y-135840000D03*
X100290000Y-135840000D03*
X95290000Y-142290000D03*
X97790000Y-142290000D03*
X100290000Y-142290000D03*
%TD*%
D14*
%TO.C,SW6*%
X113830000Y-192826000D03*
X99530000Y-192826000D03*
X113830000Y-197826000D03*
X99530000Y-197826000D03*
%TD*%
D17*
%TO.C,C6*%
X145415000Y-63842500D03*
X145415000Y-66967500D03*
%TD*%
D20*
%TO.C,D15*%
X112485000Y-59310000D03*
X112485000Y-62610000D03*
X117385000Y-62610000D03*
X117385000Y-59310000D03*
%TD*%
D14*
%TO.C,SW3*%
X80480000Y-192826000D03*
X94780000Y-192826000D03*
X94780000Y-197826000D03*
X80480000Y-197826000D03*
%TD*%
D10*
%TO.C,D16*%
X150266400Y-131470400D03*
X150266400Y-134770400D03*
%TD*%
D16*
%TO.C,R11*%
X57150000Y-111786000D03*
X57150000Y-108686000D03*
%TD*%
D17*
%TO.C,C30*%
X88341200Y-140893000D03*
X88341200Y-144018000D03*
%TD*%
D10*
%TO.C,D7*%
X53975000Y-166496000D03*
X53975000Y-163196000D03*
%TD*%
%TO.C,D3*%
X76581000Y-197103000D03*
X76581000Y-193803000D03*
%TD*%
D28*
%TO.C,U6*%
X85474000Y-136922000D03*
X85474000Y-137422000D03*
X85474000Y-137922000D03*
X85474000Y-138422000D03*
X85474000Y-138922000D03*
X82674000Y-138922000D03*
X82674000Y-138422000D03*
X82674000Y-137922000D03*
X82674000Y-137422000D03*
X82674000Y-136922000D03*
D29*
X83824000Y-139452000D03*
X84324000Y-136392000D03*
X84324000Y-139452000D03*
D30*
X84074000Y-138552000D03*
X84074000Y-137292000D03*
D29*
X83824000Y-136392000D03*
%TD*%
M02*
