M48
; DRILL file {KiCad 7.0.11+dfsg-1build4} date Thu 30 Apr 2026 05:14:53 PM HKT
; FORMAT={3:3/ absolute / metric / suppress leading zeros}
; #@! TF.CreationDate,2026-04-30T17:14:53+08:00
; #@! TF.GenerationSoftware,Kicad,Pcbnew,7.0.11+dfsg-1build4
; #@! TF.FileFunction,Plated,1,2,PTH
FMAT,2
METRIC,TZ
; #@! TA.AperFunction,Plated,PTH,ViaDrill
T1C0.300
; #@! TA.AperFunction,Plated,PTH,ComponentDrill
T2C0.300
; #@! TA.AperFunction,Plated,PTH,ViaDrill
T3C0.400
; #@! TA.AperFunction,Plated,PTH,ViaDrill
T4C0.600
; #@! TA.AperFunction,Plated,PTH,ComponentDrill
T5C0.600
; #@! TA.AperFunction,Plated,PTH,ComponentDrill
T6C0.900
; #@! TA.AperFunction,Plated,PTH,ComponentDrill
T7C1.000
; #@! TA.AperFunction,Plated,PTH,ComponentDrill
T8C1.020
; #@! TA.AperFunction,Plated,PTH,ComponentDrill
T9C1.100
%
G90
G05
T1
X24765Y-75903
X24765Y-81618
X24765Y-87333
X24765Y-93048
X26670Y-70188
X26670Y-96858
X28575Y-64473
X28575Y-73998
X28575Y-79713
X28575Y-85428
X28575Y-91143
X28575Y-100668
X30480Y-68283
X30480Y-94953
X30480Y-104478
X32385Y-62568
X32385Y-72093
X32385Y-77808
X32385Y-83523
X32385Y-89238
X32385Y-98763
X32385Y-108288
X34290Y-56853
X34290Y-93048
X34290Y-102573
X34290Y-112098
X36195Y-70188
X36195Y-75903
X36195Y-81618
X36195Y-87333
X36195Y-96858
X36195Y-106383
X38100Y-53043
X38100Y-62568
X38100Y-91143
X38100Y-100668
X38100Y-110193
X38100Y-115908
X40005Y-73998
X40005Y-79713
X40005Y-85428
X40005Y-94953
X40005Y-104478
X40005Y-119718
X40005Y-125433
X40005Y-131148
X40005Y-136863
X41910Y-66378
X41910Y-89238
X41910Y-98763
X41910Y-108288
X41910Y-114003
X41910Y-140673
X41910Y-146388
X43815Y-49233
X43815Y-77808
X43815Y-83523
X43815Y-93048
X43815Y-102573
X43815Y-117813
X43815Y-123528
X43815Y-129243
X43815Y-134958
X43815Y-150198
X43815Y-155913
X45720Y-138768
X45720Y-159723
X47625Y-47328
X47625Y-53043
X47625Y-66378
X47625Y-96858
X47625Y-104478
X47625Y-115908
X47625Y-121623
X47625Y-127338
X47625Y-133053
X47625Y-152103
X47625Y-163533
X49530Y-60663
X49530Y-70188
X49530Y-136863
X49530Y-146388
X49530Y-155913
X49530Y-167343
X51435Y-45423
X51435Y-54948
X51435Y-119718
X51435Y-125433
X51435Y-131148
X51435Y-140673
X51435Y-159723
X51435Y-171153
X53340Y-72093
X53340Y-134958
X53340Y-174963
X55245Y-43518
X55245Y-53043
X55245Y-60663
X55245Y-123528
X55245Y-129243
X55245Y-138768
X55245Y-144483
X55245Y-157818
X55245Y-169248
X55245Y-178773
X57150Y-47328
X57150Y-89238
X57150Y-104478
X57150Y-133053
X57150Y-148293
X57150Y-173058
X59055Y-41613
X59055Y-51138
X59055Y-114003
X59055Y-152103
X59055Y-176868
X59055Y-182583
X60960Y-45423
X60960Y-54948
X60960Y-60663
X60960Y-102573
X60960Y-142578
X60960Y-163533
X60960Y-169248
X60960Y-186393
X62865Y-39708
X62865Y-49233
X62865Y-106383
X62865Y-115908
X62865Y-148293
X62865Y-154008
X62865Y-173058
X62865Y-178773
X64770Y-43518
X64770Y-53043
X64770Y-75903
X64770Y-81618
X64770Y-157818
X64770Y-182583
X64770Y-188298
X66675Y-37803
X66675Y-47328
X66675Y-72093
X66675Y-114003
X66675Y-169248
X66675Y-192108
X68580Y-41613
X68580Y-51138
X68580Y-60663
X68580Y-159723
X68580Y-184488
X70485Y-45423
X70485Y-115908
X70485Y-146388
X70485Y-155913
X70485Y-176868
X70485Y-194013
X72390Y-37803
X72390Y-49233
X72390Y-72093
X72390Y-134958
X72390Y-140673
X72390Y-182583
X72390Y-188298
X74295Y-41613
X74295Y-54948
X74295Y-60663
X74295Y-114003
X74295Y-157818
X76200Y-35898
X76200Y-45423
X76200Y-131148
X76200Y-136863
X76200Y-146388
X76200Y-171153
X76200Y-178773
X76200Y-190203
X78105Y-39708
X78105Y-51138
X78105Y-72093
X78105Y-115908
X78105Y-155913
X78105Y-161628
X78105Y-195918
X80010Y-148293
X80010Y-173058
X80010Y-182583
X81915Y-33993
X81915Y-157818
X81915Y-178773
X83820Y-37803
X83820Y-45423
X83820Y-51138
X83820Y-72093
X83820Y-115908
X83820Y-163533
X83820Y-171153
X83820Y-184488
X83820Y-203538
X85725Y-28278
X85725Y-54948
X85725Y-167343
X85725Y-188298
X85725Y-199728
X87630Y-24468
X87630Y-32088
X87630Y-43518
X87630Y-49233
X87630Y-173058
X87630Y-182583
X87630Y-205443
X89535Y-35898
X89535Y-53043
X89535Y-62568
X89535Y-115908
X89535Y-159723
X89535Y-178773
X91440Y-28278
X91440Y-152103
X91440Y-163533
X91440Y-184488
X91440Y-194013
X91440Y-203538
X91440Y-209253
X93345Y-20658
X93345Y-32088
X93345Y-39708
X93345Y-155913
X93345Y-174963
X93345Y-180678
X93345Y-188298
X95250Y-35898
X95250Y-115908
X95250Y-150198
X95250Y-159723
X95250Y-169248
X95250Y-201633
X95250Y-207348
X97155Y-28278
X97155Y-45423
X97155Y-51138
X97155Y-163533
X97155Y-173058
X97155Y-178773
X97155Y-190203
X99060Y-20658
X99060Y-32088
X99060Y-155913
X99060Y-182583
X99060Y-199728
X99060Y-205443
X100965Y-35898
X100965Y-53043
X100965Y-115908
X100965Y-127338
X100965Y-146388
X100965Y-159723
X100965Y-188298
X100965Y-209253
X102870Y-28278
X102870Y-39708
X102870Y-45423
X102870Y-152103
X102870Y-169248
X102870Y-174963
X102870Y-180678
X102870Y-192108
X102870Y-201633
X104775Y-32088
X104775Y-138768
X104775Y-155913
X104775Y-205443
X106680Y-24468
X106680Y-35898
X106680Y-115908
X106680Y-127338
X106680Y-142578
X106680Y-150198
X106680Y-159723
X106680Y-178773
X106680Y-184488
X106680Y-190203
X106680Y-199728
X108585Y-28278
X108585Y-70188
X108585Y-134958
X108585Y-154008
X108585Y-163533
X108585Y-169248
X108585Y-194013
X108585Y-203538
X110490Y-33993
X110490Y-138768
X110490Y-157818
X110490Y-182583
X110490Y-188298
X112395Y-72093
X112395Y-115908
X112395Y-131148
X112395Y-148293
X112395Y-167343
X112395Y-178773
X112395Y-199728
X114300Y-152103
X114300Y-159723
X114300Y-184488
X116205Y-35898
X116205Y-70188
X116205Y-155913
X116205Y-163533
X116205Y-171153
X116205Y-188298
X116205Y-197823
X118110Y-53043
X118110Y-114003
X118110Y-146388
X118110Y-167343
X118110Y-180678
X120015Y-72093
X120015Y-150198
X120015Y-176868
X120015Y-190203
X120015Y-195918
X121920Y-115908
X121920Y-154008
X121920Y-163533
X121920Y-186393
X123825Y-70188
X123825Y-148293
X123825Y-157818
X123825Y-173058
X123825Y-178773
X123825Y-192108
X125730Y-114003
X125730Y-152103
X125730Y-165438
X125730Y-182583
X127635Y-72093
X127635Y-159723
X127635Y-171153
X127635Y-186393
X129540Y-37803
X129540Y-115908
X129540Y-154008
X129540Y-167343
X129540Y-178773
X129540Y-190203
X131445Y-41613
X131445Y-70188
X131445Y-75903
X131445Y-81618
X131445Y-87333
X131445Y-93048
X131445Y-98763
X131445Y-104478
X131445Y-163533
X131445Y-182583
X133350Y-108288
X133350Y-114003
X133350Y-169248
X133350Y-174963
X133350Y-186393
X135255Y-39708
X135255Y-45423
X135255Y-83523
X135255Y-89238
X135255Y-94953
X135255Y-100668
X135255Y-154008
X135255Y-165438
X135255Y-178773
X137160Y-159723
X137160Y-171153
X139065Y-41613
X139065Y-47328
X139065Y-133053
X139065Y-174963
X140970Y-136863
X140970Y-157818
X140970Y-163533
X140970Y-169248
X142875Y-43518
X142875Y-54948
X142875Y-154008
X142875Y-173058
X144780Y-47328
X144780Y-159723
X144780Y-165438
X146685Y-51138
X146685Y-56853
X146685Y-150198
X146685Y-155913
X148590Y-60663
X148590Y-142578
X148590Y-161628
X150495Y-49233
X150495Y-54948
X150495Y-146388
X150495Y-152103
X152400Y-58758
X152400Y-138768
X154305Y-51138
X156210Y-54948
X156210Y-60663
X160020Y-56853
X161925Y-60663
X161925Y-112098
T2
X83499Y-137922
X84074Y-136972
X84074Y-138872
X84649Y-137922
T3
X43180Y-59055
X43905Y-59762
X44704Y-58420
X48985Y-86690
X51308Y-82804
X53289Y-92253
X54610Y-76835
X55118Y-78994
X56210Y-66650
X57296Y-66059
X57785Y-94666
X58381Y-84226
X58405Y-81798
X58547Y-79502
X60071Y-76581
X60198Y-111912
X60249Y-105867
X60325Y-67623
X60325Y-73660
X60554Y-108966
X60579Y-79629
X60706Y-82753
X62230Y-123190
X62865Y-128270
X64770Y-121920
X64770Y-124460
X65988Y-143914
X67310Y-130810
X67437Y-143891
X68707Y-143764
X69484Y-130175
X70485Y-127724
X72390Y-127000
X74295Y-159893
X75565Y-125730
X76196Y-163072
X76200Y-164211
X76708Y-159893
X78486Y-129845
X78740Y-128168
X78994Y-159893
X79629Y-118649
X79951Y-130767
X80010Y-134874
X80010Y-141224
X80620Y-131978
X80645Y-119253
X81025Y-117200
X82140Y-135988
X82220Y-121658
X82423Y-119099
X82804Y-42418
X83185Y-119888
X86639Y-69494
X86673Y-137985
X87757Y-164846
X88595Y-67883
X89357Y-132029
X89916Y-59436
X90170Y-139700
X90195Y-131420
X90297Y-132893
X91211Y-132004
X91821Y-176530
X91923Y-67433
X92964Y-37846
X94056Y-132512
X94437Y-133299
X95275Y-132309
X95504Y-133121
X101143Y-67361
X104242Y-67462
X104394Y-59182
X105385Y-64394
X105651Y-38367
X106324Y-63586
X106426Y-59182
X106808Y-61626
X107324Y-63575
X108458Y-59182
X109324Y-60980
X110033Y-61685
X110738Y-62393
X111684Y-47168
X113083Y-47369
X113088Y-48369
X113284Y-175895
X116586Y-40767
X117754Y-49366
X118186Y-47142
X118415Y-40970
X120574Y-62905
X121371Y-40843
X122072Y-44120
X123342Y-140360
X124289Y-43411
X124663Y-53340
X124955Y-141304
X125654Y-53188
X125679Y-142113
X125948Y-45740
X126148Y-138422
X126599Y-52862
X126991Y-51197
X127299Y-52148
X127660Y-142926
X127838Y-137058
X127872Y-45686
X128651Y-43028
X129642Y-123647
X129667Y-42545
X129934Y-136919
X130155Y-43529
X130366Y-142756
X130556Y-62044
X131343Y-59708
X131623Y-62044
X132080Y-133985
X132080Y-140335
X132343Y-59708
X132622Y-62044
X133020Y-146533
X133342Y-59708
X133622Y-62044
X134264Y-54204
X134342Y-59708
X134621Y-62044
X135341Y-59708
X135382Y-73406
X135382Y-78232
X135406Y-144475
X135458Y-146228
X135509Y-75946
X135639Y-62044
X136636Y-61965
X136957Y-79959
X136982Y-109017
X137135Y-105893
X137312Y-112065
X137592Y-95809
X137742Y-61553
X138100Y-89662
X138650Y-70200
X138741Y-61589
X139161Y-86677
X139264Y-75163
X139333Y-69438
X139505Y-79154
X139706Y-98142
X139732Y-76046
X139740Y-61552
X139797Y-94432
X140036Y-70669
X140150Y-73990
X140335Y-144145
X140436Y-68561
X140836Y-67586
X141032Y-92940
X141050Y-65688
X141156Y-58386
X141173Y-96012
X141184Y-84561
X141224Y-91948
X141236Y-66670
X141634Y-83575
X141805Y-85361
X141935Y-93548
X142062Y-90093
X142072Y-87192
X142072Y-89078
X142145Y-62034
X142390Y-58524
X142570Y-96962
X142635Y-71451
X142790Y-128107
X143244Y-102423
X143264Y-81293
X143510Y-144145
X143662Y-93447
X143671Y-67920
X143724Y-83235
X143975Y-79951
X144350Y-81006
X144576Y-82714
X144724Y-95062
X145406Y-66533
X145503Y-62966
X145986Y-63844
X145999Y-106782
X146083Y-69308
X146228Y-60808
X146405Y-65481
X146914Y-66396
X147079Y-107849
X147091Y-62535
X147978Y-102462
X148387Y-85750
X149166Y-93311
X149863Y-70916
X150279Y-78908
X150279Y-79907
X150333Y-77910
X150426Y-86961
X150495Y-111125
X151130Y-131445
X151206Y-109169
X151359Y-93510
X151435Y-87169
X151567Y-84171
X152121Y-73635
X152197Y-62738
X152222Y-86470
X152358Y-93496
X152396Y-111121
X152826Y-85662
X153303Y-110058
X154081Y-74942
X154349Y-87417
X155089Y-108429
X155343Y-87320
X155626Y-71540
X155727Y-112141
X156158Y-110057
X157094Y-88463
X157193Y-72118
X157384Y-85426
X157844Y-86440
X158276Y-87918
X158502Y-109455
X158916Y-76747
X159106Y-84825
X160105Y-84705
X160223Y-104546
X160568Y-96299
X160579Y-76479
X160934Y-72913
X160943Y-85251
X161636Y-96468
X161897Y-86346
X162530Y-71950
X162549Y-76657
X162674Y-106667
X162700Y-85750
X162965Y-88798
X163178Y-84872
X165947Y-75446
X166245Y-82729
X166372Y-71024
X166442Y-86872
X167143Y-84133
X167579Y-69473
X167927Y-86283
X168365Y-90733
X169065Y-75575
X169292Y-74602
X169351Y-84832
X169614Y-78622
X169697Y-87655
T4
X34036Y-60198
X35052Y-66040
X35358Y-67766
X36068Y-62484
X36068Y-64770
X36778Y-67766
X39878Y-66040
X41148Y-61214
X42164Y-62230
X45085Y-99060
X45212Y-62230
X45466Y-63500
X45515Y-61018
X46736Y-75692
X47498Y-93218
X48260Y-99060
X49530Y-102235
X49530Y-110490
X49784Y-76454
X50038Y-91440
X50292Y-87884
X50292Y-143764
X50800Y-96520
X51232Y-86258
X51308Y-99695
X51308Y-111760
X51562Y-68834
X51562Y-78232
X52590Y-97575
X52832Y-94488
X53340Y-80010
X53467Y-152400
X53594Y-87884
X53975Y-113665
X54102Y-147955
X54864Y-91186
X54864Y-99568
X54889Y-102768
X55052Y-107364
X55118Y-83312
X55118Y-85852
X55118Y-96647
X55372Y-63500
X57150Y-106680
X59690Y-132080
X59713Y-121766
X61468Y-126365
X62865Y-120650
X63379Y-129298
X65200Y-120650
X65786Y-131953
X65786Y-163221
X65786Y-166101
X66040Y-59182
X67259Y-127062
X68453Y-120904
X68580Y-124460
X68580Y-128778
X70104Y-55118
X70358Y-133858
X71120Y-123190
X71501Y-121158
X72771Y-171577
X75311Y-123190
X75565Y-120650
X75565Y-121920
X75692Y-49530
X76200Y-62230
X77470Y-185928
X78105Y-63754
X79121Y-46101
X79248Y-59436
X79659Y-122525
X80010Y-178689
X80137Y-176403
X81077Y-120929
X81534Y-124968
X81661Y-43561
X82042Y-129438
X82042Y-161798
X82296Y-143002
X82677Y-139827
X82677Y-141224
X82766Y-134620
X82804Y-132334
X83058Y-167640
X83566Y-197206
X83566Y-200152
X83629Y-192087
X83769Y-121056
X83947Y-125095
X84074Y-129032
X84120Y-141419
X84328Y-62484
X85425Y-134044
X85522Y-123063
X85725Y-140994
X85852Y-132334
X86341Y-143656
X86614Y-129540
X86741Y-62484
X86868Y-135890
X86995Y-59055
X87884Y-134874
X87884Y-144018
X88011Y-195453
X88254Y-147841
X88900Y-128524
X89154Y-140843
X89408Y-122809
X89916Y-157353
X90424Y-144018
X91186Y-129032
X91440Y-200025
X91948Y-141097
X92583Y-144018
X92710Y-135382
X93853Y-125692
X93853Y-128817
X94132Y-144018
X94234Y-47244
X94742Y-120650
X96012Y-59436
X96393Y-125692
X96393Y-128817
X97282Y-144018
X97536Y-120650
X97790Y-135890
X97790Y-142494
X98425Y-42785
X98425Y-59055
X99060Y-55880
X100330Y-135890
X100330Y-142240
X100584Y-62484
X100787Y-143459
X101549Y-142342
X103251Y-134239
X104369Y-55855
X104648Y-185928
X105232Y-53340
X105283Y-196850
X106045Y-132207
X107518Y-52248
X108382Y-48616
X108712Y-165608
X109982Y-44602
X111555Y-44448
X112268Y-59436
X112522Y-57150
X113462Y-40386
X114148Y-137160
X114300Y-59055
X114427Y-119380
X114910Y-51943
X115742Y-38392
X116713Y-176149
X117348Y-62484
X117348Y-125476
X117907Y-37541
X118161Y-119380
X118364Y-124460
X118770Y-44450
X118872Y-128524
X118999Y-38545
X119202Y-63195
X119380Y-59690
X119380Y-123190
X119863Y-56539
X119876Y-126746
X120396Y-121920
X120904Y-125730
X121285Y-120650
X121285Y-171323
X121412Y-53010
X121641Y-54762
X121666Y-124535
X121920Y-134620
X122022Y-38786
X122174Y-131826
X122403Y-51257
X123190Y-124460
X123330Y-40119
X123698Y-127508
X124054Y-48082
X124460Y-120015
X124460Y-137160
X124587Y-167259
X124714Y-130668
X124968Y-128524
X125095Y-124460
X125730Y-133985
X126289Y-62865
X126492Y-128778
X126924Y-144856
X127065Y-121920
X127065Y-123190
X127065Y-124460
X127396Y-132716
X127762Y-134112
X128245Y-56998
X128270Y-162052
X128321Y-62890
X128458Y-142099
X128524Y-135890
X128893Y-146164
X129261Y-61824
X130175Y-139408
X130277Y-148209
X130429Y-132588
X130683Y-135890
X131064Y-144653
X131651Y-128095
X132015Y-121920
X132080Y-123190
X132080Y-124460
X132461Y-158242
X133325Y-148539
X133350Y-130429
X133477Y-136652
X134211Y-149702
X134366Y-132207
X134449Y-145412
X134620Y-124856
X135270Y-140175
X135763Y-135636
X135890Y-120015
X136296Y-142189
X137160Y-148082
X137414Y-97384
X137973Y-86766
X138126Y-127075
X138151Y-57531
X138811Y-149225
X138913Y-93675
X138929Y-143401
X139065Y-118745
X139065Y-146685
X139954Y-125222
X140589Y-141224
X140589Y-147955
X140716Y-127508
X141209Y-111760
X141356Y-80031
X141592Y-125019
X141605Y-107950
X141992Y-105056
X142240Y-115570
X142263Y-114115
X142342Y-132994
X142595Y-126352
X142605Y-99588
X142621Y-123317
X142624Y-94962
X142697Y-91262
X143408Y-121223
X143510Y-139700
X143597Y-69067
X143656Y-60141
X143787Y-141048
X143789Y-62890
X143815Y-104668
X143916Y-108712
X143945Y-115802
X144166Y-98010
X144323Y-124676
X144780Y-119634
X144893Y-88983
X145085Y-71298
X145135Y-76658
X145436Y-86487
X145592Y-84258
X145885Y-73351
X146202Y-105232
X146328Y-121283
X146691Y-138159
X146952Y-120244
X147066Y-112014
X147142Y-109449
X147152Y-129857
X147320Y-139243
X147447Y-126619
X147483Y-100076
X147815Y-137020
X147955Y-71425
X148351Y-131163
X148514Y-105588
X148892Y-109165
X149149Y-124562
X149341Y-118607
X149530Y-101297
X149969Y-121505
X150167Y-93953
X150470Y-133452
X150787Y-99641
X151090Y-116840
X151205Y-115010
X151531Y-107056
X151621Y-72305
X152065Y-125706
X152273Y-133071
X152298Y-131803
X152542Y-100635
X152832Y-98069
X152959Y-96647
X153213Y-81382
X153225Y-130238
X153289Y-114427
X153340Y-79223
X153888Y-104699
X154254Y-93328
X154305Y-115913
X155346Y-124816
X157498Y-105268
X157679Y-79839
X158611Y-93353
X158699Y-82283
X158979Y-72238
X158979Y-75026
X159639Y-78384
X159755Y-83588
X160503Y-79288
X160757Y-109524
X160782Y-107899
X161036Y-100355
X161532Y-77480
X161704Y-99233
X161734Y-97645
X161799Y-88170
X162708Y-74023
X163271Y-72907
X164175Y-90899
X164324Y-93220
X164567Y-99111
X165356Y-72708
X165517Y-103159
X166109Y-73892
X166697Y-85192
X167741Y-77457
X168239Y-82533
X169201Y-86006
X169670Y-90737
T6
X88905Y-40040
X91445Y-40040
X95885Y-39760
X98425Y-39760
X100965Y-39760
X104780Y-40040
X107320Y-40040
T7
X37041Y-57655
X38837Y-55859
X38837Y-59451
X40633Y-54063
X40633Y-57655
X42429Y-52267
X42429Y-55859
X44225Y-54063
X102743Y-119913
X105283Y-119913
X107823Y-119913
X110363Y-119913
X112669Y-133360
X112669Y-135900
X112669Y-138440
X112669Y-140980
X115209Y-133360
X115209Y-135900
X115209Y-138440
X115209Y-140980
X119576Y-139820
X121372Y-141616
X123168Y-143412
X123825Y-57770
X123825Y-60310
X123825Y-62850
X124126Y-46199
X124964Y-145208
X125922Y-47995
X126760Y-147004
X127719Y-49791
X129515Y-51587
X131311Y-53383
X133107Y-55180
X134903Y-56976
T8
X92329Y-146050
X107319Y-146050
T5
G00X159307Y-101692
M15
G01X158247Y-101399
M16
G05
G00X161616Y-93367
M15
G01X160556Y-93073
M16
G05
G00X163094Y-102743
M15
G01X162515Y-102582
M16
G05
G00X165403Y-94417
M15
G01X164824Y-94257
M16
G05
T9
G00X62917Y-84821
M15
G01X64617Y-84821
M16
G05
G00X62917Y-87361
M15
G01X64617Y-87361
M16
G05
G00X62917Y-89901
M15
G01X64617Y-89901
M16
G05
G00X62917Y-92441
M15
G01X64617Y-92441
M16
G05
G00X62917Y-94981
M15
G01X64617Y-94981
M16
G05
G00X62917Y-97521
M15
G01X64617Y-97521
M16
G05
G00X62917Y-100061
M15
G01X64617Y-100061
M16
G05
G00X90167Y-70941
M15
G01X90167Y-72641
M16
G05
G00X92707Y-70941
M15
G01X92707Y-72641
M16
G05
G00X95247Y-70941
M15
G01X95247Y-72641
M16
G05
G00X97787Y-70941
M15
G01X97787Y-72641
M16
G05
G00X100327Y-70941
M15
G01X100327Y-72641
M16
G05
G00X102867Y-70941
M15
G01X102867Y-72641
M16
G05
G00X105407Y-70941
M15
G01X105407Y-72641
M16
G05
M30
